<?xml version="1.0" encoding="UTF-8"?>
<svg id="Layer_2" data-name="Layer 2" xmlns="http://www.w3.org/2000/svg" xmlns:xlink="http://www.w3.org/1999/xlink" viewBox="0 0 451.54 263.9">
  <defs>
    <style>
      .cls-1 {
        fill: none;
      }

      .cls-2 {
        clip-path: url(#clippath);
      }

      .cls-3 {
        fill: #001689;
      }

      .cls-4 {
        fill: #fff;
      }

      .cls-5 {
        fill: #fff3e1;
      }
    </style>
    <clipPath id="clippath">
      <rect class="cls-1" x="397.43" width="54.11" height="72.57"/>
    </clipPath>
  </defs>
  <g id="Layer_3" data-name="Layer 3">
    <g>
      <g>
        <path class="cls-4" d="m12,54.69c-16.31-1.91-14.62-15.53-2.14-11.41-5.36-12.59,17.03-17.15,15.6-1.92,10.32-6.35,17.87,9.59,5,12.61-9.02,2.11-14.43,1.17-18.46.71Z"/>
        <path class="cls-5" d="m25.45,41.36c1.43-15.23-20.96-10.67-15.6,1.92-12.48-4.12-14.17,9.5,2.14,11.41.95.11,1.97.24,3.1.36l3.12-.05c-4.72,0-12.42-1.4-11.78-7.41.29-1.48,1.74-2.25,4.15-2.07.45.03.88-.12,1.19-.4.32-.28.53-.69.54-1.16.06-2.87.65-7.05,4.96-6.79,3.93.23,5.23,2.88,5.52,4.89.06.43.29.8.6,1.05.32.25.73.38,1.16.33,2.29-.23,5.55.3,5.91,3.16.47,3.79-1.01,7.6-8.81,8.65,2.5-.12,5.39-.48,8.8-1.28,12.87-3.02,5.32-18.96-5-12.61Z"/>
        <path class="cls-3" d="m25.89,41.1c1.29-.74,2.75-1.25,4.26-1.28.75-.02,1.51.09,2.23.31.72.23,1.4.57,2.02,1.02,1.22.89,2.15,2.18,2.64,3.62.49,1.44.5,3.05-.04,4.49-.14.36-.3.71-.5,1.03-.2.33-.42.64-.67.93-.5.58-1.1,1.07-1.74,1.48-1.29.82-2.76,1.3-4.23,1.59-2.92.66-5.9,1.09-8.9,1.18-1.5.04-3,0-4.49-.12-1.49-.11-2.98-.31-4.46-.49-.75-.09-1.49-.21-2.23-.35-.74-.15-1.47-.34-2.19-.56-1.44-.44-2.83-1.06-4.09-1.91-.63-.42-1.21-.91-1.73-1.46-.52-.56-.97-1.18-1.29-1.88-.32-.69-.51-1.46-.47-2.23.03-.77.29-1.53.76-2.14.47-.61,1.11-1.07,1.8-1.37.35-.15.71-.26,1.08-.35.37-.08.74-.13,1.12-.16,1.5-.11,3,.16,4.42.59-.72-.2-1.45-.35-2.19-.43-.74-.09-1.48-.11-2.22-.04-.37.04-.73.1-1.09.18-.36.09-.71.21-1.04.36-.67.3-1.27.76-1.69,1.35-.43.58-.67,1.3-.68,2.02-.02.72.17,1.44.48,2.1.32.66.76,1.25,1.26,1.78.51.52,1.08.99,1.7,1.39,1.23.81,2.6,1.39,4.01,1.82.71.22,1.42.39,2.15.54.73.14,1.46.25,2.19.34,1.48.17,2.96.36,4.44.46,1.48.11,2.97.14,4.45.1,2.97-.08,5.92-.49,8.82-1.13.73-.15,1.44-.33,2.13-.58.69-.25,1.36-.56,1.98-.95,1.23-.77,2.27-1.88,2.8-3.24.53-1.35.54-2.89.09-4.28-.44-1.39-1.33-2.65-2.5-3.54-.58-.44-1.24-.8-1.94-1.03-.7-.23-1.44-.36-2.18-.35-.74,0-1.48.11-2.19.31-.72.2-1.41.49-2.06.84Z"/>
        <path class="cls-3" d="m9.58,42.58c-.45-1.15-.7-2.39-.65-3.64.03-.62.15-1.25.34-1.84.2-.6.48-1.17.83-1.69.69-1.06,1.66-1.92,2.75-2.55,1.09-.63,2.3-1.04,3.55-1.23,1.25-.17,2.53-.12,3.75.21,1.21.34,2.36.97,3.25,1.88.44.45.82.96,1.13,1.51.3.55.53,1.14.69,1.74.16.6.25,1.22.3,1.84.04.62.03,1.24-.02,1.85,0-.62-.03-1.23-.1-1.84-.08-.61-.21-1.21-.39-1.79-.36-1.16-.99-2.24-1.85-3.07-.87-.83-1.95-1.42-3.11-1.72-1.16-.31-2.39-.35-3.58-.18-1.19.17-2.35.56-3.4,1.15-1.05.59-1.98,1.4-2.67,2.38-.69.98-1.13,2.15-1.24,3.36-.06.6-.05,1.22.03,1.82.08.61.22,1.21.4,1.8Z"/>
        <path class="cls-4" d="m5.16,42.97c-1.75-.05-4,.97-4.17,3.29,0,.06.03.11.08.12.05.02.12,0,.15-.07.35-.84,1.03-1.79,1.67-2.17.63-.37,1.24-.72,2.29-.94.06-.01.09-.05.09-.1,0-.07-.03-.14-.11-.14Z"/>
        <path class="cls-4" d="m17.08,32.7c-2.91-.08-6.64,1.62-6.92,5.46,0,.1.06.18.13.2.09.03.2,0,.25-.11.59-1.39,1.71-2.97,2.77-3.6,1.05-.62,2.06-1.19,3.8-1.56.1-.02.15-.09.16-.16.02-.11-.05-.23-.19-.23Z"/>
      </g>
      <g>
        <path class="cls-4" d="m225.54,31.11c-19.66-2.3-17.62-18.71-2.58-13.74-6.46-15.17,20.52-20.67,18.8-2.31,12.43-7.66,21.53,11.56,6.03,15.2-10.87,2.55-17.39,1.41-22.24.86Z"/>
        <path class="cls-5" d="m241.76,15.06c1.72-18.35-25.25-12.86-18.8,2.31-15.04-4.97-17.07,11.45,2.58,13.74,1.14.13,2.37.29,3.73.43l3.76-.06c-5.69,0-14.97-1.69-14.19-8.93.35-1.78,2.09-2.72,5-2.49.55.04,1.06-.15,1.44-.48.39-.34.64-.84.65-1.39.08-3.46.79-8.5,5.97-8.19,4.73.28,6.3,3.47,6.65,5.89.07.52.34.96.73,1.27.38.3.88.46,1.4.4,2.76-.28,6.69.37,7.12,3.81.56,4.57-1.21,9.15-10.62,10.42,3.01-.14,6.5-.58,10.61-1.54,15.51-3.63,6.41-22.85-6.03-15.2Z"/>
        <path class="cls-3" d="m242.29,14.74c1.55-.9,3.31-1.51,5.13-1.54.91-.02,1.82.11,2.69.38.87.27,1.69.69,2.43,1.22,1.48,1.08,2.6,2.63,3.18,4.37.59,1.73.61,3.68-.05,5.42-.17.43-.36.85-.6,1.25-.24.39-.51.78-.81,1.12-.6.7-1.32,1.29-2.09,1.79-1.55.99-3.33,1.56-5.09,1.92-3.52.79-7.11,1.32-10.72,1.43-1.81.05-3.62,0-5.42-.14-1.8-.14-3.59-.38-5.37-.58-.9-.11-1.79-.25-2.68-.43-.89-.18-1.77-.4-2.63-.67-1.73-.54-3.42-1.28-4.93-2.3-.76-.51-1.46-1.1-2.09-1.76-.62-.67-1.16-1.42-1.55-2.26-.38-.84-.61-1.76-.57-2.69.03-.93.35-1.85.92-2.58.56-.74,1.33-1.29,2.17-1.65.42-.18.86-.32,1.3-.42.44-.09.89-.16,1.34-.2,1.81-.13,3.62.19,5.33.71-.87-.24-1.75-.42-2.64-.52-.89-.1-1.79-.14-2.68-.05-.44.04-.88.12-1.32.22-.43.11-.85.25-1.25.44-.8.36-1.53.91-2.04,1.62-.52.7-.8,1.56-.82,2.43-.02.87.2,1.74.57,2.53.38.79.91,1.51,1.52,2.14.62.63,1.3,1.2,2.05,1.68,1.48.97,3.13,1.67,4.83,2.2.85.26,1.72.48,2.59.65.88.17,1.76.3,2.64.41,1.79.2,3.57.43,5.35.56,1.78.13,3.57.17,5.36.12,3.58-.09,7.14-.6,10.63-1.37.88-.18,1.74-.39,2.57-.7.83-.3,1.64-.67,2.38-1.14,1.48-.93,2.74-2.27,3.37-3.91.64-1.63.65-3.48.11-5.16-.53-1.68-1.6-3.19-3.01-4.26-.7-.54-1.49-.96-2.34-1.24-.84-.28-1.73-.43-2.62-.43-.89,0-1.78.13-2.64.38-.86.24-1.7.59-2.49,1.02Z"/>
        <path class="cls-3" d="m222.63,16.53c-.54-1.38-.85-2.88-.78-4.38.04-.75.18-1.5.41-2.22.24-.72.58-1.41.99-2.04.84-1.27,2-2.31,3.31-3.08,1.31-.76,2.78-1.26,4.28-1.48,1.5-.21,3.05-.15,4.52.26,1.46.41,2.85,1.17,3.91,2.27.53.54.99,1.16,1.36,1.82.36.66.64,1.37.83,2.1.19.73.3,1.47.36,2.21.05.75.03,1.49-.02,2.23,0-.74-.03-1.48-.12-2.22-.1-.73-.25-1.46-.47-2.15-.44-1.4-1.19-2.69-2.23-3.69-1.04-1-2.35-1.71-3.75-2.07-1.4-.37-2.88-.43-4.31-.22-1.44.2-2.84.67-4.1,1.39-1.26.71-2.38,1.68-3.22,2.87-.83,1.18-1.36,2.59-1.49,4.05-.07.73-.06,1.47.04,2.2.1.73.26,1.45.48,2.17Z"/>
        <path class="cls-4" d="m217.31,17c-2.11-.06-4.82,1.17-5.03,3.97,0,.08.04.13.1.15.07.02.15,0,.18-.08.43-1.01,1.24-2.16,2.01-2.61.76-.45,1.5-.87,2.76-1.13.07-.01.11-.07.11-.12.01-.08-.04-.17-.14-.17Z"/>
        <path class="cls-4" d="m231.67,4.62c-3.5-.1-8,1.95-8.34,6.59,0,.13.07.21.16.24.11.04.24,0,.3-.13.71-1.67,2.06-3.58,3.33-4.34,1.26-.75,2.48-1.44,4.58-1.88.11-.02.18-.11.19-.2.02-.13-.06-.28-.23-.28Z"/>
      </g>
      <g>
        <path class="cls-4" d="m151.38,86.39c-13.85,0-12.21-17.22-.27-17.22-6.19-9.46,8.84-18.92,15.77-6.2,0-14.63,22.99-13.04,20.34,5.04,9.43-6.36,22.04,13.07,5.36,16.89-17.04,3.9-28.66,1.49-41.2,1.49Z"/>
        <path class="cls-5" d="m187.23,68.01c3.05-11.19-12.57-21.23-19.49-9.01,7.25-8.08,18.38.33,17.73,8.32-.06.71.19,1.37.62,1.86.47.54,1.17.88,1.96.88,3.21,0,6.82,1.41,6.82,5.7,0,5.88-10.05,11.17-28.71,11.17,0,.02.02.03.03.05,7.76.33,16.09.28,26.41-2.08,16.68-3.82,4.07-23.25-5.36-16.89Z"/>
        <path class="cls-3" d="m187.52,67.82c.94-.55,1.99-.93,3.08-1.05,1.09-.12,2.21.02,3.25.37,1.04.35,2.02.89,2.89,1.56.87.68,1.64,1.48,2.28,2.38.64.9,1.16,1.89,1.51,2.94.36,1.05.54,2.16.49,3.28-.05,1.11-.33,2.23-.89,3.21-.55.98-1.32,1.83-2.23,2.48-.9.67-1.91,1.15-2.95,1.52-.26.1-.53.17-.79.26-.27.08-.53.14-.8.21l-.81.18-.8.16c-1.07.22-2.15.41-3.23.58l-1.62.25c-.54.07-1.08.15-1.63.22-1.08.14-2.17.26-3.26.35-.54.05-1.09.09-1.63.13-.55.03-1.09.07-1.64.09-1.09.05-2.18.09-3.28.1-1.09,0-2.18,0-3.28-.04,2.18-.13,4.35-.26,6.52-.45,1.08-.1,2.17-.21,3.25-.32.54-.06,1.08-.12,1.62-.19.54-.06,1.08-.13,1.62-.2,1.08-.14,2.15-.3,3.23-.47,1.07-.17,2.15-.35,3.22-.54l.8-.14.79-.17c.26-.07.52-.13.78-.2.26-.08.52-.15.77-.24,1.01-.35,1.99-.81,2.86-1.43.87-.61,1.61-1.4,2.14-2.32.53-.92.82-1.97.87-3.03.06-1.06-.11-2.14-.44-3.16-.33-1.02-.82-1.99-1.44-2.88-.61-.89-1.35-1.69-2.19-2.37-.84-.68-1.79-1.23-2.81-1.59-1.02-.36-2.11-.52-3.19-.42-1.08.08-2.14.44-3.09.96Z"/>
        <path class="cls-3" d="m166.95,62.72c0-1.46.29-2.94.9-4.3.62-1.35,1.58-2.56,2.8-3.43,1.21-.89,2.65-1.45,4.13-1.69,1.48-.24,3.01-.16,4.46.21,1.45.38,2.83,1.04,4.01,1.97,1.18.92,2.17,2.09,2.86,3.41.71,1.32,1.13,2.76,1.33,4.23.18,1.47.15,2.95-.07,4.4.01-.37.04-.73.04-1.1,0-.18,0-.36,0-.55v-.55c-.05-.73-.12-1.45-.25-2.17-.26-1.43-.73-2.81-1.44-4.06-.71-1.24-1.66-2.35-2.81-3.21-1.14-.86-2.45-1.49-3.83-1.84-1.38-.36-2.83-.44-4.24-.23-1.41.2-2.78.72-3.96,1.52-1.18.8-2.15,1.91-2.81,3.19-.33.64-.59,1.32-.78,2.02-.18.7-.3,1.43-.37,2.15Z"/>
        <path class="cls-5" d="m152.9,73.75c.72-.46,1.24-1.14,1.48-1.92.16-.53.2-1.1.1-1.67-.82-4.48,2.36-12.76,11.1-8.93-.01-.11-.02-.21-.03-.31-7.33-9.52-20.26-.63-14.44,8.26-11.94,0-13.58,17.22.27,17.22,1.66,0,3.31.04,4.96.11-5.74-2.08-8.5-9.55-3.44-12.75Z"/>
        <path class="cls-4" d="m145.38,73.08c2.27-2.18,6.01-2,5.54-2.49-.47-.48-4.07-.56-6.34,1.62-2.27,2.18-2.34,5.79-1.87,6.27.47.48.4-3.22,2.67-5.4Z"/>
        <path class="cls-4" d="m153.41,60.72c2.23-2.57,6.51-2.1,5.96-2.58-.55-.48-4.45-.61-6.68,1.97-2.23,2.57-2.34,6.16-1.79,6.63.55.48.28-3.45,2.51-6.02Z"/>
        <path class="cls-3" d="m169.31,86.99c-3.89.17-7.77.05-11.65-.1l-5.82-.25c-.98-.03-1.96-.13-2.93-.33-.48-.09-.96-.23-1.43-.37-.47-.16-.93-.33-1.38-.55-.89-.42-1.73-.98-2.45-1.67-.71-.69-1.3-1.52-1.71-2.42-.82-1.82-.89-3.92-.28-5.79.3-.94.76-1.82,1.35-2.61.59-.78,1.31-1.47,2.11-2.02.81-.55,1.7-.98,2.63-1.25.93-.28,1.9-.42,2.87-.44-1.94.09-3.86.68-5.43,1.81-.78.56-1.47,1.25-2.04,2.03-.56.78-.99,1.65-1.26,2.57-.55,1.83-.46,3.86.35,5.58.4.86.97,1.64,1.66,2.29.69.65,1.5,1.17,2.36,1.57.43.2.88.36,1.33.51.46.13.92.26,1.39.35.94.18,1.89.27,2.85.29,1.94.03,3.88.08,5.82.17,3.88.17,7.75.4,11.63.65Z"/>
        <path class="cls-3" d="m150.8,68.91c-.61-.97-1.04-2.07-1.19-3.23l-.02-.11v-.11s-.02-.22-.02-.22l-.02-.44c0-.29.03-.59.04-.88.05-.29.09-.58.16-.87l.12-.42.06-.21c.02-.07.05-.14.08-.21.84-2.21,2.72-3.98,4.94-4.78,1.11-.4,2.3-.59,3.48-.52,1.18.07,2.34.38,3.39.92,1.05.53,1.98,1.26,2.79,2.09.79.85,1.44,1.81,1.99,2.82-.66-.94-1.36-1.84-2.19-2.62-.83-.77-1.76-1.42-2.78-1.89-2.03-.95-4.41-1.04-6.49-.26-.13.04-.26.1-.39.15l-.38.17c-.25.12-.49.26-.73.4-.23.16-.46.3-.69.47l-.32.26c-.11.09-.22.17-.31.27-.82.75-1.47,1.67-1.91,2.7-.44,1.02-.63,2.15-.54,3.28.08,1.13.42,2.23.92,3.26Z"/>
      </g>
      <g>
        <path class="cls-4" d="m353.99,95.83c-40.65-4.75-36.44-38.69-5.34-28.42-13.35-31.37,42.43-42.74,38.87-4.78,25.72-15.84,44.53,23.91,12.46,31.43-22.48,5.27-35.96,2.91-45.99,1.78Z"/>
        <path class="cls-5" d="m387.52,62.63c3.56-37.96-52.22-26.58-38.87,4.78-31.1-10.27-35.31,23.68,5.34,28.42,2.36.27,4.91.6,7.72.89l7.77-.11c-11.77,0-30.95-3.49-29.35-18.46.71-3.68,4.33-5.62,10.34-5.16,1.13.09,2.19-.3,2.97-1,.8-.71,1.32-1.73,1.34-2.88.16-7.16,1.62-17.57,12.35-16.93,9.78.58,13.04,7.18,13.74,12.18.15,1.08.71,2,1.5,2.62.79.62,1.82.94,2.9.83,5.7-.58,13.84.76,14.72,7.88,1.16,9.44-2.51,18.93-21.96,21.56,6.23-.29,13.44-1.19,21.94-3.18,32.07-7.52,13.25-47.26-12.46-31.43Z"/>
        <path class="cls-3" d="m388.63,61.98c3.21-1.85,6.84-3.13,10.61-3.18,1.87-.05,3.76.22,5.56.78,1.8.56,3.5,1.42,5.03,2.53,3.05,2.23,5.37,5.44,6.57,9.03,1.21,3.59,1.26,7.61-.1,11.2-.35.89-.75,1.76-1.24,2.58-.5.81-1.04,1.6-1.68,2.32-1.24,1.46-2.74,2.67-4.33,3.7-3.21,2.04-6.89,3.23-10.54,3.97-7.27,1.64-14.7,2.73-22.18,2.95-3.74.11-7.48,0-11.2-.29-3.72-.28-7.42-.78-11.11-1.21-1.86-.23-3.71-.52-5.55-.88-1.84-.37-3.66-.84-5.45-1.39-3.58-1.11-7.06-2.64-10.19-4.75-1.57-1.05-3.02-2.28-4.32-3.65-1.29-1.38-2.41-2.95-3.21-4.67-.79-1.73-1.26-3.64-1.18-5.56.07-1.92.73-3.82,1.89-5.34,1.16-1.53,2.76-2.67,4.49-3.41.87-.37,1.77-.65,2.68-.87.92-.2,1.85-.34,2.78-.4,3.74-.26,7.48.39,11.02,1.47-1.79-.49-3.62-.86-5.46-1.07-1.84-.21-3.7-.28-5.54-.1-.92.09-1.83.25-2.72.46-.89.23-1.76.53-2.59.9-1.66.75-3.16,1.89-4.22,3.35-1.07,1.45-1.66,3.23-1.7,5.03-.05,1.8.41,3.6,1.19,5.23.79,1.63,1.88,3.12,3.14,4.43,1.27,1.31,2.7,2.47,4.23,3.47,3.07,2.01,6.48,3.46,10,4.54,1.76.54,3.55.98,5.36,1.34,1.81.35,3.63.63,5.47.85,3.7.42,7.38.89,11.07,1.15,3.69.27,7.39.36,11.09.24,7.39-.19,14.76-1.23,21.99-2.83,1.82-.37,3.59-.82,5.32-1.44,1.72-.62,3.39-1.38,4.92-2.36,3.07-1.93,5.66-4.69,6.97-8.08,1.33-3.37,1.35-7.21.24-10.67-1.1-3.47-3.3-6.6-6.22-8.81-1.46-1.11-3.09-1.98-4.83-2.57-1.74-.58-3.58-.89-5.42-.88-1.85-.01-3.69.28-5.47.78-1.78.5-3.51,1.22-5.14,2.1Z"/>
        <path class="cls-3" d="m347.97,65.67c-1.12-2.85-1.75-5.95-1.61-9.07.08-1.56.37-3.11.86-4.6.49-1.49,1.19-2.91,2.06-4.22,1.73-2.63,4.14-4.77,6.85-6.36,2.72-1.58,5.74-2.6,8.85-3.06,3.11-.44,6.31-.31,9.35.53,3.03.85,5.89,2.42,8.09,4.69,1.1,1.12,2.05,2.4,2.81,3.77.75,1.37,1.32,2.84,1.73,4.34.4,1.5.63,3.04.75,4.58.11,1.54.07,3.08-.05,4.61,0-1.54-.07-3.07-.25-4.58-.2-1.51-.51-3.01-.98-4.45-.9-2.89-2.46-5.57-4.62-7.64-2.16-2.07-4.86-3.53-7.75-4.28-2.89-.77-5.95-.88-8.91-.45-2.97.42-5.86,1.39-8.48,2.86-2.61,1.47-4.92,3.48-6.65,5.93-1.72,2.45-2.81,5.35-3.09,8.37-.15,1.51-.12,3.03.08,4.55.2,1.51.54,3.01.99,4.48Z"/>
        <path class="cls-4" d="m336.96,66.64c-4.36-.12-9.98,2.43-10.4,8.21-.01.16.08.26.2.3.14.05.3,0,.37-.17.88-2.09,2.56-4.46,4.16-5.41,1.57-.93,3.09-1.79,5.71-2.34.14-.03.22-.13.24-.25.02-.16-.08-.34-.29-.35Z"/>
        <path class="cls-4" d="m366.65,41.03c-7.24-.2-16.55,4.03-17.25,13.62-.02.26.14.44.34.5.23.08.51,0,.62-.27,1.47-3.46,4.25-7.4,6.89-8.97,2.61-1.55,5.13-2.97,9.48-3.89.24-.05.36-.22.39-.41.04-.27-.13-.57-.47-.58Z"/>
      </g>
      <g class="cls-2">
        <g>
          <path class="cls-4" d="m428.63,49.78c-16.04,0-14.14-20.2-.31-20.2-7.17-11.1,10.25-22.2,18.27-7.28,0-17.17,26.64-15.3,23.57,5.91,10.93-7.46,25.53,15.34,6.21,19.82-19.74,4.58-33.2,1.75-47.74,1.75Z"/>
          <path class="cls-5" d="m470.16,28.21c3.53-13.13-14.57-24.91-22.58-10.57,8.4-9.48,21.29.39,20.54,9.77-.07.83.21,1.61.71,2.18.55.63,1.36,1.03,2.27,1.03,3.72,0,7.91,1.66,7.91,6.68,0,6.9-11.64,13.11-33.27,13.11.01.02.02.04.03.06,8.99.39,18.64.33,30.6-2.44,19.32-4.48,4.72-27.27-6.21-19.82Z"/>
          <path class="cls-3" d="m446.67,22c0-1.72.33-3.45,1.04-5.04.71-1.58,1.83-3,3.25-4.03,1.4-1.04,3.07-1.7,4.78-1.98,1.72-.28,3.49-.19,5.17.24,1.68.44,3.28,1.22,4.65,2.31,1.37,1.08,2.51,2.46,3.32,4.01.82,1.54,1.31,3.24,1.54,4.96.2,1.72.17,3.46-.08,5.16.02-.43.05-.86.05-1.29,0-.21.01-.43,0-.64l-.02-.64c-.04-.85-.13-1.7-.27-2.54-.3-1.67-.84-3.3-1.67-4.76-.83-1.46-1.93-2.76-3.25-3.76-1.32-1.01-2.83-1.75-4.44-2.16-1.6-.43-3.28-.51-4.92-.27-1.64.23-3.22.85-4.58,1.79-1.37.94-2.49,2.24-3.25,3.75-.39.75-.69,1.55-.9,2.37-.21.82-.35,1.67-.43,2.53Z"/>
          <path class="cls-5" d="m430.39,34.95c.84-.54,1.44-1.34,1.72-2.26.19-.62.24-1.29.12-1.96-.95-5.26,2.73-14.97,12.86-10.48-.01-.12-.03-.24-.04-.36-8.49-11.17-23.47-.74-16.73,9.69-13.83,0-15.73,20.2.31,20.2,1.93,0,3.84.05,5.75.13-6.65-2.44-9.85-11.21-3.99-14.96Z"/>
          <path class="cls-4" d="m421.68,34.15c2.63-2.56,6.96-2.35,6.42-2.92-.54-.57-4.72-.66-7.35,1.9-2.63,2.56-2.71,6.79-2.17,7.36.54.57.47-3.78,3.1-6.34Z"/>
          <path class="cls-4" d="m430.98,19.65c2.58-3.02,7.54-2.47,6.9-3.03-.64-.56-5.16-.71-7.74,2.31-2.58,3.02-2.71,7.22-2.07,7.78s.32-4.05,2.91-7.07Z"/>
          <path class="cls-3" d="m449.41,50.48c-4.5.2-9.01.06-13.5-.11l-6.74-.29c-1.13-.04-2.27-.15-3.39-.39-.56-.11-1.11-.27-1.66-.44-.54-.19-1.08-.39-1.6-.64-1.04-.5-2-1.15-2.84-1.96-.83-.81-1.51-1.78-1.98-2.84-.95-2.13-1.03-4.6-.32-6.8.35-1.1.88-2.14,1.56-3.06.69-.92,1.51-1.73,2.45-2.37.94-.65,1.97-1.14,3.05-1.47,1.08-.33,2.21-.49,3.33-.52-2.24.11-4.47.8-6.29,2.12-.91.66-1.71,1.47-2.36,2.38-.65.92-1.15,1.94-1.46,3.01-.64,2.15-.53,4.52.4,6.55.47,1.01,1.13,1.92,1.93,2.68.8.76,1.73,1.38,2.73,1.85.5.24,1.02.43,1.54.6.53.16,1.06.31,1.61.41,1.09.22,2.19.32,3.31.34,2.25.03,4.5.1,6.75.2,4.5.2,8.98.47,13.47.76Z"/>
          <path class="cls-3" d="m427.96,29.27c-.71-1.14-1.2-2.43-1.38-3.79l-.02-.13v-.13s-.02-.26-.02-.26l-.03-.51c0-.34.03-.69.05-1.03.06-.34.1-.68.19-1.02l.14-.5.07-.25c.03-.08.06-.16.09-.24.97-2.6,3.15-4.67,5.73-5.61,1.29-.47,2.67-.69,4.04-.61,1.37.08,2.71.45,3.92,1.07,1.22.62,2.3,1.47,3.23,2.45.91,1,1.67,2.13,2.31,3.31-.76-1.1-1.58-2.16-2.53-3.08-.96-.9-2.04-1.67-3.22-2.22-2.35-1.11-5.11-1.23-7.52-.31-.15.05-.3.12-.45.18l-.44.2c-.29.14-.57.31-.85.46-.26.19-.54.36-.79.55l-.37.31c-.13.1-.25.2-.36.32-.95.88-1.71,1.96-2.21,3.16-.5,1.2-.73,2.53-.63,3.84.09,1.32.49,2.62,1.07,3.83Z"/>
        </g>
      </g>
      <g>
        <g>
          <path class="cls-4" d="m215.01,234.24c-22.43-2.62-20.1-21.35-2.95-15.68-7.37-17.31,23.41-23.58,21.44-2.64,14.19-8.74,24.57,13.19,6.88,17.34-12.4,2.91-19.84,1.61-25.37.98Z"/>
          <path class="cls-5" d="m233.51,215.92c1.96-20.94-28.81-14.67-21.44,2.64-17.16-5.67-19.48,13.06,2.95,15.68,1.3.15,2.71.33,4.26.49l4.29-.06c-6.49,0-17.08-1.92-16.19-10.19.39-2.03,2.39-3.1,5.71-2.84.62.05,1.21-.17,1.64-.55.44-.39.73-.95.74-1.59.09-3.95.9-9.69,6.81-9.34,5.4.32,7.19,3.96,7.58,6.72.08.59.39,1.1.83,1.44.44.34,1,.52,1.6.46,3.14-.32,7.64.42,8.12,4.35.64,5.21-1.38,10.45-12.11,11.89,3.44-.16,7.42-.66,12.11-1.76,17.69-4.15,7.31-26.07-6.88-17.34Z"/>
          <path class="cls-3" d="m234.12,215.56c1.77-1.02,3.78-1.73,5.85-1.76,1.03-.03,2.07.12,3.06.43.99.31,1.93.79,2.77,1.4,1.68,1.23,2.96,3,3.62,4.98.67,1.98.69,4.2-.06,6.18-.19.49-.42.97-.69,1.42-.28.45-.58.88-.93,1.28-.68.8-1.51,1.47-2.39,2.04-1.77,1.13-3.8,1.78-5.81,2.19-4.01.91-8.11,1.5-12.23,1.63-2.06.06-4.13,0-6.18-.16-2.06-.15-4.09-.43-6.13-.67-1.03-.13-2.05-.28-3.06-.49-1.01-.21-2.02-.46-3.01-.77-1.98-.61-3.9-1.46-5.62-2.62-.86-.58-1.67-1.26-2.38-2.01-.71-.76-1.33-1.62-1.77-2.58-.44-.95-.69-2.01-.65-3.07.04-1.06.4-2.11,1.05-2.95.64-.84,1.52-1.48,2.48-1.88.48-.2.98-.36,1.48-.48.51-.11,1.02-.18,1.53-.22,2.07-.14,4.12.21,6.08.81-.99-.27-2-.48-3.01-.59-1.02-.12-2.04-.15-3.06-.06-.51.05-1.01.14-1.5.25-.49.13-.97.29-1.43.5-.92.42-1.74,1.04-2.33,1.85-.59.8-.92,1.78-.94,2.78-.03.99.23,1.99.66,2.89.44.9,1.04,1.72,1.73,2.45.7.72,1.49,1.36,2.33,1.91,1.69,1.11,3.58,1.91,5.51,2.51.97.3,1.96.54,2.96.74,1,.2,2.01.35,3.02.47,2.04.23,4.07.49,6.11.64,2.04.15,4.08.2,6.12.13,4.08-.1,8.14-.68,12.13-1.56,1.01-.2,1.98-.45,2.93-.79.95-.34,1.87-.76,2.72-1.3,1.69-1.06,3.12-2.59,3.84-4.46.74-1.86.75-3.98.13-5.89-.61-1.92-1.82-3.64-3.43-4.86-.8-.61-1.71-1.09-2.67-1.42-.96-.32-1.97-.49-2.99-.49-1.02,0-2.03.15-3.02.43-.98.28-1.93.67-2.84,1.16Z"/>
          <path class="cls-3" d="m211.69,217.6c-.62-1.57-.97-3.28-.89-5,.04-.86.2-1.71.47-2.54.27-.82.66-1.61,1.13-2.33.95-1.45,2.29-2.63,3.78-3.51,1.5-.87,3.17-1.43,4.88-1.69,1.71-.24,3.48-.17,5.16.29,1.67.47,3.25,1.34,4.47,2.59.61.62,1.13,1.32,1.55,2.08.42.76.73,1.57.95,2.39.22.83.35,1.68.41,2.53.06.85.04,1.7-.03,2.55,0-.85-.04-1.69-.14-2.53-.11-.84-.28-1.66-.54-2.46-.5-1.59-1.36-3.07-2.55-4.21-1.19-1.14-2.68-1.95-4.28-2.36-1.59-.42-3.28-.49-4.92-.25-1.64.23-3.24.77-4.68,1.58-1.44.81-2.72,1.92-3.67,3.27-.95,1.35-1.55,2.95-1.71,4.62-.09.83-.06,1.67.04,2.51.11.83.3,1.66.54,2.47Z"/>
          <path class="cls-4" d="m205.62,218.13c-2.41-.07-5.5,1.34-5.74,4.53,0,.09.05.15.11.17.08.03.17,0,.21-.09.49-1.15,1.41-2.46,2.29-2.98.87-.52,1.71-.99,3.15-1.29.08-.02.12-.07.13-.14.01-.09-.04-.19-.16-.19Z"/>
          <path class="cls-4" d="m222,204c-4-.11-9.13,2.22-9.52,7.51-.01.14.08.24.19.28.13.04.28,0,.34-.15.81-1.91,2.34-4.08,3.8-4.95,1.44-.86,2.83-1.64,5.23-2.14.13-.03.2-.12.22-.23.02-.15-.07-.31-.26-.32Z"/>
        </g>
        <g>
          <path class="cls-4" d="m370.13,138.61c-20.62-2.41-18.48-19.62-2.71-14.42-6.77-15.91,21.52-21.68,19.71-2.43,13.04-8.03,22.58,12.13,6.32,15.94-11.4,2.67-18.24,1.48-23.32.9Z"/>
          <path class="cls-5" d="m387.13,121.77c1.81-19.25-26.48-13.48-19.71,2.43-15.77-5.21-17.91,12.01,2.71,14.42,1.2.13,2.49.3,3.91.45l3.94-.06c-5.97,0-15.7-1.77-14.89-9.36.36-1.87,2.2-2.85,5.24-2.61.57.04,1.11-.15,1.51-.51.41-.36.67-.88.68-1.46.08-3.63.82-8.91,6.26-8.59,4.96.3,6.61,3.64,6.97,6.18.08.55.36,1.01.76,1.33.4.31.92.48,1.47.42,2.89-.29,7.02.39,7.46,4,.59,4.79-1.27,9.6-11.13,10.93,3.16-.15,6.82-.6,11.13-1.61,16.26-3.81,6.72-23.97-6.32-15.94Z"/>
          <path class="cls-3" d="m387.69,121.44c1.63-.94,3.47-1.59,5.38-1.61.95-.02,1.91.11,2.82.39.91.28,1.78.72,2.55,1.28,1.55,1.13,2.72,2.76,3.33,4.58.61,1.82.64,3.86-.05,5.68-.18.45-.38.89-.63,1.31-.26.41-.53.81-.85,1.18-.63.74-1.39,1.35-2.2,1.88-1.63,1.04-3.49,1.64-5.34,2.01-3.69.83-7.46,1.38-11.25,1.5-1.89.05-3.79,0-5.68-.15-1.89-.14-3.76-.39-5.63-.61-.94-.12-1.88-.26-2.81-.45-.93-.19-1.85-.42-2.76-.71-1.82-.56-3.58-1.34-5.17-2.41-.79-.53-1.53-1.15-2.19-1.85-.65-.7-1.22-1.49-1.63-2.37-.4-.88-.64-1.84-.6-2.82.04-.97.37-1.94.96-2.71.59-.77,1.4-1.36,2.28-1.73.44-.19.9-.33,1.36-.44.47-.1.94-.17,1.41-.2,1.9-.13,3.79.2,5.59.75-.91-.25-1.84-.44-2.77-.54-.93-.11-1.88-.14-2.81-.05-.47.05-.93.13-1.38.23-.45.12-.89.27-1.32.46-.84.38-1.6.96-2.14,1.7-.54.74-.84,1.64-.86,2.55-.03.91.21,1.82.6,2.65.4.83.95,1.58,1.59,2.25.65.66,1.37,1.25,2.15,1.76,1.56,1.02,3.29,1.76,5.07,2.3.89.27,1.8.5,2.72.68.92.18,1.84.32,2.77.43,1.88.21,3.74.45,5.61.59,1.87.14,3.75.18,5.62.12,3.75-.1,7.48-.62,11.15-1.43.92-.19,1.82-.41,2.7-.73.87-.31,1.72-.7,2.5-1.2,1.56-.98,2.87-2.38,3.53-4.1.68-1.71.69-3.65.12-5.41-.56-1.76-1.67-3.35-3.16-4.47-.74-.56-1.57-1.01-2.45-1.3-.88-.29-1.81-.45-2.75-.45-.94,0-1.87.14-2.77.4-.9.25-1.78.62-2.61,1.07Z"/>
          <path class="cls-3" d="m367.07,123.31c-.57-1.45-.89-3.02-.82-4.6.04-.79.19-1.58.43-2.33.25-.76.6-1.48,1.04-2.14.88-1.34,2.1-2.42,3.47-3.23,1.38-.8,2.91-1.32,4.49-1.55,1.57-.22,3.2-.16,4.74.27,1.54.43,2.99,1.23,4.11,2.38.56.57,1.04,1.21,1.42,1.91.38.7.67,1.44.88,2.2.2.76.32,1.54.38,2.32.05.78.04,1.56-.02,2.34,0-.78-.04-1.56-.13-2.33-.1-.77-.26-1.53-.5-2.26-.46-1.47-1.25-2.82-2.34-3.87-1.1-1.05-2.47-1.79-3.93-2.17-1.47-.39-3.02-.45-4.52-.23-1.51.21-2.97.71-4.3,1.45-1.33.74-2.5,1.77-3.37,3.01-.87,1.24-1.43,2.71-1.57,4.24-.08.76-.06,1.54.04,2.31.1.77.27,1.53.5,2.27Z"/>
          <path class="cls-4" d="m361.49,123.8c-2.21-.06-5.06,1.23-5.27,4.16,0,.08.04.13.1.15.07.02.15,0,.19-.08.45-1.06,1.3-2.26,2.11-2.74.8-.47,1.57-.91,2.9-1.19.07-.02.11-.07.12-.13.01-.08-.04-.17-.14-.18Z"/>
          <path class="cls-4" d="m376.55,110.82c-3.67-.1-8.39,2.04-8.75,6.91,0,.13.07.22.17.26.12.04.26,0,.32-.14.74-1.76,2.16-3.75,3.5-4.55,1.32-.79,2.6-1.51,4.81-1.97.12-.03.19-.11.2-.21.02-.14-.06-.29-.24-.29Z"/>
        </g>
        <g>
          <path class="cls-4" d="m362.8,263.26c-12.2,0-10.76-15.17-.24-15.17-5.45-8.34,7.79-16.67,13.9-5.47,0-12.89,20.26-11.49,17.92,4.44,8.31-5.6,19.42,11.52,4.72,14.88-15.01,3.44-25.25,1.31-36.3,1.31Z"/>
          <path class="cls-5" d="m394.38,247.06c2.68-9.86-11.08-18.71-17.17-7.94,6.39-7.12,16.19.29,15.62,7.33-.05.63.16,1.21.54,1.64.42.47,1.03.78,1.72.78,2.83,0,6.01,1.25,6.01,5.02,0,5.18-8.85,9.84-25.3,9.84,0,.01.02.03.02.04,6.83.29,14.17.25,23.27-1.83,14.69-3.36,3.59-20.48-4.72-14.88Z"/>
          <path class="cls-3" d="m394.64,246.89c.83-.48,1.75-.82,2.72-.92.96-.1,1.95.01,2.86.32.92.31,1.78.78,2.55,1.38.77.59,1.45,1.3,2.01,2.09.57.79,1.02,1.66,1.33,2.59.31.92.48,1.9.44,2.89-.04.98-.29,1.96-.78,2.83-.48.86-1.17,1.61-1.96,2.18-.79.59-1.69,1.01-2.6,1.34-.23.09-.46.15-.7.23-.23.07-.47.13-.71.19l-.71.16-.71.14c-.94.19-1.89.36-2.84.52l-1.43.22c-.48.06-.95.13-1.43.19-.96.12-1.91.23-2.87.31-.48.04-.96.08-1.44.11-.48.03-.96.06-1.44.08-.96.04-1.92.08-2.89.09-.96,0-1.92,0-2.89-.04,1.92-.11,3.84-.23,5.75-.4.96-.08,1.91-.19,2.86-.29.48-.05.95-.11,1.43-.17.48-.05.95-.12,1.43-.18.95-.13,1.9-.27,2.85-.41.95-.15,1.89-.31,2.84-.48l.71-.13.7-.15c.23-.06.46-.12.69-.18.22-.07.45-.13.68-.21.89-.31,1.76-.71,2.52-1.26.77-.54,1.42-1.24,1.88-2.05.47-.81.72-1.74.77-2.67.05-.94-.09-1.89-.39-2.78-.29-.9-.73-1.75-1.27-2.53-.54-.78-1.19-1.49-1.93-2.09-.74-.6-1.57-1.08-2.47-1.4-.9-.32-1.86-.46-2.81-.37-.95.07-1.88.38-2.72.85Z"/>
          <path class="cls-3" d="m376.52,242.4c0-1.29.25-2.59.79-3.79.54-1.19,1.39-2.25,2.47-3.02,1.07-.78,2.33-1.28,3.64-1.49,1.31-.21,2.65-.14,3.93.18,1.28.33,2.49.92,3.54,1.73,1.04.81,1.91,1.85,2.52,3.01.62,1.16.99,2.44,1.17,3.72.15,1.29.13,2.6-.06,3.87.01-.32.04-.64.03-.97,0-.16,0-.32,0-.48v-.48c-.04-.64-.11-1.28-.22-1.91-.23-1.26-.64-2.48-1.27-3.57-.63-1.1-1.47-2.07-2.47-2.82-1-.76-2.16-1.32-3.37-1.62-1.22-.32-2.5-.39-3.74-.2-1.24.18-2.45.64-3.49,1.34-1.04.71-1.9,1.68-2.48,2.81-.29.56-.52,1.16-.69,1.78-.16.62-.27,1.26-.32,1.9Z"/>
          <path class="cls-5" d="m364.14,252.12c.64-.4,1.09-1.01,1.31-1.69.15-.47.18-.97.09-1.47-.72-3.95,2.08-11.24,9.78-7.87,0-.09-.02-.18-.03-.27-6.46-8.39-17.85-.56-12.72,7.28-10.52,0-11.96,15.17.24,15.17,1.47,0,2.92.04,4.37.09-5.05-1.83-7.49-8.42-3.03-11.23Z"/>
          <path class="cls-4" d="m357.52,251.52c2-1.92,5.29-1.76,4.88-2.19-.41-.43-3.59-.49-5.59,1.42-2,1.92-2.06,5.1-1.65,5.53.41.43.36-2.84,2.35-4.76Z"/>
          <path class="cls-4" d="m364.59,240.63c1.97-2.27,5.73-1.85,5.25-2.27-.48-.42-3.92-.53-5.89,1.73-1.97,2.27-2.06,5.42-1.57,5.85s.25-3.04,2.21-5.31Z"/>
          <path class="cls-3" d="m378.6,263.78c-3.42.15-6.85.04-10.27-.08l-5.12-.22c-.86-.03-1.73-.11-2.58-.29-.43-.08-.85-.2-1.26-.33-.41-.14-.82-.29-1.21-.48-.79-.37-1.52-.87-2.16-1.47-.63-.61-1.15-1.34-1.51-2.13-.72-1.6-.78-3.46-.24-5.11.27-.83.67-1.61,1.19-2.3.52-.69,1.15-1.3,1.86-1.78.71-.49,1.5-.86,2.32-1.1.82-.25,1.68-.37,2.53-.39-1.71.08-3.4.6-4.78,1.59-.69.49-1.3,1.1-1.79,1.78-.49.69-.87,1.45-1.11,2.26-.49,1.61-.4,3.4.31,4.92.35.76.86,1.44,1.46,2.01.61.57,1.32,1.03,2.08,1.39.38.18.78.32,1.17.45.4.12.81.23,1.22.3.83.16,1.67.24,2.52.26,1.71.02,3.42.07,5.13.15,3.42.15,6.83.36,10.25.57Z"/>
          <path class="cls-3" d="m362.29,247.86c-.54-.86-.91-1.83-1.05-2.85l-.02-.1v-.1s-.02-.19-.02-.19l-.02-.39c0-.26.02-.52.04-.77.05-.25.08-.51.14-.76l.11-.37.05-.19c.02-.06.05-.12.07-.18.74-1.95,2.4-3.51,4.36-4.22.98-.36,2.03-.52,3.07-.46,1.04.06,2.06.34,2.98.81.93.46,1.75,1.11,2.45,1.84.69.75,1.27,1.6,1.75,2.48-.58-.83-1.2-1.62-1.93-2.31-.73-.68-1.55-1.25-2.45-1.67-1.79-.83-3.88-.92-5.72-.23-.12.03-.23.09-.34.14l-.34.15c-.22.11-.43.23-.65.35-.2.14-.41.27-.6.42l-.28.23c-.1.08-.19.15-.28.24-.72.66-1.3,1.48-1.68,2.38-.38.9-.56,1.9-.48,2.89.07.99.37,1.96.81,2.87Z"/>
        </g>
      </g>
    </g>
  </g>
</svg>