<?xml version="1.0" encoding="UTF-8"?>
<svg xmlns="http://www.w3.org/2000/svg" viewBox="0 0 224.11 208.88">
  <defs>
    <style>
      .cls-1 {
        fill: #f7f1f0;
      }

      .cls-2 {
        fill: #001689;
      }

      .cls-3 {
        fill: #e8f5f3;
      }

      .cls-4, .cls-5, .cls-6 {
        fill: #fff;
      }

      .cls-7 {
        fill: #fcb231;
      }

      .cls-8 {
        fill: #eee3e2;
      }

      .cls-9 {
        fill: #8ed3d0;
      }

      .cls-10 {
        fill: #42c0bb;
      }

      .cls-11 {
        fill: #343332;
      }

      .cls-12 {
        fill: #cdeae8;
        mix-blend-mode: multiply;
      }

      .cls-13 {
        opacity: .44;
      }

      .cls-14 {
        opacity: .47;
      }

      .cls-15 {
        opacity: .4;
      }

      .cls-16 {
        isolation: isolate;
      }

      .cls-5 {
        opacity: .6;
      }

      .cls-6 {
        opacity: .48;
      }
    </style>
  </defs>
  <g class="cls-16">
    <g id="Layer_2" data-name="Layer 2">
      <g id="Layer_3" data-name="Layer 3">
        <g>
          <g>
            <path class="cls-1" d="m160.41,40.29c18.29,26.68,18.84,30.89,27.17,38.69,8.33,7.81,29.23,23.7,20.14,42.03-9.08,18.33-21.21,20.04-31.05,17.28.27,8.35-32.8,27.92-44.96-12.73,10.63-33.82,28.69-85.28,28.69-85.28Z"/>
            <path class="cls-1" d="m167.8,63.97l-27.34,34.69c-3.11,9.35-6.15,18.66-8.74,26.92,12.16,40.65,45.23,21.08,44.96,12.73,8.52,2.39,17.59.51,26.2-9.63,3.71-8.52,5.93-20.25-1.29-27.81-22.57-23.64-25.37-17.83-33.79-36.89Z"/>
            <path class="cls-8" d="m165.6,66.75l-2.33,2.95c-.18.23-.32.5-.39.79l-5.1,19.17c-.11.42-.35.8-.68,1.09l-19.17,16.53c-.3.26-.52.6-.65.97-1.9,5.8-3.72,11.44-5.37,16.68-.13.43-.13.89,0,1.32,1.89,6.1,4.26,10.81,6.92,14.38,1.43,1.35,2.84,2.24,4.17,2.43,5.91.83,8.9,0,11.29-.46,1.07-.21,1.81-1.18,1.73-2.27,0-.04,0-.09,0-.13-.17-2.31,2.93-3.25,4.06-1.23.06.11.13.23.19.34.47.85,1.45,1.32,2.39,1.08,2.66-.69,5.59-2.52,7.32-4.01.66-.57.89-1.48.61-2.3-.47-1.37-1.37-3.3-2.2-5.36-.77-1.9,1.28-3.72,3.07-2.72s3.76,2.31,5.58,3.81c.69.57,1.63.67,2.42.27,2.67-1.35,5.18-3.78,7.12-5.88.72-.77.77-1.94.13-2.78-.78-1.02-1.8-2.46-2.81-3.91-1.3-1.87.82-4.26,2.81-3.15.93.52,1.9,1.13,2.86,1.84,1.09.81,2.65.47,3.24-.75,2.13-4.35,4.57-12.89,4.24-18.45-.03-.53-.29-1.03-.67-1.4-16.68-16.4-20.41-14.49-27.12-28.41-.7-1.45-2.67-1.69-3.67-.42Z"/>
            <path class="cls-8" d="m133.2,129.98c10.36,27.37,31.52,21.78,39.92,14.24-33.73,9.51-33.87-20.69-36.98-23.48l-2.94.16c-.19.6-.38,1.19-.57,1.78l.58,7.3Z"/>
            <path class="cls-11" d="m176.68,138.31c-.03.74-.21,1.47-.48,2.17-.15.35-.3.69-.49,1.01-.17.34-.38.65-.58.96-.85,1.24-1.91,2.33-3.06,3.29-2.31,1.93-5.03,3.33-7.91,4.22-1.44.43-2.92.73-4.42.88-1.5.13-3.01.13-4.5-.07-1.49-.18-2.96-.52-4.36-1.04-1.4-.53-2.73-1.2-3.97-2.01,1.34.62,2.71,1.16,4.12,1.55l1.06.27c.36.07.72.14,1.07.2.35.08.72.1,1.08.16.18.02.36.05.54.07l.54.04c2.89.21,5.8-.14,8.56-1,1.38-.41,2.73-.96,4.02-1.6,1.3-.64,2.53-1.41,3.69-2.27,1.15-.88,2.24-1.85,3.15-2.98.46-.56.87-1.16,1.21-1.8.33-.65.6-1.33.73-2.06Z"/>
            <path class="cls-2" d="m160.42,37.42c3.15,5.11,6.2,10.28,9.3,15.42,1.54,2.58,3.07,5.15,4.64,7.71,1.56,2.56,3.15,5.1,4.84,7.56,1.69,2.46,3.48,4.84,5.47,7.05.99,1.11,2.04,2.16,3.11,3.18,1.08,1.02,2.21,2.01,3.33,3.01,4.48,3.99,8.92,8.14,12.62,12.97,1.83,2.42,3.48,5.01,4.72,7.82,1.23,2.8,2.05,5.83,2.15,8.93.1,3.1-.55,6.2-1.78,9.02-.62,1.42-1.34,2.74-2.11,4.05-.77,1.31-1.6,2.58-2.51,3.8-1.81,2.44-3.9,4.69-6.31,6.56-2.4,1.87-5.12,3.35-8.04,4.23-2.92.87-6.02,1.11-9.01.66-1.5-.22-2.97-.61-4.37-1.15-1.41-.55-2.75-1.24-4.01-2.05,2.59,1.51,5.47,2.51,8.43,2.85,2.96.35,5.97,0,8.77-.93,2.81-.92,5.41-2.42,7.7-4.29,2.29-1.87,4.29-4.08,6.01-6.49.86-1.2,1.65-2.46,2.38-3.75.73-1.29,1.43-2.61,2-3.95,1.15-2.69,1.72-5.61,1.6-8.51-.11-2.91-.88-5.77-2.08-8.45-1.2-2.68-2.8-5.19-4.59-7.54-3.59-4.73-7.96-8.83-12.4-12.84-1.11-1.01-2.23-2.01-3.32-3.06-1.09-1.05-2.15-2.14-3.15-3.28-2.01-2.27-3.8-4.73-5.46-7.24-1.66-2.52-3.22-5.09-4.72-7.69-1.51-2.6-2.99-5.21-4.45-7.83l-8.74-15.74Z"/>
            <path class="cls-2" d="m169.34,67.29c1.05,2.33,2.38,4.53,3.94,6.54,1.54,2.02,3.27,3.89,5.09,5.66,1.83,1.76,3.74,3.45,5.71,5.07,1.96,1.63,3.95,3.23,5.95,4.83,3.96,3.23,7.98,6.5,11.27,10.5.41.5.79,1.03,1.18,1.54.37.53.73,1.07,1.07,1.62.65,1.12,1.25,2.28,1.68,3.5.87,2.44,1.19,5.08.8,7.62l.02-.96v-.48c.01-.16.02-.32,0-.48l-.08-.95-.04-.47c-.02-.16-.06-.31-.08-.47l-.18-.93-.04-.23-.07-.23-.14-.45c-.09-.3-.18-.61-.28-.91l-.36-.88c-.96-2.34-2.42-4.44-4.07-6.34-1.66-1.91-3.5-3.67-5.42-5.34-1.91-1.68-3.89-3.29-5.88-4.89-3.97-3.22-7.99-6.44-11.58-10.13-1.8-1.84-3.48-3.81-4.94-5.93-1.44-2.13-2.7-4.4-3.54-6.82Z"/>
            <path class="cls-4" d="m170.93,62.43c.72,1.2,1.5,2.34,2.28,3.48l.59.85.6.84c.39.57.8,1.12,1.21,1.68l2.44,3.34c.4.57.82,1.11,1.24,1.66l.64.82.66.8c1.78,2.11,3.67,4.15,5.73,5.99,2.05,1.86,4.25,3.56,6.59,5.06l-.07.12c-2.46-1.32-4.77-2.92-6.96-4.67-2.18-1.76-4.19-3.73-6.1-5.79-1.89-2.07-3.77-4.18-5.28-6.56-.76-1.19-1.48-2.39-2.11-3.65-.64-1.25-1.23-2.54-1.6-3.91l.12-.05Z"/>
          </g>
          <g>
            <g>
              <g>
                <path class="cls-9" d="m123.09,119.22c32.26-6.27,43.52,15.69,60.63,17.87,8.22,1.05,31.73-2.11,40.39,12.03-1.82-1.64-12.61-6.26-22.24,1.61-11.17,9.11-36.34,48.13-73.92,35.68-37.32-24.63-4.86-67.18-4.86-67.18Z"/>
                <path class="cls-12" d="m160.72,134.66c8.64,7.4,15.07,14.56,31.03,11.94-5.14,15.87-31.08,12.55-32.16,21.93-1.15,10.03-12.24,15.57-20.7,16.9-6.28.98-10.85-36.75-10.85-36.75l-1.52-30.2,18.85,7.1c2.02.76,3.99,1.65,5.89,2.65,3.37,1.78,6.55,3.94,9.46,6.43Z"/>
                <path class="cls-2" d="m123.09,119.22c4.41-.93,8.94-1.36,13.46-1.22.57.01,1.13.07,1.69.11l.85.06c.28.02.56.07.84.1l1.68.21,1.67.29c2.22.43,4.42.99,6.56,1.73,4.29,1.47,8.34,3.55,12.22,5.87,3.89,2.29,7.63,4.82,11.6,6.91,1.98,1.05,4.02,1.97,6.15,2.63,2.13.66,4.33,1.02,6.57,1.09,4.49.17,9.02.1,13.52.53,4.5.4,9.01,1.16,13.24,2.8,2.11.82,4.13,1.89,5.94,3.26,1.81,1.36,3.4,3.01,4.62,4.91-1.29-1.85-2.91-3.45-4.73-4.76-1.82-1.31-3.84-2.33-5.95-3.1-4.21-1.56-8.69-2.26-13.17-2.6-2.24-.17-4.49-.25-6.74-.3-2.25-.05-4.5-.06-6.76-.14-2.26-.06-4.56-.42-6.73-1.09-2.18-.66-4.27-1.6-6.27-2.65-4-2.13-7.74-4.68-11.6-6.98-1.93-1.15-3.88-2.26-5.9-3.25-2.01-.99-4.07-1.89-6.18-2.65-2.11-.76-4.28-1.34-6.48-1.8l-1.65-.31-1.67-.23c-.28-.03-.56-.08-.83-.11l-.84-.07c-.56-.04-1.12-.11-1.68-.13-4.49-.25-9,.12-13.44.9Z"/>
                <path class="cls-2" d="m223.8,148.87c-.96-.64-2.04-1.08-3.13-1.45-1.1-.36-2.22-.63-3.36-.8-2.28-.34-4.61-.31-6.85.16-2.25.45-4.4,1.34-6.32,2.57-1.95,1.21-3.6,2.82-5.22,4.46-3.21,3.31-6.31,6.75-9.52,10.08-3.22,3.32-6.54,6.56-10.07,9.57-3.55,2.98-7.29,5.75-11.29,8.12-.49.31-1.01.57-1.51.86l-1.53.84-1.56.77c-.52.25-1.04.52-1.58.74l-1.6.68c-.53.24-1.08.43-1.63.63l-1.64.58c-.55.19-1.11.33-1.67.5-4.46,1.29-9.12,1.93-13.76,1.8-4.64-.15-9.24-1.06-13.6-2.58,4.41,1.37,9,2.21,13.61,2.25,4.61.06,9.21-.63,13.6-1.97,4.39-1.35,8.62-3.25,12.56-5.63,3.95-2.37,7.65-5.13,11.17-8.1,3.52-2.97,6.84-6.18,10.07-9.48,1.61-1.66,3.2-3.33,4.78-5.02,1.58-1.68,3.17-3.37,4.82-5,.83-.81,1.66-1.62,2.55-2.38.87-.77,1.82-1.46,2.81-2.08,1.98-1.23,4.19-2.11,6.48-2.53,2.29-.43,4.66-.41,6.94-.02,1.14.19,2.27.49,3.36.88,1.08.4,2.15.87,3.1,1.54Z"/>
                <g class="cls-14">
                  <path class="cls-4" d="m158.82,128.42c-.15.24.35.77,1.3,1.57.95.79,2.34,1.85,4.01,2.97,1.67,1.13,3.63,2.32,5.68,3.4,2.04,1.1,4.21,2.03,6.21,2.78,4.03,1.48,6.68,1.81,8.22,1.99,1.56.08,2.05.05,2.07-.21.02-.32-.39-.48-1.84-.63-1.43-.24-3.97-.49-7.86-2.04-7.88-2.95-16.86-11.14-17.78-9.83Z"/>
                </g>
                <g class="cls-13">
                  <path class="cls-4" d="m196.05,141.56c0,.17.56.23,1.45.22.9,0,2.15-.07,3.59-.08,1.44-.02,3.07.01,4.72.14,1.65.14,3.3.38,4.79.72.74.18,1.4.36,2,.53.59.2,1.11.38,1.58.54.45.19.85.36,1.2.5.17.07.34.14.49.2.15.07.28.14.4.2.99.49,1.31.61,1.4.49.11-.16-.13-.37-1.08-.9-.47-.29-1.16-.55-2.07-.95-.46-.18-.99-.36-1.59-.57-.6-.2-1.27-.38-2.02-.6-1.51-.37-3.19-.72-4.88-.93-1.69-.2-3.37-.3-4.86-.29-1.49,0-2.78.11-3.69.26-.91.15-1.44.32-1.43.53Z"/>
                </g>
              </g>
              <path class="cls-9" d="m88.86,159.63c3.96,18.35,12.71,32.36,18.5,40.17,2.52,3.4,2.55,8.61,7.07,8.6,3.23,0,7-5.51,8.24-10.86.21-.9.29-1.82.25-2.74-.04-.99-.22-1.98-.53-2.94-1.88-5.78-3.42-14.38-6.74-20.62-6.01-11.3-26.81-11.62-26.81-11.62Z"/>
              <path class="cls-1" d="m114.44,208.4c3.23,0,7-5.51,8.24-10.86.21-.9.29-1.82.25-2.74-.04-.99-.22-1.98-.53-2.94-.51-1.57-.99-3.35-1.5-5.23-5.31,8.52-11.98,11.14-15.96,9.77.4.56,2.04,2.88,2.42,3.39,2.52,3.4,2.55,8.61,7.07,8.6Z"/>
              <path class="cls-2" d="m120.91,186.64c-.73,1.51-1.61,2.95-2.67,4.27-.26.34-.55.65-.83.96-.14.16-.28.32-.43.47l-.45.45c-.3.3-.61.59-.95.86-.33.27-.65.56-1,.8-.69.5-1.42.95-2.19,1.34-.39.17-.77.38-1.18.51l-.61.22c-.2.07-.42.11-.62.17-.83.24-1.7.31-2.55.31-.86-.05-1.71-.22-2.47-.58.83.15,1.65.17,2.45.09.2-.03.4-.06.6-.09l.3-.05c.1-.02.2-.05.29-.08.19-.05.39-.1.58-.15.19-.05.38-.13.57-.19.38-.12.75-.29,1.12-.45.38-.14.72-.36,1.08-.54.71-.39,1.39-.82,2.04-1.31.34-.22.64-.49.97-.74.16-.13.32-.25.47-.39l.45-.41.46-.4c.15-.14.29-.29.44-.43.28-.29.59-.57.87-.87,1.14-1.18,2.18-2.47,3.26-3.76Z"/>
              <path class="cls-12" d="m122.93,194.8c-.04-.99-.22-1.98-.53-2.94-1.49-4.6-2.78-10.99-4.91-16.56l-26.19-6.59c1.78,5.54,3.93,10.58,6.18,15.05,8.6,2.9,19.6,7.51,22.74,19.83,1.09-1.81,1.97-3.94,2.47-6.05.21-.9.29-1.82.25-2.74Z"/>
              <path class="cls-2" d="m88.86,159.63c.98,3.97,2.15,7.9,3.59,11.72,1.4,3.83,3.03,7.58,4.87,11.22,1.85,3.63,3.84,7.2,6.07,10.61,1.1,1.72,2.25,3.4,3.44,5.05l.9,1.23c.32.43.61.89.86,1.35.51.93.91,1.89,1.31,2.83.4.93.81,1.85,1.36,2.62.55.77,1.28,1.34,2.17,1.53.22.05.45.08.68.1.12,0,.24.01.35.01.11,0,.21,0,.32-.03.43-.06.86-.22,1.27-.45.82-.46,1.54-1.14,2.19-1.88,1.29-1.5,2.3-3.27,3.06-5.12.38-.93.7-1.88.94-2.85.25-.95.35-1.94.3-2.93-.04-.99-.24-1.96-.55-2.92-.3-.99-.58-1.98-.84-2.97l-1.53-5.95c-1.02-3.95-2.16-7.9-3.96-11.58,1,1.79,1.82,3.68,2.52,5.6.71,1.92,1.33,3.88,1.91,5.85l1.67,5.91c.28.98.58,1.96.9,2.92.34.98.58,2.03.65,3.09.07,1.06,0,2.13-.26,3.16-.24,1.02-.56,2.01-.94,2.98-.78,1.93-1.79,3.79-3.16,5.41-.69.8-1.47,1.56-2.43,2.11-.48.27-1.02.49-1.61.57-.14.03-.3.03-.44.04-.14,0-.28,0-.42-.01-.28-.02-.56-.06-.84-.12-.56-.12-1.1-.37-1.56-.71-.47-.34-.86-.75-1.18-1.2-.64-.9-1.07-1.87-1.48-2.81-.4-.95-.79-1.88-1.26-2.75-.24-.43-.49-.85-.78-1.24l-.91-1.25c-1.19-1.68-2.36-3.37-3.44-5.11-2.2-3.47-4.2-7.07-5.96-10.78-1.77-3.71-3.33-7.51-4.64-11.4-1.29-3.9-2.37-7.86-3.13-11.88Z"/>
              <path class="cls-9" d="m94.52,134.99c-3.29-5.98-10.03-4.17-12.33-.68-2.56,3.88-10.55,9.95-11.76,10.01,2.28,2.75,7.64,8.04,5.99,13.72,4.91.65,24.14-12.06,18.1-23.04Z"/>
              <path class="cls-12" d="m94.76,135.46l-8.56-4.03c-1.68.52-3.16,1.58-4.01,2.88-.75,1.13-1.96,2.46-3.33,3.76,1.16,3.27,1.94,10.54-2.88,14.15.73,1.83,1.04,3.8.45,5.81,4.84.64,23.59-11.7,18.34-22.58Z"/>
              <path class="cls-2" d="m81.71,134.65c-.55,1.14-1.35,2.15-2.19,3.09-.41.48-.86.92-1.31,1.37-.45.44-.92.86-1.39,1.28-.95.82-1.95,1.59-3,2.29-.52.35-1.06.68-1.62.98-.28.14-.56.29-.86.41-.29.12-.6.25-.93.24.3-.1.54-.3.79-.48.25-.19.49-.38.73-.58.48-.39.95-.8,1.42-1.2l2.81-2.43c.94-.8,1.87-1.62,2.8-2.44.93-.82,1.85-1.64,2.73-2.54Z"/>
              <path class="cls-2" d="m76.42,158.03c.5,0,.98-.1,1.45-.24.47-.14.93-.3,1.37-.5.9-.38,1.76-.84,2.61-1.32.84-.49,1.68-1,2.48-1.56.81-.55,1.6-1.12,2.37-1.72.78-.59,1.52-1.23,2.24-1.88.73-.65,1.42-1.34,2.1-2.04,1.33-1.43,2.55-2.96,3.56-4.68-.63,1.89-1.72,3.63-2.98,5.19-1.27,1.56-2.74,2.95-4.31,4.19-1.59,1.22-3.28,2.32-5.1,3.18-.91.44-1.84.81-2.81,1.09-.49.13-.98.25-1.48.31-.5.06-1.01.08-1.5-.03Z"/>
              <path class="cls-9" d="m87.67,123.46c-5.32,19.17-4.6,50.4,16.32,58.28,20.92,7.88,38.38-6.06,41.03-11.62,6.41-13.4-4.85-42.62-25.53-52.59-13.55-5.11-31.83,5.93-31.83,5.93Z"/>
              <path class="cls-12" d="m146.5,156.41c-.4-2.99-1.16-6.13-2.26-9.3-16.7,9.18-39.55,12.29-56.98,7.53.44,3.48-.29,5.59.78,8.77,18.06,3.52,41.41,1.51,58.47-7Z"/>
              <path class="cls-7" d="m85.42,153.22c.44,3.48,1.17,6.87,2.23,10.04,18.59,3.63,41.33.12,58.5-9.04-.56-2.97-1.45-6.06-2.66-9.14-16.78,9.65-40.26,13-58.07,8.13Z"/>
              <path class="cls-2" d="m143.49,145.08c-4.24,2.66-8.83,4.78-13.58,6.41-4.75,1.65-9.67,2.8-14.64,3.53-1.24.18-2.5.3-3.74.45-.31.04-.62.07-.94.09l-.94.07-1.88.13c-.63.05-1.26.04-1.88.06l-1.89.03c-1.26.02-2.51-.06-3.77-.09-5.02-.25-10.02-1.05-14.8-2.54l1.84.36c.61.12,1.22.27,1.84.37l1.85.27.92.14c.31.05.62.09.93.11l1.86.18c.62.05,1.24.14,1.86.16l1.86.1c.62.03,1.24.08,1.86.07h1.87c.62,0,1.24.04,1.86,0l1.86-.07c.62-.03,1.24-.03,1.86-.09,1.24-.11,2.48-.17,3.72-.31,1.23-.16,2.47-.29,3.7-.46,1.23-.2,2.46-.38,3.68-.6l3.65-.75,3.62-.89,3.58-1.04,3.54-1.19,3.49-1.34,3.43-1.49c.56-.27,1.12-.56,1.68-.83l1.69-.82Z"/>
              <path class="cls-2" d="m87.65,163.26l3.73.49c1.25.11,2.5.24,3.74.32,1.25.05,2.5.14,3.75.17,1.25,0,2.5.05,3.75.03l1.87-.05c.62-.02,1.25-.01,1.87-.06,1.25-.09,2.5-.15,3.74-.25,1.24-.14,2.49-.23,3.73-.38,1.24-.17,2.48-.33,3.71-.52l3.69-.64,3.67-.77,3.64-.9,3.61-1.03,3.57-1.16,3.52-1.29,3.48-1.42,1.71-.79,1.72-.78c-4.34,2.53-8.98,4.58-13.76,6.19-1.2.38-2.4.76-3.61,1.13l-3.66.98-3.7.81-3.73.67c-4.99.77-10.04,1.15-15.08,1.06-5.04-.08-10.08-.64-14.98-1.79Z"/>
              <path class="cls-12" d="m146.21,166.71c1.81-7.68-.47-18.51-5.87-28.35l-11.59,3.32c5.93,5.1,15.95,14.37,17.47,25.03Z"/>
              <path class="cls-2" d="m145.03,170.12c.99-2.44,1.48-5.04,1.51-7.65.06-2.61-.21-5.21-.7-7.77-.5-2.56-1.19-5.07-2.08-7.53-.88-2.45-1.92-4.85-3.12-7.16-1.18-2.32-2.53-4.56-4.01-6.71-1.46-2.16-3.11-4.19-4.87-6.12-1.77-1.92-3.67-3.72-5.72-5.34-2.04-1.64-4.24-3.07-6.56-4.32,2.42,1.05,4.69,2.41,6.85,3.93,2.14,1.55,4.15,3.29,5.99,5.19,1.85,1.89,3.54,3.95,5.07,6.11,1.53,2.17,2.9,4.44,4.12,6.79,2.41,4.72,4.22,9.77,5.07,15.01.43,2.62.6,5.28.42,7.93-.01.33-.06.66-.1.99l-.12.99-.19.98-.09.49c-.03.16-.08.32-.12.48-.29,1.29-.79,2.53-1.37,3.7Z"/>
              <path class="cls-12" d="m103.99,181.75c10.13,3.82,19.45,2.52,26.67-.47-1.62-.92-4.98-3.65-7.07-4.07-11.33,9.01-32.12-3.43-34.55-10.34,3,6.75,7.79,12.18,14.95,14.88Z"/>
              <path class="cls-2" d="m87.67,123.46c-.21.93-.44,1.85-.63,2.78-.21.93-.37,1.86-.54,2.79-.31,1.87-.59,3.74-.77,5.63-.42,3.76-.56,7.55-.45,11.33.15,3.77.5,7.54,1.27,11.23l.3,1.38c.1.46.23.91.34,1.37.22.92.51,1.81.78,2.71.14.45.31.89.46,1.33l.24.66c.08.22.18.43.27.65l.54,1.3.6,1.27c.83,1.67,1.76,3.31,2.88,4.8l.41.57c.14.18.3.36.44.54.3.36.59.72.9,1.07l.97,1.01.24.25.26.23.52.47c.67.65,1.44,1.17,2.18,1.75l1.18.76c.2.12.39.26.59.37l.62.33.62.33c.21.11.41.23.63.31l1.29.56c.42.2.88.34,1.31.5l.66.24c.22.08.45.14.67.21,7.16,2.31,15.05,2.22,22.27-.15-3.54,1.37-7.33,2.15-11.15,2.31-1.91.07-3.83-.02-5.73-.26-.47-.07-.95-.11-1.42-.21l-1.41-.26-1.4-.33c-.47-.11-.92-.25-1.39-.38-1.83-.54-3.66-1.19-5.36-2.11l-.64-.33c-.22-.11-.41-.25-.62-.37l-1.23-.77c-.77-.59-1.58-1.12-2.28-1.79-.75-.61-1.41-1.33-2.08-2.02-.33-.36-.63-.74-.94-1.1-.15-.19-.31-.37-.46-.56l-.43-.59c-1.17-1.54-2.13-3.22-2.99-4.94l-.62-1.31-.55-1.33c-.09-.22-.18-.44-.27-.67l-.24-.68c-.16-.45-.32-.9-.47-1.36-.27-.92-.57-1.83-.78-2.77-.11-.47-.24-.93-.34-1.4l-.29-1.41c-.1-.47-.17-.94-.25-1.41-.07-.47-.16-.94-.23-1.42-.12-.95-.26-1.89-.33-2.85-.2-1.9-.26-3.81-.3-5.72.01-.95-.01-1.91.03-2.86l.05-1.43.09-1.43c.04-.95.15-1.9.23-2.85l.16-1.42c.05-.47.1-.95.18-1.42.54-3.77,1.31-7.51,2.42-11.14Z"/>
              <path class="cls-9" d="m123.11,176.09c3.85,9.06,8.76,16.11,12.77,21.17,4.14,5.22,9.32,7.03,12.29,5.69,2.78-1.26,4.88-5.38,3.08-11.2-2.38-7.69-4.88-18.88-5.22-24.34-6.89-10.79-24.81,4.24-22.92,8.69Z"/>
              <path class="cls-1" d="m149.39,185.08c-4.12,8.65-12.62,8.48-16.88,7.68,1.17,1.64,2.31,3.14,3.38,4.5,4.14,5.22,9.32,7.03,12.29,5.69,2.78-1.26,4.88-5.38,3.08-11.2-.63-2.03-1.27-4.31-1.87-6.66Z"/>
              <path class="cls-2" d="m149.39,185.08c-.57,1.59-1.42,3.1-2.58,4.38-1.15,1.3-2.64,2.28-4.23,2.96-.2.1-.4.16-.61.23l-.62.21c-.2.08-.42.12-.63.17-.21.05-.42.1-.63.15-.42.09-.85.13-1.28.2-.43.05-.86.06-1.28.09-1.71.04-3.42-.2-5.03-.7,1.68.09,3.34.1,4.98-.08.41-.07.81-.11,1.21-.18.4-.09.8-.15,1.19-.25.39-.12.79-.19,1.17-.33.38-.14.77-.25,1.13-.42.36-.17.75-.31,1.1-.51.35-.2.7-.39,1.05-.6l1-.69c.3-.27.61-.53.93-.79,1.19-1.11,2.19-2.43,3.13-3.84Z"/>
              <path class="cls-2" d="m123.11,176.09c2.69,5.81,5.97,11.31,9.72,16.47.94,1.29,1.91,2.55,2.9,3.8.25.31.49.63.75.92.26.3.5.6.78.88.27.28.53.57.83.83.28.27.57.54.87.78,1.2.99,2.5,1.87,3.94,2.43.71.3,1.45.48,2.19.6.74.11,1.5.09,2.19-.08.69-.17,1.34-.53,1.88-1.01.55-.48,1-1.09,1.35-1.75.08-.17.18-.33.24-.51l.21-.53c.11-.36.23-.72.29-1.1.09-.37.12-.75.16-1.13.02-.19.01-.38.02-.57,0-.19.02-.38,0-.58l-.02-.58c0-.19-.04-.38-.06-.58-.03-.19-.04-.38-.07-.57l-.11-.57c-.15-.76-.38-1.5-.61-2.28-.45-1.54-.87-3.09-1.26-4.65-.79-3.11-1.47-6.24-2.06-9.39-.28-1.58-.54-3.16-.76-4.75-.22-1.59-.4-3.18-.45-4.78.35,3.18.99,6.32,1.7,9.43.7,3.12,1.48,6.22,2.33,9.29.43,1.54.87,3.07,1.34,4.59.23.75.49,1.54.66,2.35l.13.61c.04.2.06.41.09.61.02.21.06.41.07.62l.04.62c.02.21.01.42,0,.62,0,.21,0,.42-.02.63-.05.42-.08.83-.17,1.24-.07.42-.2.82-.32,1.22l-.23.59c-.07.2-.18.38-.27.58-.39.75-.91,1.46-1.56,2.03-.64.58-1.43,1.03-2.29,1.24-.86.21-1.73.22-2.57.09-.84-.13-1.66-.34-2.42-.67-.2-.07-.38-.16-.57-.25l-.56-.27c-.36-.21-.73-.39-1.07-.62-.35-.22-.69-.45-1.02-.7l-.49-.37-.47-.4c-.32-.26-.61-.55-.9-.83-.3-.28-.57-.59-.85-.88-.29-.29-.53-.62-.8-.93-.27-.31-.5-.63-.75-.95-.98-1.27-1.93-2.57-2.84-3.89-1.83-2.64-3.53-5.37-5.05-8.2-.76-1.41-1.48-2.85-2.15-4.3-.69-1.45-1.3-2.93-1.89-4.42Z"/>
              <path class="cls-12" d="m109.47,152.88c-.35-.98-.78-1.91-1.24-2.83-.47-.92-.96-1.82-1.54-2.68h0l-.02-.03c.79-.53,1.51-1.13,2.21-1.76.7-.63,1.38-1.28,1.99-2h0l.03-.03h0c-.64-.82-1.36-1.58-2.09-2.31-.74-.73-1.49-1.44-2.32-2.08h0s.06-.02.06-.02c1.19-.24,2.36-.58,3.51-.94,1.15-.37,2.3-.77,3.41-1.26h0s-.04-.06-.04-.06c-.29-.66-.66-1.26-1.05-1.84-.4-.58-.82-1.15-1.33-1.66h0s-.06-.09-.06-.09c-.91.27-1.81.57-2.71.88-.9.31-1.79.64-2.68.97-.89.34-1.77.68-2.65,1.04l-1.32.54c-.43.19-.87.37-1.3.58l.05.05s0,0,0,0c.5.57,1.03,1.11,1.57,1.65.53.54,1.08,1.06,1.63,1.59.55.52,1.11,1.03,1.68,1.53l.86.75c.29.24.58.49.88.72t0,0l.05.05h0s0,0,0,0c-.73.44-1.39.96-2.03,1.5-.64.55-1.26,1.11-1.82,1.76l.04.04c.47.54.96,1.06,1.45,1.57.49.52,1,1.01,1.52,1.51.52.49,1.03.98,1.57,1.45l.8.71c.28.23.54.46.83.68,0,0,0,0,0,0l.04.04Z"/>
              <g>
                <polygon class="cls-7" points="108.79 132.19 98.14 136.2 104.86 142.53 101 145.79 107.25 151.79 104.45 146.24 108.68 142.45 104.28 138.06 111.27 135.84 108.79 132.19"/>
                <g class="cls-15">
                  <polygon class="cls-4" points="109.8 133.68 100.89 138.79 101.17 139.06 110.57 134.81 109.8 133.68"/>
                  <polygon class="cls-4" points="106.58 140.36 103.47 141.23 104.05 141.77 107.31 141.09 106.58 140.36"/>
                  <path class="cls-4" d="m104.88,147.09l-.43-.85,2.45-2.19-4.77,2.82.97.94c.55-.22,1.16-.46,1.78-.72Z"/>
                  <polygon class="cls-4" points="105.33 133.49 99.3 137.29 99.88 137.84 108.94 132.42 108.79 132.19 105.33 133.49"/>
                </g>
                <g>
                  <path class="cls-2" d="m111.23,135.78c-.5-.51-.93-1.08-1.33-1.66-.39-.59-.76-1.19-1.05-1.84.51.51.93,1.08,1.33,1.66.39.59.76,1.19,1.05,1.84Z"/>
                  <path class="cls-2" d="m104.34,138.04c1.12-.49,2.26-.89,3.41-1.26,1.16-.36,2.32-.7,3.51-.94-1.11.49-2.26.89-3.41,1.26-1.16.36-2.32.7-3.51.94Z"/>
                  <path class="cls-2" d="m108.68,142.45c-.83-.64-1.58-1.35-2.32-2.08-.73-.74-1.44-1.49-2.09-2.31.83.64,1.58,1.35,2.32,2.08.73.74,1.44,1.49,2.09,2.31Z"/>
                  <path class="cls-2" d="m104.45,146.24c.61-.72,1.29-1.37,1.99-2,.7-.62,1.42-1.23,2.21-1.76-.61.72-1.29,1.37-1.99,2-.7.62-1.42,1.23-2.21,1.76Z"/>
                  <path class="cls-2" d="m107.25,151.79c-.58-.86-1.07-1.77-1.54-2.68-.46-.92-.9-1.85-1.24-2.83.58.86,1.07,1.77,1.54,2.68.46.92.9,1.85,1.24,2.83Z"/>
                  <path class="cls-2" d="m101.04,145.82c.56.44,1.1.92,1.63,1.39.53.47,1.05.96,1.57,1.45.51.5,1.02.99,1.52,1.51l.74.77c.24.27.48.53.71.8-.28-.22-.55-.46-.83-.68l-.8-.71c-.53-.47-1.05-.96-1.57-1.45-.51-.5-1.02-.99-1.52-1.51-.5-.51-.99-1.03-1.45-1.57Z"/>
                  <path class="cls-2" d="m104.86,142.53c-.56.64-1.18,1.21-1.82,1.76-.65.54-1.31,1.06-2.03,1.5.56-.64,1.18-1.21,1.82-1.76.65-.54,1.31-1.06,2.03-1.5Z"/>
                  <path class="cls-2" d="m98.19,136.25c.6.47,1.17.97,1.74,1.47.57.5,1.13,1.01,1.68,1.53.55.52,1.1,1.05,1.63,1.59l.8.81c.26.28.52.55.77.84-.3-.23-.59-.48-.88-.72l-.86-.75c-.57-.5-1.13-1.01-1.68-1.53-.55-.52-1.1-1.05-1.63-1.59-.53-.54-1.06-1.08-1.57-1.65Z"/>
                  <path class="cls-2" d="m108.79,132.19c-.86.4-1.74.76-2.62,1.12-.88.36-1.76.7-2.65,1.04-.89.33-1.78.66-2.68.97l-1.35.46c-.45.14-.9.29-1.36.42.43-.2.87-.38,1.3-.58l1.32-.54c.88-.36,1.76-.7,2.65-1.04.89-.33,1.78-.66,2.68-.97.9-.31,1.8-.61,2.71-.88Z"/>
                </g>
              </g>
              <path class="cls-12" d="m140.4,138.47c-4.75-8.69-11.94-16.62-20.9-20.94-.99-.37-2.02-.66-3.05-.87l-15.56,1.17c-7.45,2.15-13.22,5.63-13.22,5.63-.4,1.44-.77,2.95-1.09,4.52,11.64,8.01,31.4,15.3,53.82,10.5Z"/>
              <path class="cls-9" d="m129.08,131.95c-4.54,5.77-.13,11.87,3.78,13.34,3.28,1.23,12.95,5.37,13.42,6.54,1.82-3.41,5.39-9.87,11.35-10.64-2.26-3.68-20.21-19.85-28.55-9.24Z"/>
              <path class="cls-12" d="m129.08,131.95c-4.54,5.77-.13,11.87,3.78,13.34,3.28,1.23,12.95,5.37,13.42,6.54.68-1.27,1.6-2.97,2.8-4.64,0,0,0,0,0,0-9.18-2.11-11.2-11.86-4.6-16.58-5.51-2.73-11.51-3.62-15.4,1.34Z"/>
              <path class="cls-2" d="m133.07,128.96c-1.38.62-2.56,1.58-3.47,2.74-.92,1.15-1.61,2.48-1.88,3.89-.27,1.41-.12,2.87.42,4.19.52,1.33,1.38,2.53,2.45,3.48.53.49,1.11.9,1.74,1.24.16.08.31.16.48.23l.24.1.27.1c.35.14.71.28,1.06.43,1.4.59,2.78,1.19,4.15,1.84,1.37.64,2.73,1.31,4.06,2.03.66.37,1.33.74,1.97,1.14.32.2.64.41.94.64.15.12.3.24.44.36.13.13.28.26.36.44-.21-.31-.56-.49-.88-.68-.33-.19-.66-.36-1-.52-.68-.33-1.36-.64-2.05-.94-1.37-.61-2.77-1.18-4.16-1.76-1.4-.56-2.79-1.14-4.19-1.67l-1.05-.4-.26-.1-.28-.11c-.19-.07-.37-.17-.55-.25-.71-.37-1.37-.83-1.95-1.36-1.16-1.07-2.11-2.39-2.66-3.89-.55-1.49-.69-3.15-.3-4.69.37-1.55,1.22-2.92,2.27-4.04,1.05-1.13,2.38-2.01,3.84-2.43Z"/>
              <path class="cls-2" d="m157.64,141.19c-.66-.82-1.43-1.53-2.2-2.24-.77-.7-1.57-1.38-2.38-2.04-.82-.65-1.63-1.3-2.47-1.91-.84-.62-1.69-1.22-2.56-1.78-.86-.58-1.75-1.12-2.66-1.62-.9-.52-1.82-.98-2.76-1.42-1.89-.85-3.86-1.53-5.96-1.79,2.12-.16,4.26.33,6.26,1.07,2.01.74,3.88,1.78,5.67,2.93,1.77,1.18,3.45,2.49,5,3.94.78.72,1.52,1.48,2.22,2.28.69.81,1.37,1.63,1.86,2.58Z"/>
              <path class="cls-12" d="m111.82,159.54c-.3-1.37-1-2.65-2.03-3.61-.52-.48-1.12-.87-1.79-1.12-.66-.25-1.39-.35-2.1-.25-.71.1-1.39.37-1.94.81-.56.44-1,1-1.3,1.62-.61,1.25-.72,2.67-.44,3.98,0-.02,0-.05,0-.07.04.29.1.58.19.88,0,0,0,0,0,0,0,0,0,0,0,0,.3,1.31,1,2.54,2.04,3.45.52.45,1.13.81,1.8,1.02.67.21,1.4.25,2.1.11.7-.14,1.36-.48,1.9-.96.54-.47.95-1.07,1.24-1.72.57-1.3.65-2.77.35-4.14Z"/>
              <g>
                <ellipse class="cls-7" cx="106.1" cy="160.15" rx="4.68" ry="5.78" transform="translate(-39.72 35.09) rotate(-15.86)"/>
                <g class="cls-15">
                  <path class="cls-4" d="m104.04,165l6.48-6.38c-.1-.32-.22-.62-.36-.91l-6.71,6.81c.19.18.39.34.59.49Z"/>
                  <path class="cls-4" d="m101.59,161.43c.11.4.26.77.43,1.13l5.77-7.49c-.35-.2-.71-.36-1.09-.46l-5.37,5.08c.01.57.1,1.16.27,1.74Z"/>
                  <path class="cls-4" d="m110.5,162.92c.12-.32.21-.67.28-1.02l-5.35,3.77c.4.12.81.18,1.23.18l3.85-2.93Z"/>
                </g>
                <path class="cls-2" d="m101.41,160.62c-.29-1.31-.17-2.74.44-3.98.31-.62.75-1.18,1.3-1.62.55-.44,1.24-.71,1.94-.81.71-.1,1.44,0,2.1.25.67.25,1.27.64,1.79,1.12,1.03.96,1.74,2.25,2.03,3.61.3,1.36.22,2.83-.35,4.14-.29.65-.71,1.24-1.24,1.72-.53.48-1.2.81-1.9.96-.7.15-1.43.1-2.1-.11-.67-.21-1.28-.57-1.8-1.02-1.04-.91-1.73-2.15-2.04-3.45.44,1.26,1.19,2.42,2.24,3.2,1.02.79,2.37,1.18,3.59.87.61-.15,1.16-.46,1.62-.88.46-.42.81-.96,1.06-1.54.5-1.16.56-2.5.28-3.74-.26-1.25-.9-2.42-1.82-3.3-.9-.88-2.15-1.43-3.41-1.31-.62.06-1.23.28-1.75.65-.52.36-.95.86-1.27,1.42-.67,1.13-.86,2.5-.72,3.83Z"/>
              </g>
              <g>
                <path class="cls-1" d="m64.7,152.62c1.23,4.34,3.35,8.86,8.11,8.58,5.32-.31,6.82-5.86,3.74-6.8,1.95-1.37.57-7.27-2.44-6.42-.01-2.1-1.65-4.48-5.33-3.43-3.68,1.05-5.07,4.6-4.09,8.07Z"/>
                <path class="cls-8" d="m77.88,155.49s-.02-.04-.04-.07c-.04-.07-.08-.13-.12-.19-.02-.02-.03-.05-.05-.07-.06-.07-.12-.14-.18-.21-.02-.02-.05-.04-.07-.06-.05-.04-.1-.09-.15-.13-.03-.03-.07-.05-.11-.07-.02-.01-.03-.02-.05-.03,0,0,0,0,0,0-.17-.1-.35-.19-.55-.25,1.05-.74,1.13-2.78.52-4.38.47,3.37-1.48,4.58-2.02,5.17,1.27.82.15,3.19-.25,3.55-2.94,2.41-8.07.81-9.43-3.99,1.31,3.57,3.44,6.69,7.43,6.46,3.8-.22,5.64-3.11,5.28-5.08,0-.01,0-.03,0-.04-.04-.21-.11-.4-.2-.59Z"/>
                <path class="cls-2" d="m74.12,147.83c-.17-.61-.4-1.16-.71-1.64-.32-.48-.72-.87-1.2-1.14-.48-.27-1.03-.43-1.6-.5-.58-.06-1.18-.03-1.81,0,.56-.29,1.17-.48,1.83-.51.65-.03,1.33.1,1.92.44.59.33,1.06.87,1.33,1.47.27.6.37,1.26.26,1.88Z"/>
                <path class="cls-2" d="m75.14,155.17c.46-.18.87-.44,1.17-.78.31-.34.52-.76.65-1.19.26-.87.24-1.82,0-2.7-.24-.87-.74-1.69-1.51-2.11-.38-.21-.83-.31-1.29-.3-.46,0-.93.13-1.4.28.4-.28.86-.5,1.36-.61.5-.1,1.06-.06,1.55.15.5.2.92.58,1.24.99.32.43.54.91.68,1.41.27,1,.26,2.09-.15,3.05-.2.48-.51.92-.91,1.25-.41.32-.9.51-1.39.55Z"/>
                <path class="cls-2" d="m68.2,144.75c-1.71.78-2.97,2.31-3.34,4.07-.2.87-.23,1.78-.08,2.67.07.45.17.87.31,1.32.13.44.28.88.42,1.32.3.87.64,1.72,1.05,2.54.4.82.88,1.6,1.47,2.28.59.68,1.29,1.27,2.11,1.65.81.41,1.74.57,2.67.6-.93.12-1.89.02-2.8-.3-.9-.33-1.71-.91-2.37-1.61-.67-.69-1.2-1.51-1.64-2.34-.44-.84-.8-1.72-1.12-2.61-.15-.45-.29-.9-.42-1.35-.13-.45-.25-.93-.31-1.41-.12-.96-.07-1.95.2-2.88.26-.93.75-1.81,1.43-2.49.68-.68,1.51-1.19,2.41-1.45Z"/>
                <path class="cls-6" d="m71.32,145.52c.23.44-1.28.66-2.85,1.49-1.57.83-2.6,1.95-2.84,1.51-.23-.44.58-1.99,2.15-2.82,1.57-.83,3.31-.62,3.54-.18Z"/>
                <path class="cls-2" d="m73.68,161.1c.77-.28,1.48-.62,2.1-1.08.62-.46,1.15-1.01,1.52-1.66.19-.32.34-.66.43-1.02.1-.35.14-.72.12-1.09-.03-.36-.13-.72-.33-1.03-.2-.32-.5-.58-.85-.78.4.07.8.27,1.1.58.31.31.5.73.59,1.16.18.88-.07,1.77-.49,2.51-.44.74-1.08,1.36-1.81,1.76-.74.41-1.56.63-2.38.64Z"/>
              </g>
              <g>
                <path class="cls-1" d="m150.84,142.57c-3.46,2.89-6.73,6.66-4.53,10.9,2.45,4.74,8.13,3.84,7.73.65,2.05,1.22,6.87-2.44,4.87-4.84,1.92-.87,3.41-3.33.96-6.27-2.46-2.94-6.27-2.76-9.03-.45Z"/>
                <path class="cls-8" d="m153.59,155.78s.03-.04.05-.06c.05-.06.09-.12.13-.18.02-.03.03-.05.05-.08.04-.08.08-.17.12-.25.01-.03.02-.06.03-.09.02-.06.04-.13.05-.19,0-.04.02-.08.02-.13,0-.02,0-.04.01-.06,0,0,0,0,0,0,.03-.19.03-.39,0-.61,1.1.66,3-.1,4.21-1.31-2.88,1.8-4.79.51-5.54.26-.23,1.5-2.86,1.43-3.34,1.22-3.4-1.7-4.02-7.04-.2-10.24-2.72,2.65-4.71,5.87-2.87,9.42,1.75,3.38,5.14,3.89,6.79,2.75.01,0,.02-.02.04-.03.17-.12.32-.26.45-.42Z"/>
                <path class="cls-2" d="m159.05,149.23c.48-.4.89-.83,1.2-1.32.31-.48.5-1.01.55-1.56.05-.55-.03-1.11-.2-1.67-.18-.55-.46-1.09-.73-1.66.49.39.91.88,1.21,1.46.29.58.45,1.26.38,1.93-.06.68-.36,1.32-.8,1.81-.44.49-1,.85-1.61,1Z"/>
                <path class="cls-2" d="m152.77,153.15c.35.35.75.61,1.19.75.44.14.9.16,1.35.11.9-.12,1.76-.52,2.46-1.1.7-.57,1.24-1.36,1.32-2.24.04-.43-.05-.89-.26-1.3-.2-.42-.5-.8-.83-1.16.42.25.81.58,1.11,1,.3.42.49.94.49,1.48.02.54-.15,1.07-.4,1.53-.26.46-.61.86-1.01,1.2-.8.66-1.8,1.09-2.85,1.11-.52.01-1.05-.09-1.51-.33-.46-.24-.84-.61-1.07-1.05Z"/>
                <path class="cls-2" d="m159.46,142.57c-1.41-1.24-3.32-1.77-5.08-1.39-.88.18-1.72.52-2.47,1.01-.38.25-.73.51-1.08.82-.35.3-.69.61-1.03.92-.68.63-1.31,1.29-1.9,1.99-.59.7-1.1,1.46-1.49,2.27-.38.82-.63,1.7-.65,2.6-.04.91.19,1.82.54,2.69-.48-.8-.79-1.72-.86-2.68-.06-.96.13-1.93.5-2.82.36-.9.89-1.71,1.47-2.46.59-.75,1.25-1.43,1.93-2.08.35-.32.7-.63,1.06-.93.36-.3.75-.61,1.16-.86.83-.5,1.75-.86,2.72-.99.96-.14,1.96-.05,2.85.29.89.35,1.7.9,2.31,1.61Z"/>
                <path class="cls-6" d="m160.02,145.72c-.31.39-1.12-.9-2.52-1.99-1.4-1.1-2.84-1.59-2.54-1.98.31-.39,2.05-.28,3.45.81,1.4,1.1,1.91,2.77,1.61,3.16Z"/>
                <path class="cls-2" d="m146.76,154.23c.57.59,1.17,1.1,1.84,1.48.67.38,1.39.64,2.14.71.37.05.75.04,1.11-.02.37-.05.72-.16,1.04-.33.31-.18.61-.41.81-.73.21-.31.33-.69.37-1.1.1.4.08.84-.08,1.24-.16.41-.46.76-.82,1.01-.73.52-1.65.66-2.5.57-.86-.1-1.68-.43-2.35-.94-.68-.5-1.21-1.17-1.55-1.91Z"/>
              </g>
              <g class="cls-15">
                <path class="cls-4" d="m90.93,133.52c-.53-.12-1.11.84-1.62,2.59-.5,1.74-.89,4.27-1.01,7.2-.12,2.93.06,6.27.62,9.59.54,3.33,1.52,6.62,2.75,9.48.61,1.43,1.27,2.68,1.93,3.77.65,1.1,1.32,2.02,1.94,2.82,1.27,1.58,2.39,2.65,3.29,3.36.89.71,1.54,1.11,1.98,1.27.44.17.68.14.82-.08.18-.27.18-.54-.07-.89-.12-.18-.31-.37-.56-.61-.24-.25-.56-.53-.93-.87-.74-.7-1.75-1.65-2.89-3.11-.3-.35-.56-.77-.87-1.19-.15-.22-.29-.45-.44-.68-.15-.23-.3-.47-.45-.73-.6-1.01-1.17-2.2-1.71-3.56-.53-1.35-.98-2.83-1.33-4.36-.35-1.53-.6-3.12-.76-4.72-.17-1.59-.25-3.19-.28-4.73-.02-1.55.02-3.04.08-4.45.25-5.62.93-9.78-.48-10.11Z"/>
              </g>
              <g class="cls-15">
                <path class="cls-4" d="m103.6,188.6c-.21.18-.05.64.33,1.28.38.66.99,1.53,1.68,2.55,1.4,2.03,3.16,4.64,4.46,6.92,1.31,2.28,1.95,3.75,2.33,4.6.18.43.31.7.4.86.1.16.2.21.33.18.16-.03.25-.12.27-.32,0-.1,0-.23-.02-.39-.03-.16-.08-.34-.16-.57-.3-.9-.97-2.36-2.17-4.73-1.19-2.37-2.67-5.22-4.1-7.35-.7-1.07-1.41-1.94-2-2.5-.6-.55-1.08-.76-1.35-.54Z"/>
              </g>
              <g class="cls-15">
                <path class="cls-4" d="m141.71,161.41c-.24.16-.08.68.15,1.54.25.86.55,2.12.83,3.61.57,2.98,1.03,6.87,1.51,10.13.24,1.63.47,2.95.73,4,.26,1.05.53,1.84.81,2.4.28.56.54.91.75,1.09.21.17.34.2.43.11.12-.11.15-.25.08-.46-.04-.1-.09-.23-.17-.4-.08-.16-.16-.37-.28-.61-.2-.5-.45-1.21-.68-2.2-.23-.99-.44-2.27-.62-3.89-.35-3.23-.44-7.19-1-10.35-.28-1.57-.69-2.95-1.2-3.85-.5-.91-1.06-1.3-1.34-1.11Z"/>
              </g>
              <g class="cls-15">
                <path class="cls-4" d="m73.44,144.34c.06.27.3.38.64.35.33-.03.74-.21,1.12-.48.8-.53,1.59-1.38,2.27-2.04.69-.66,1.13-1.03,1.38-1.28.24-.25.28-.39.1-.56-.23-.22-.38-.25-.66-.08-.28.17-.69.55-1.44,1.09-.75.54-1.74,1.07-2.44,1.52-.35.23-.63.42-.8.65-.16.22-.24.47-.16.82Z"/>
              </g>
              <g class="cls-15">
                <path class="cls-4" d="m143.9,132.69c-.05.13-.02.26.05.39.08.13.21.26.39.41.37.29.93.66,1.59,1.06,1.33.82,3.06,1.83,4.42,2.81,1.36.98,2.1,1.68,2.53,2.08.2.2.35.32.44.37.1.05.2.04.31-.03.14-.08.21-.17.2-.32,0-.07-.03-.17-.09-.26-.05-.09-.13-.2-.22-.32-.39-.48-1.16-1.17-2.46-2.27-1.29-1.1-2.85-2.45-4.24-3.34-.7-.44-1.34-.77-1.88-.89-.26-.06-.5-.07-.68-.02-.18.05-.3.16-.36.32Z"/>
              </g>
              <path class="cls-2" d="m164.03,188.94c3.25-.48,6.37-1.49,9.35-2.77,1.49-.65,2.95-1.36,4.37-2.15,1.42-.78,2.81-1.62,4.15-2.54,1.35-.9,2.65-1.87,3.91-2.9,1.26-1.02,2.46-2.12,3.61-3.26,2.28-2.31,4.33-4.87,5.92-7.74-1.22,3.06-3.14,5.82-5.36,8.27-2.22,2.46-4.78,4.59-7.52,6.45-2.75,1.84-5.69,3.41-8.78,4.58-3.09,1.17-6.35,1.98-9.64,2.05Z"/>
              <path class="cls-2" d="m81.77,163.98c0,2.41.36,4.76.92,7.06.29,1.15.62,2.29,1.01,3.4.38,1.12.82,2.22,1.3,3.3.25.53.48,1.08.75,1.61l.83,1.57.89,1.53c.33.49.65.98.97,1.48,1.35,1.94,2.91,3.75,4.74,5.31-2.08-1.22-3.86-2.94-5.36-4.84-1.51-1.91-2.73-4.03-3.73-6.24-.98-2.22-1.73-4.55-2.16-6.94-.43-2.38-.58-4.85-.16-7.22Z"/>
            </g>
            <g>
              <path class="cls-1" d="m53.99,47.55c-15.53,15.46-17.85,26.34-26.7,30.83-8.85,4.49-29.66,13.89-26.49,32.29,3.47,20.15,17.39,19.12,19.95,19.12.33,5.97,26.5,39.77,54.44,2.03,5.34-27.53-21.2-84.27-21.2-84.27Z"/>
              <path class="cls-1" d="m75.19,131.82c1.41-7.28.59-16.6-1.37-26.37l-31.48-28.85c-.64,5.08-26.54,13.56-31.68,19.71-2.86,3.41-8.05,6.06-9.1,16.72,3.91,18.52,16.69,16.76,19.19,16.76.33,5.97,26.5,39.77,54.44,2.03Z"/>
              <path class="cls-8" d="m75.19,131.82c.29-1.49.48-3.07.59-4.72-.25-.71-.54-1.4-.89-2.05-19.49,24.75-41.08,16.42-49.16,13.18,8.94,10.18,28.71,21.6,49.46-6.42Z"/>
              <path class="cls-2" d="m20.75,129.79c.09.71.35,1.37.65,2,.3.63.66,1.24,1.05,1.82.78,1.17,1.66,2.27,2.61,3.31,1.89,2.08,4.03,3.91,6.32,5.51,2.3,1.58,4.77,2.92,7.38,3.87,2.6.96,5.33,1.55,8.09,1.66,2.76.12,5.53-.23,8.18-1.04,1.33-.4,2.62-.9,3.88-1.49,1.25-.6,2.47-1.29,3.65-2.03,2.35-1.51,4.55-3.28,6.57-5.23,2.05-1.94,3.93-4.05,5.74-6.24-1.57,2.36-3.34,4.61-5.28,6.7-.97,1.05-2.01,2.03-3.07,2.99-1.08.94-2.21,1.83-3.39,2.65-1.19.81-2.42,1.57-3.71,2.21-1.3.64-2.64,1.2-4.02,1.64-2.76.89-5.69,1.28-8.6,1.17-2.91-.13-5.78-.76-8.48-1.81-2.69-1.06-5.24-2.47-7.54-4.2-2.31-1.72-4.4-3.7-6.21-5.93-.45-.56-.88-1.13-1.29-1.72-.41-.59-.79-1.19-1.14-1.82-.35-.63-.67-1.27-.92-1.94-.25-.67-.45-1.37-.47-2.08Z"/>
              <path class="cls-2" d="m53.99,47.55l-1.3,1.39-1.28,1.41-1.26,1.42-1.24,1.44c-1.63,1.94-3.2,3.93-4.7,5.97-1.51,2.03-2.95,4.11-4.37,6.21-1.42,2.1-2.83,4.21-4.36,6.27-1.53,2.04-3.23,4.04-5.33,5.62-.52.4-1.07.76-1.63,1.1-.28.17-.57.32-.86.48l-.85.44c-1.13.58-2.26,1.15-3.37,1.75-4.46,2.35-8.81,4.96-12.6,8.23-1.9,1.63-3.65,3.42-5.13,5.4-1.48,1.98-2.68,4.18-3.47,6.51-.79,2.33-1.14,4.81-1.05,7.28.04,1.23.2,2.47.41,3.7.21,1.23.47,2.45.83,3.65.7,2.39,1.71,4.7,3.13,6.74,1.41,2.04,3.25,3.79,5.41,5.03,2.15,1.25,4.61,1.99,7.11,2.16,1.25.09,2.52.03,3.76-.18,1.24-.2,2.47-.55,3.6-1.14-2.21,1.27-4.83,1.73-7.38,1.66-2.56-.07-5.12-.73-7.41-1.94-2.29-1.22-4.27-3-5.8-5.09-1.54-2.09-2.63-4.48-3.41-6.94-.39-1.23-.69-2.49-.93-3.75-.24-1.26-.42-2.55-.48-3.85-.13-2.6.21-5.24,1.02-7.72.8-2.49,2.08-4.81,3.62-6.89,1.54-2.09,3.36-3.95,5.31-5.64,3.93-3.35,8.36-5.99,12.88-8.33,1.13-.58,2.27-1.15,3.41-1.71l.85-.42c.27-.15.54-.28.81-.44.53-.31,1.04-.64,1.54-1.01,1.98-1.46,3.65-3.34,5.2-5.32,1.55-1.98,2.98-4.08,4.47-6.14,1.48-2.06,2.99-4.12,4.57-6.11,3.18-3.98,6.59-7.76,10.29-11.24Z"/>
              <path class="cls-8" d="m10.66,96.31c-1.35,1.62-3.23,3.07-4.95,5.28-.23.29-.37.66-.4,1.03-.36,4.18.54,8.71,1.79,12.16.49,1.36,2.28,1.65,3.2.54.26-.32.53-.65.8-.98,1.4-1.72,4.1,0,3.15,2-.65,1.39-1.21,2.53-1.68,3.38-.53.96-.16,2.14.82,2.63,2.47,1.22,5.89,1.84,7.86,1.95.59.03,1.15-.23,1.52-.68,1.3-1.59,3.96-4.9,7.33-7.24,1.52-1.05,3.52.49,2.85,2.22-1.63,4.2-3.87,6.96-4.78,9.26-.13.32-.18.68-.08,1.01.48,1.55,2.66,3.47,6.31,5.39.52.27,1.18.32,1.69.03.45-.25.89-.56,1.32-.9,1.46-1.17,3.54.26,2.95,2.04-.01.04-.03.08-.04.12-.32.97.21,2.01,1.18,2.35,5.65,2,18.31,4.27,22.39-.29,4.07-4.55,5.9-21.07,6.25-24.61.04-.43-.06-.86-.3-1.22l-16.67-25.15c-.08-.13-.18-.24-.3-.35l-8.85-8.11c-.75-.69-1.92-.67-2.6.07-4.72,5.14-26.15,12.55-30.77,18.08Z"/>
              <path class="cls-1" d="m170.11,73.6c-2.12,33.74-24.95,55.44-58.77,54.1-5.77,5.69-16.89,4.86-26.1,3.06-25.07-4.9-44.01-25.48-43.94-59.03.07-33.55,22.89-60.69,64.58-60.61,42.65.09,66.25,30.4,64.23,62.48Z"/>
              <g>
                <path class="cls-8" d="m147.68,117.82c-9.56,6.57-22.94,3.66-27.86,1.11-5.12-2.66-7.38-17.24-9.77-14.56-2.22,2.48-3.45,17.81-19.86,27.21,7.97,1.07,16.38.82,21.15-3.88,14.34.57,26.7-3,36.35-9.88Z"/>
                <path class="cls-8" d="m148.74,117.04c-.07.06-.15.11-.22.17.07-.06.15-.11.22-.17Z"/>
              </g>
              <g>
                <path class="cls-8" d="m99.11,54.03c-1.12.73-2.19.85-2.92-.27s-.84-3.06.28-3.79,2.62-.41,3.35.71c.73,1.12.41,2.62-.71,3.35Z"/>
                <path class="cls-8" d="m104.25,38.17c-.8-.23-1.3-.69-1.07-1.49.23-.8,1.1-1.64,1.9-1.41.8.23,1.26,1.06,1.04,1.87-.23.8-1.06,1.26-1.87,1.04Z"/>
                <path class="cls-8" d="m92.76,73.09c-.8-.23-1.3-.69-1.07-1.49.23-.8,1.1-1.64,1.9-1.41.8.23,1.26,1.06,1.04,1.87-.23.8-1.06,1.26-1.87,1.04Z"/>
                <path class="cls-8" d="m99.2,43.65c.59.54.83,1.14.29,1.74-.54.59-1.64.95-2.24.42-.59-.54-.64-1.45-.1-2.05.54-.59,1.45-.64,2.05-.1Z"/>
                <path class="cls-8" d="m78.56,48.39c-1.33.18-2.35-.17-2.53-1.49s.55-3.13,1.88-3.31c1.33-.18,2.55.75,2.73,2.07.18,1.33-.75,2.55-2.07,2.73Z"/>
                <path class="cls-8" d="m91.59,45.87c-.33.53-.77.8-1.3.47-.53-.33-.97-1.14-.63-1.67.33-.53,1.03-.7,1.57-.37.53.33.7,1.03.37,1.57Z"/>
                <path class="cls-8" d="m88.88,66.48c-.9.23-1.64.07-1.86-.83-.23-.9.14-2.2,1.04-2.43.9-.23,1.82.32,2.04,1.22.23.9-.32,1.82-1.22,2.04Z"/>
                <path class="cls-8" d="m94.17,61.05c-.56.11-1-.02-1.11-.58-.11-.56.17-1.34.72-1.44.56-.11,1.1.26,1.2.82.11.56-.26,1.1-.82,1.2Z"/>
                <path class="cls-8" d="m107.33,66.22c-.56.11-1-.02-1.11-.58-.11-.56.17-1.34.72-1.44.56-.11,1.1.26,1.2.82.11.56-.26,1.1-.82,1.2Z"/>
                <path class="cls-8" d="m108.81,58.68c-.16,1.11-.69,1.86-1.8,1.7-1.11-.16-2.4-1.18-2.23-2.29.16-1.11,1.2-1.88,2.32-1.72,1.11.16,1.88,1.2,1.72,2.32Z"/>
                <path class="cls-8" d="m99.53,67.67c-1.13-.07-1.92-.52-1.86-1.65.07-1.13.97-2.5,2.1-2.44s1.99,1.04,1.93,2.17-1.04,1.99-2.17,1.93Z"/>
                <path class="cls-8" d="m115.13,46.69c.82,1.19.99,2.35-.2,3.17-1.19.82-3.28,1-4.1-.19-.82-1.19-.52-2.82.66-3.64,1.19-.82,2.82-.52,3.64.66Z"/>
                <path class="cls-8" d="m106.82,46.23c.37.38.51.79.13,1.17-.38.37-1.13.57-1.51.19-.37-.38-.37-.99.01-1.37.38-.38.99-.37,1.37.01Z"/>
                <path class="cls-8" d="m115.8,55.25c.38.38.51.79.13,1.17s-1.13.57-1.51.19c-.37-.38-.37-.99.01-1.37.38-.38.99-.37,1.37.01Z"/>
                <path class="cls-8" d="m91.02,53.68c.38.38.51.79.13,1.17-.38.37-1.13.57-1.51.19-.37-.38-.37-.99.01-1.37.38-.37.99-.37,1.37.01Z"/>
                <path class="cls-8" d="m86.32,48.9c.37.38.51.79.13,1.17-.38.38-1.13.57-1.51.19-.37-.38-.37-.99.01-1.37s.99-.37,1.37.01Z"/>
                <path class="cls-8" d="m96.08,35.6c-.61.15-1.11.03-1.26-.58-.15-.61.11-1.49.72-1.64.61-.15,1.23.23,1.38.84.15.61-.23,1.23-.84,1.38Z"/>
                <path class="cls-8" d="m78.3,54.68c-.61.15-1.11.03-1.26-.58s.11-1.49.72-1.64c.61-.15,1.23.23,1.38.84.15.61-.23,1.23-.84,1.38Z"/>
                <path class="cls-8" d="m87.65,39.8c-1.08.08-1.89-.26-1.97-1.34-.08-1.08.61-2.5,1.69-2.57,1.08-.08,2.02.74,2.09,1.82.08,1.08-.74,2.02-1.82,2.09Z"/>
                <path class="cls-8" d="m84.3,54.79c.59.28.92.7.64,1.3-.28.59-1.07,1.14-1.67.85-.59-.28-.85-1-.56-1.59.28-.59,1-.85,1.59-.56Z"/>
              </g>
              <path class="cls-8" d="m140.84,74.05c-5.62-1.21-11.28-2.29-16.94-3.31-5.66-1.02-11.34-1.96-17.03-2.81-5.69-.82-11.4-1.55-17.13-2.16-5.72-.6-11.46-1.11-17.21-1.38-5.75-.27-11.51-.37-17.27-.16l-2.16.1c-.72.03-1.44.1-2.15.15-.72.06-1.44.1-2.15.17l-2.15.22c-.36.04-.72.07-1.07.12l-1.07.15-2.14.3-.82.15c-.18,2.02-.27,4.06-.27,6.13-.02,9.24,1.41,17.49,4,24.7,1.9,1.43,3.88,2.76,5.93,3.96,2.7,1.56,5.55,2.9,8.56,3.82,1.5.46,3.04.81,4.6,1.01,1.56.2,3.16.23,4.73.05,1.58-.17,3.13-.54,4.62-1.04,1.5-.5,2.94-1.15,4.34-1.84,2.81-1.38,5.48-2.99,8.3-4.2,1.41-.61,2.86-1.12,4.34-1.45,1.48-.34,3-.46,4.51-.38.75.04,1.51.13,2.25.27l.55.12c.18.04.36.1.54.15.18.05.36.1.54.16l.53.2c1.41.53,2.75,1.27,4.03,2.11,2.56,1.69,4.89,3.74,7.27,5.74,2.38,2.01,4.82,3.99,7.49,5.65,1.34.83,2.73,1.58,4.18,2.2,1.45.62,2.97,1.1,4.51,1.43l.58.13c.19.04.39.06.59.09.39.05.78.14,1.17.16l1.18.11,1.18.03,1.18.03h.59c.2.01.39,0,.59-.01.78-.05,1.57-.08,2.35-.14,3.13-.3,6.21-1.1,9.13-2.22,2.93-1.12,5.72-2.5,8.56-3.75,1.48-.67,2.98-1.29,4.5-1.87,5.33-7.18,8.95-16.01,10.57-26.12-3.87-1.04-7.75-2.02-11.63-2.98-5.59-1.35-11.2-2.61-16.83-3.81Z"/>
              <path class="cls-9" d="m170.18,74.18c-37.29-9.62-96.08-16.87-128.12-12.71-.5,3.33-.76,6.76-.76,10.26-.02,7.75.98,14.81,2.84,21.14,5.37,3.86,12.15,7.56,19,8.24,12.98,1.29,19.92-10.89,32.29-8.84,10.86,1.8,18.03,17.36,33.42,18.38,14.43.95,19.65-5.8,33.61-9.49,3.77-6.79,7-16.3,7.72-26.98Z"/>
              <path class="cls-2" d="m41.51,66.24c.41-6.94,1.93-13.84,4.58-20.31,2.69-6.45,6.58-12.42,11.48-17.44,4.89-5.04,10.83-9.02,17.22-11.91,6.4-2.91,13.29-4.61,20.23-5.5,6.96-.78,14-.84,20.96.03,6.94.89,13.81,2.66,20.18,5.6,3.19,1.46,6.25,3.18,9.15,5.15,2.88,1.99,5.59,4.22,8.08,6.68,2.47,2.47,4.69,5.19,6.66,8.06,1.97,2.88,3.63,5.96,5.02,9.14-5.95-12.6-16.64-22.67-29.32-28.1-6.32-2.76-13.07-4.49-19.92-5.29-3.42-.4-6.87-.6-10.32-.59-3.45.02-6.9.23-10.32.63-3.42.42-6.81,1.06-10.15,1.93-3.34.85-6.59,2.02-9.74,3.4-6.3,2.77-12.11,6.64-17.01,11.48-4.9,4.84-8.83,10.66-11.61,16.98-1.41,3.16-2.54,6.44-3.39,9.8-.44,1.68-.78,3.38-1.08,5.09-.13.86-.29,1.71-.4,2.57l-.31,2.59Z"/>
              <path class="cls-12" d="m170.18,74.18c-4.87-1.26-10.89-2.53-16.37-3.79,15.36,14.7-5.57,37.75-22.04,40.34,12.29-.07,17.72-6.14,30.69-9.57,3.77-6.79,6.94-16.97,7.72-26.98Z"/>
              <path class="cls-2" d="m111.34,127.7c-.79.8-1.69,1.48-2.67,2.05-.98.56-2.02,1.01-3.09,1.37-2.15.71-4.4,1.06-6.66,1.21-4.52.27-9.04-.21-13.47-1.01-4.45-.79-8.81-2.12-12.95-3.97-4.14-1.86-8.03-4.27-11.54-7.15-3.5-2.89-6.6-6.26-9.22-9.97-2.6-3.71-4.72-7.76-6.32-11.99-.79-2.12-1.49-4.27-2.04-6.45-.55-2.19-1-4.4-1.34-6.62-.32-2.23-.54-4.47-.67-6.71-.07-1.12-.1-2.24-.12-3.37,0-1.12,0-2.24.04-3.36.24,8.95,1.76,17.89,5.09,26.14,3.32,8.23,8.56,15.7,15.42,21.31,6.81,5.66,15.14,9.38,23.84,11.14,4.36.87,8.8,1.49,13.25,1.38,2.22-.05,4.44-.3,6.58-.9,1.07-.3,2.11-.7,3.1-1.21.99-.5,1.93-1.13,2.76-1.88Z"/>
              <path class="cls-2" d="m170.22,69.02c.07,1.95.06,3.92-.09,5.87-.06.98-.11,1.96-.23,2.93-.11.97-.19,1.95-.35,2.92-.56,3.88-1.45,7.73-2.7,11.46-1.24,3.74-2.89,7.34-4.89,10.74-2.02,3.39-4.41,6.57-7.16,9.41-2.76,2.82-5.86,5.32-9.21,7.42-3.35,2.08-6.94,3.79-10.68,5.04-3.73,1.26-7.6,2.1-11.49,2.58-3.9.45-7.84.56-11.74.32,3.91.02,7.82-.2,11.68-.8,3.85-.57,7.66-1.49,11.31-2.82,7.3-2.64,14.03-6.86,19.42-12.43,5.41-5.56,9.42-12.4,12.05-19.7,1.32-3.66,2.29-7.44,2.94-11.29.2-.96.31-1.92.45-2.89.15-.96.24-1.94.34-2.91.05-.49.1-.97.14-1.46.04-.49.07-.97.1-1.46.06-.98.1-1.95.11-2.93Z"/>
              <path class="cls-12" d="m63.14,101.11c5.39.53,9.73-1.25,13.86-3.37-13.31,3.7-26.11-1.75-34.03-9.5.34,1.59.73,3.13,1.17,4.63,5.37,3.86,12.15,7.56,19,8.24Z"/>
              <path class="cls-2" d="m42.07,61.34c-.07.66-.14,1.32-.22,1.97-.07.66-.08,1.32-.13,1.98-.06.66-.05,1.32-.07,1.98l-.02.99v.99c.02,2.64.17,5.28.39,7.91.21,2.63.5,5.26.84,7.88l.27,1.97.29,1.96c.2,1.31.41,2.62.71,3.91-.23-.62-.41-1.27-.57-1.91-.17-.64-.31-1.29-.46-1.94l-.4-1.95-.35-1.96c-.44-2.62-.77-5.26-.99-7.9-.11-1.32-.18-2.65-.24-3.98-.02-1.33-.06-2.66,0-3.99.08-2.66.33-5.32.94-7.91Z"/>
              <path class="cls-2" d="m170.18,74.18l-7.88-1.78c-2.64-.54-5.27-1.11-7.91-1.63-2.64-.5-5.28-1.03-7.93-1.52l-7.95-1.38c-10.62-1.77-21.27-3.28-31.97-4.43-10.69-1.22-21.42-2.09-32.17-2.56l-4.03-.18-4.03-.07c-1.34-.02-2.69-.06-4.03-.06l-4.03.05h-2.02c-.34.02-.67.01-1.01.02l-1.01.04-4.03.17c-.67.03-1.35.04-2.02.1l-2.01.18-4.03.34c5.34-.71,10.72-1.17,16.1-1.34l4.04-.12c1.35-.02,2.7,0,4.04,0h4.04s4.04.11,4.04.11l4.04.11,4.04.22,4.04.23c1.34.09,2.69.2,4.03.3l4.03.31c1.34.09,2.68.25,4.03.37,2.68.27,5.37.48,8.04.81l4.01.48c1.34.16,2.68.31,4.01.5,2.67.37,5.34.71,8.01,1.1l7.99,1.22c2.66.44,5.31.91,7.97,1.37l7.94,1.52c2.64.53,5.28,1.1,7.91,1.66,2.63.59,5.25,1.23,7.87,1.85,2.61.65,5.22,1.35,7.82,2.04Z"/>
              <path class="cls-2" d="m43.92,92.72c2.22,1.53,4.51,2.95,6.9,4.19,2.39,1.23,4.88,2.27,7.46,2.99,1.29.37,2.6.63,3.92.81,1.32.19,2.65.23,3.97.14,2.65-.17,5.23-.95,7.66-2.03,2.44-1.08,4.76-2.44,7.16-3.69,2.39-1.26,4.89-2.44,7.58-3.06,2.69-.63,5.53-.66,8.23.03,2.71.72,5.11,2.19,7.29,3.81,2.18,1.63,4.2,3.43,6.26,5.17,2.05,1.74,4.14,3.42,6.38,4.87,2.24,1.44,4.63,2.64,7.17,3.39,1.26.4,2.57.63,3.88.8l.99.1c.33.03.67.03,1,.05l1,.04c.33.01.67.04,1,.02,2.67.03,5.33-.3,7.93-.93,2.6-.63,5.11-1.6,7.58-2.66,2.48-1.05,4.94-2.16,7.46-3.13.62-.26,1.26-.47,1.9-.7l.95-.34.97-.31c1.28-.43,2.59-.75,3.89-1.1-2.59.76-5.13,1.66-7.61,2.7-2.49,1.04-4.91,2.21-7.36,3.34-2.46,1.11-4.98,2.13-7.62,2.82-2.63.69-5.35,1.07-8.08,1.09-.34.02-.68,0-1.02,0l-1.02-.03c-.34-.01-.68-.01-1.02-.03l-1.02-.09c-1.36-.16-2.72-.4-4.03-.8-2.64-.76-5.12-1.99-7.42-3.45-2.3-1.47-4.43-3.17-6.5-4.9-2.07-1.73-4.1-3.51-6.24-5.1-2.13-1.59-4.42-3-6.94-3.69-2.52-.66-5.23-.66-7.78-.07-2.57.58-5.01,1.71-7.39,2.94-2.38,1.24-4.74,2.57-7.26,3.63-2.5,1.06-5.18,1.82-7.93,1.96-1.37.07-2.75,0-4.09-.21-1.35-.21-2.68-.5-3.98-.9-2.6-.8-5.08-1.92-7.45-3.22-1.18-.66-2.34-1.35-3.47-2.09-1.13-.74-2.23-1.52-3.31-2.33Z"/>
              <g>
                <path class="cls-12" d="m79.66,80.38c-.02,12-9.13,17.57-18.14,17.02-11.92-.73-16.69-8.99-16.67-17.9.02-8.92,8.14-15.89,17.17-15.88,9.03.02,17.66,4.61,17.64,16.76Z"/>
                <path class="cls-4" d="m48.12,78.12c-1.4,9.51,4.39,16.35,13.16,17.97,8.56,1.58,15.7-4.08,17.6-11.78,2.3-9.32-3.8-18.77-14.25-20.27-9.8-1.41-15.54,7.55-16.51,14.07Z"/>
                <path class="cls-3" d="m60.4,64.09c-5.98,2.12-9.51,8.52-10.24,13.49-1.4,9.51,4.39,16.35,13.16,17.97,1.95.36,3.82.34,5.58.01-2.31.8-4.9,1.03-7.62.53-8.77-1.62-14.56-8.47-13.16-17.97.81-5.52,5.06-12.78,12.29-14.03Z"/>
                <path class="cls-10" d="m70.43,67.93c1.66.24,4.12,1.21,5.35,2.31.85,1.17,5.1,7.67,3.03,14.31-2.03,6.53-6.59,10.38-11.99,11.47l-.03.1c-.08-.01-.16-.02-.25-.04-8.07-1.49-14.2-7.98-12.82-16.71,1.07-6.77,7.7-12.72,16.71-11.43Z"/>
                <path class="cls-5" d="m77.94,75.04l-.45-2.54-1.06,1.55.09-2.35c.01-.27-.31-.4-.5-.21l-1.06,1.12-.4-1.92c-.05-.26-.39-.31-.53-.09l-.84,1.38-.55-1.78c-.08-.25-.42-.27-.54-.04l-.65,1.39-1.27-2.1c-.13-.22-.46-.17-.53.08l-.57,2.32-1.66-2.52c-.14-.21-.46-.15-.52.09l-.53,2.16-1.26-1.65c-.16-.21-.49-.11-.52.15l-.22,2.32-1.37-1.77c-.18-.23-.54-.08-.51.2l.21,2.11-2-1.21c-.23-.14-.51.08-.42.34l.82,2.4-2.25-.88c-.26-.1-.49.18-.35.42l1.15,1.9-1.93-.28c-.27-.04-.44.29-.24.49l1.24,1.23-2.48.09c-.27,0-.38.35-.17.51l1.79,1.42-2.17.47c-.27.06-.31.43-.05.54l2.11.93-2.15,1.05c-.24.12-.2.47.06.54l2.04.5-2.08,1.25c-.24.14-.16.5.12.53l2.33.25-1.64,1.39c-.21.18-.07.53.21.51l2.22-.22-1.4,1.98c-.15.22.05.51.31.45l2.31-.59-1.05,2.15c-.11.23.11.48.36.4l2.43-.89-.9,1.81c-.13.26.16.52.41.37l1.87-1.13-.64,2.01c-.08.25.19.47.42.34l2.37-1.35-.2,1.86c-.03.28.32.43.51.22l1.3-1.53.3,2.54c.03.23.3.34.48.18l1.96-1.74.92,1.03,3.96-4.07,3.41-15.67c.03-.14.03-.29,0-.44Z"/>
                <path class="cls-2" d="m64.06,96.68c-.94,0-1.89-.09-2.84-.26-9.39-1.74-14.79-9.11-13.43-18.35,1.01-6.82,6.91-15.78,16.88-14.35,5.13.74,9.47,3.38,12.2,7.44,2.6,3.86,3.45,8.68,2.32,13.23-1.82,7.39-8.07,12.29-15.14,12.29Zm-1.47-32.45c-8.32,0-13.25,7.86-14.15,13.94h0c-1.31,8.86,3.87,15.93,12.89,17.6.91.17,1.82.25,2.72.25,6.77,0,12.75-4.69,14.5-11.78,1.08-4.37.27-9-2.23-12.71-2.63-3.91-6.81-6.45-11.75-7.16-.68-.1-1.34-.14-1.98-.14Z"/>
                <path class="cls-10" d="m66.79,96.12c-2.18-.29-4.31-1.01-6.24-2.1-1.93-1.1-3.63-2.61-4.92-4.45-1.3-1.83-2.07-4.01-2.32-6.24-.12-1.12-.11-2.24.02-3.36.12-1.11.38-2.22.77-3.28,1.6-4.22,5.33-7.53,9.67-8.63,2.16-.57,4.43-.65,6.62-.3,1.11.18,2.15.57,3.15,1.04.5.24.98.51,1.43.83.44.32.87.7,1.16,1.16-.32-.45-.76-.79-1.21-1.09-.46-.3-.95-.55-1.45-.76-1-.42-2.06-.76-3.13-.89-2.16-.26-4.37-.13-6.44.48-2.07.61-4,1.67-5.6,3.11-1.59,1.45-2.84,3.26-3.59,5.27-.38,1-.63,2.04-.76,3.12-.13,1.07-.15,2.15-.04,3.22.21,2.14.97,4.21,2.15,6.02,1.18,1.8,2.8,3.32,4.66,4.45.92.58,1.9,1.07,2.92,1.46,1.02.39,2.08.7,3.15.92Z"/>
                <path class="cls-2" d="m70.63,71.47c3.04.48,6.76,2.4,8.17,4.73.74,3.2.89,4.81.07,8.11-1.08,4.37-3.01,7.57-6.77,9.67-.9.39-2.46.33-3.32.24-7.32-.77-12.16-6.44-11.28-13.18.61-4.62,5.07-10.85,13.13-9.58Z"/>
                <path class="cls-2" d="m49.04,73.91c1.68-5.47,8.41-11.92,15.9-11.14,6.43.67,12.57,5.16,13.59,12.15-2.35-8.12-20.88-12.44-29.49-1.01Z"/>
                <path class="cls-2" d="m49.6,72.75l-.65-.3c-.23-.11-.46-.23-.68-.34-.45-.24-.89-.5-1.32-.77-.85-.55-1.66-1.19-2.36-1.94-.69-.75-1.28-1.62-1.58-2.6-.15-.49-.23-.99-.24-1.49,0-.5.08-1,.2-1.47-.07.49-.09.98-.03,1.46.06.48.2.95.39,1.38.39.88,1.02,1.61,1.73,2.23.73.62,1.54,1.12,2.39,1.55.43.21.86.41,1.31.58.22.09.45.17.67.25l.72.25-.56,1.2Z"/>
                <path class="cls-2" d="m51.8,70.27c-.76-.36-1.46-.79-2.12-1.28-.66-.49-1.28-1.04-1.81-1.67-.53-.63-.98-1.33-1.24-2.1-.27-.77-.35-1.58-.27-2.37.04.79.23,1.56.58,2.24.34.69.86,1.27,1.42,1.77.57.5,1.2.93,1.87,1.29.67.36,1.37.66,2.08.88l-.49,1.23Z"/>
                <path class="cls-2" d="m61.65,66.74c-.5-.66-.91-1.36-1.26-2.1-.34-.73-.62-1.5-.79-2.28-.18-.78-.25-1.58-.24-2.37.02-.79.17-1.57.37-2.31-.1.77-.13,1.54-.04,2.3.09.76.28,1.49.54,2.19.26.7.62,1.36,1.03,1.99.41.62.88,1.2,1.39,1.71l-1,.87Z"/>
                <path class="cls-2" d="m58.31,67.29c-.57-.6-1.06-1.25-1.48-1.94-.42-.69-.78-1.42-1.04-2.18-.26-.76-.43-1.54-.5-2.33-.07-.79,0-1.58.11-2.34-.01.78.04,1.55.21,2.29.18.74.44,1.45.78,2.12.34.67.76,1.29,1.24,1.86.47.57,1.01,1.09,1.57,1.55l-.9.97Z"/>
                <path class="cls-2" d="m54.91,68.18c-.12-.01-.24-.03-.34-.05l-.27-.1c-.16-.08-.32-.15-.45-.24-.14-.09-.28-.17-.4-.27-.13-.09-.25-.19-.37-.3-.48-.41-.9-.87-1.26-1.37-.73-.99-1.2-2.21-1.13-3.42.1,1.2.71,2.27,1.51,3.1.4.42.85.79,1.33,1.09.12.08.24.15.36.22.12.07.25.13.37.18.12.06.25.09.36.13l.16.03s.07,0,.1,0l.04.99Z"/>
                <path class="cls-2" d="m56.4,67.44c-.09-.04-.18-.08-.27-.13l-.21-.14c-.13-.1-.26-.2-.37-.3-.23-.21-.44-.43-.64-.66-.39-.46-.72-.96-.99-1.5-.26-.54-.43-1.12-.48-1.71-.05-.59.05-1.18.27-1.71-.15.56-.15,1.13-.03,1.67.12.54.36,1.05.67,1.5.31.45.68.87,1.09,1.22.2.18.42.34.64.49.11.07.22.14.33.19l.16.07s.09.02.13.04l-.3.95Z"/>
                <path class="cls-2" d="m50.98,71.41c-.12,0-.26,0-.37-.03l-.29-.07c-.17-.06-.35-.12-.51-.19-.32-.14-.62-.3-.91-.48-.58-.36-1.12-.76-1.61-1.22-.49-.46-.93-.98-1.27-1.56-.34-.57-.57-1.22-.58-1.88.1.65.4,1.24.79,1.74.39.5.87.94,1.38,1.31.52.37,1.07.69,1.64.94.28.13.58.24.87.33.14.05.29.07.43.11l.19.02c.06,0,.08-.01.12,0l.12.99Z"/>
                <path class="cls-2" d="m52.59,69.05c-.12-.03-.25-.07-.35-.11l-.26-.14c-.15-.1-.3-.2-.43-.31-.13-.11-.26-.22-.38-.34-.12-.11-.24-.23-.35-.36-.45-.49-.84-1.02-1.17-1.58-.33-.56-.59-1.17-.75-1.79-.16-.63-.2-1.29-.06-1.91-.05.63.08,1.26.3,1.83.23.57.55,1.11.92,1.59.38.48.81.93,1.27,1.32.11.1.23.19.35.28.12.09.24.17.36.25.12.08.25.14.37.2l.17.06s.07,0,.11.02l-.11.99Z"/>
                <path class="cls-2" d="m60.1,66.62c-.22-.12-.35-.23-.49-.35-.13-.12-.25-.24-.36-.37-.22-.25-.42-.51-.61-.78-.37-.54-.68-1.11-.9-1.72-.22-.61-.37-1.25-.34-1.9.02-.65.25-1.28.64-1.77-.33.54-.45,1.16-.4,1.76.05.6.27,1.17.55,1.7.28.53.64,1.02,1.04,1.46.2.22.41.43.63.62.11.09.22.18.33.26.11.08.23.15.29.16l-.39.91Z"/>
                <path class="cls-2" d="m64.47,66.23c-.11-.05-.23-.1-.32-.15l-.23-.17c-.13-.12-.27-.24-.37-.37-.11-.13-.22-.25-.31-.38-.1-.13-.19-.26-.27-.4-.34-.54-.62-1.11-.83-1.7-.21-.59-.35-1.21-.39-1.83-.04-.62.03-1.25.24-1.82-.13.6-.11,1.21,0,1.79.12.58.32,1.15.6,1.67.27.52.6,1.02.98,1.46.09.11.19.22.29.32.1.11.2.2.31.29.1.1.21.16.31.24l.15.08s.07.01.1.03l-.24.97Z"/>
                <path class="cls-2" d="m67.38,66.96c-.1-.06-.19-.12-.28-.19l-.19-.2c-.11-.14-.21-.27-.29-.41-.08-.14-.16-.27-.22-.42-.07-.14-.13-.28-.18-.42-.22-.57-.36-1.15-.44-1.75-.07-.59-.07-1.19.03-1.77.1-.58.29-1.14.58-1.64-.21.54-.32,1.1-.33,1.66-.02.56.07,1.12.21,1.65.15.53.35,1.05.62,1.52.07.12.13.23.21.34.07.11.15.21.23.31.08.1.17.18.25.26l.12.09s.06.02.09.04l-.41.91Z"/>
                <circle class="cls-4" cx="69.42" cy="91.38" r="1.67" transform="translate(-44.44 77.06) rotate(-45.61)"/>
                <circle class="cls-4" cx="64.21" cy="73.71" r="2.79" transform="translate(-32.87 85.16) rotate(-55.67)"/>
              </g>
              <path class="cls-2" d="m102.96,125.31c.35,0,.82-.13,1.24-.25.43-.13.86-.29,1.28-.46.85-.35,1.67-.76,2.47-1.22.8-.46,1.56-.99,2.27-1.58.71-.59,1.37-1.25,1.94-2-.5.79-1.1,1.52-1.77,2.18-.67.67-1.4,1.27-2.17,1.81-.77.55-1.58,1.04-2.43,1.48-.42.22-.86.42-1.31.6-.46.18-.89.35-1.47.42l-.05-.99Z"/>
              <path class="cls-1" d="m76.62,101.49c-1.1-.06-1.92.93-1.75,2.01.57,3.5-.9,8.51-1.73,10.29-1.03,2.19-7.52,8.97-18.93,7.63-9.64-1.13-14.95-4.08-17.44-6.02-.68-.53-2.92-.43-3.6.11-1.11.89-4.73,4.34-4.01,9.45.36,2.57,3.62,1.65,5.39,3.43,1.77,1.78,17.34,13.29,37.69,12.48,20.26-.81,31.72-9.04,36.72-28.71.05-.18.12-.35.22-.51.95-1.48,1.21-2.8,1.67-4.38.27-.91-.27-1.87-1.18-2.13-8.15-2.23-26.39-3.32-33.06-3.66Z"/>
              <path class="cls-8" d="m108.96,112.16c.05-.18.12-.35.22-.51.95-1.48,1.21-2.8,1.67-4.38.27-.91-.27-1.87-1.18-2.13-.03,0-.07-.02-.11-.03-2.17,4.29-4.54,20.17-23.55,28.57-20.4,9.01-45.22-4.01-52.91-6.18h0c.52.2,1.03.47,1.44.89,1.77,1.78,17.34,13.29,37.69,12.48,20.26-.81,31.72-9.04,36.72-28.71Z"/>
              <path class="cls-8" d="m135.31,56.48c-1.01,2.06.25,3.85,3.06,4.65,2.81.8,7.58,2.18,10.09,4.13,2.63,2.04,3.98.67,2.81-1.09-1.16-1.77-4.27-5.41-8.28-7.38-2.49-1.22-6.81-2.09-7.69-.31Z"/>
              <path class="cls-2" d="m135.24,55.11c-1.01,2.06.25,3.85,3.06,4.65,2.81.8,7.58,2.18,10.09,4.13,2.63,2.04,3.98.67,2.81-1.09-1.16-1.77-4.27-5.41-8.28-7.38-2.49-1.22-6.81-2.09-7.69-.31Z"/>
              <path class="cls-8" d="m65.16,47.4c.42,1.8-.89,2.98-3.25,3.09-2.35.12-6.34.34-8.67,1.41-2.44,1.12-3.77-.19-2.53-1.37,1.23-1.17,4.86-3.47,8.36-4.29,2.17-.51,5.73-.4,6.09,1.16Z"/>
              <path class="cls-2" d="m65.19,46.47c.42,1.8-.89,2.98-3.25,3.09-2.35.12-6.34.34-8.67,1.41-2.44,1.12-3.24-.19-2.01-1.37,1.23-1.17,4.34-3.47,7.84-4.29,2.17-.51,5.73-.4,6.09,1.16Z"/>
              <path class="cls-8" d="m34.32,121.49c-1.06,2.44-2.63,4.11-3.51,3.73-.87-.38-.72-2.67.34-5.11,1.06-2.44,2.63-4.11,3.51-3.73.87.38.72,2.67-.34,5.11Z"/>
              <path class="cls-8" d="m34.1,120.47c.62-1.42.93-2.79.9-3.76-.09-.15-.2-.26-.34-.32-.87-.38-2.44,1.29-3.51,3.73-.62,1.42-.93,2.79-.9,3.76.09.15.2.26.34.32.87.38,2.44-1.29,3.51-3.73Z"/>
              <path class="cls-2" d="m41.28,78.38c-.21.54-.57,1.01-.97,1.43-.41.42-.86.79-1.33,1.13-.94.69-1.94,1.28-2.95,1.85-2.04,1.11-4.13,2.09-6.22,3.08-4.17,1.97-8.35,3.91-12.29,6.25-1.97,1.16-3.88,2.42-5.68,3.83-1.8,1.4-3.47,2.96-4.95,4.68-1.46,1.74-2.72,3.66-3.63,5.75-.94,2.08-1.46,4.34-1.7,6.64.02-2.31.44-4.63,1.25-6.82.82-2.19,2.02-4.23,3.48-6.06,1.45-1.84,3.16-3.46,4.97-4.93,1.82-1.46,3.77-2.75,5.76-3.95,2.01-1.17,4.06-2.25,6.15-3.25,2.09-.99,4.2-1.94,6.32-2.85,2.12-.92,4.24-1.81,6.31-2.8,1.04-.5,2.06-1.02,3.03-1.63.48-.31.95-.64,1.37-1.02.43-.38.82-.81,1.08-1.33Z"/>
              <g>
                <path class="cls-12" d="m117.09,86.55c-3.48,11.49,3.6,19.47,12.38,21.57,11.62,2.77,18.59-3.73,21.17-12.26,2.58-8.53-3.15-17.58-11.79-20.19-8.64-2.61-18.24-.75-21.76,10.89Z"/>
                <path class="cls-4" d="m148.26,91.42c-1.02,10.41-8.93,16.12-18.63,15.53-9.46-.58-15.52-8.44-15.5-17.07.02-10.45,8.95-18.83,20.39-17.67,10.72,1.09,14.44,12.07,13.74,19.21Z"/>
                <path class="cls-3" d="m138.97,73.37c5.76,3.82,7.81,11.5,7.28,16.95-1.02,10.41-8.93,16.12-18.63,15.53-2.15-.13-4.13-.64-5.9-1.45,2.24,1.45,4.9,2.38,7.91,2.56,9.69.59,17.61-5.12,18.63-15.53.59-6.05-1.99-14.84-9.29-18.06Z"/>
                <path class="cls-10" d="m127.36,74.79c-1.81-.18-4.67.19-6.26,1.03-1.21,1.01-7.4,6.76-6.96,14.32.43,7.43,4.24,12.71,9.66,15.27v.11c.1,0,.19.02.28.02,8.92.55,17.11-4.7,17.94-14.29.64-7.43-4.79-15.47-14.65-16.47Z"/>
                <path class="cls-5" d="m117.55,80.33l1.15-2.57.71,1.91.52-2.51c.06-.28.44-.34.58-.09l.83,1.46.93-1.92c.12-.26.5-.23.58.04l.53,1.67,1.05-1.73c.15-.24.52-.18.58.1l.33,1.64,1.9-1.89c.2-.2.54-.06.53.22v2.61s2.41-2.23,2.41-2.23c.2-.19.53-.04.53.23v2.42s1.76-1.41,1.76-1.41c.22-.18.55.01.51.29l-.38,2.51,1.91-1.51c.25-.2.6.05.49.35l-.78,2.18,2.43-.75c.28-.09.51.22.36.47l-1.49,2.32,2.61-.34c.3-.04.47.32.26.53l-1.71,1.7,2.12.21c.3.03.39.43.13.58l-1.63.97,2.6.75c.28.08.31.47.04.59l-2.27,1.03,2.17,1.07c.27.13.21.54-.09.59l-2.47.43,1.99,1.67c.22.19.09.55-.2.55h-2.28s1.86,1.87,1.86,1.87c.21.21.03.57-.26.53l-2.52-.34,1.36,1.9c.18.25-.07.58-.36.48l-2.29-.81.96,2.46c.11.27-.18.53-.44.39l-2.28-1.23.54,2.55c.06.28-.25.48-.48.32l-2.34-1.58.47,2.15c.07.31-.31.51-.53.29l-1.68-1.69.15,2.29c.02.29-.32.44-.53.25l-2.15-2.05-.27,2.02c-.04.31-.45.37-.59.1l-.97-1.96-.98,2.61c-.09.24-.41.28-.55.07l-1.62-2.36-1.25.85-3.11-5.35.52-17.45c0-.16.04-.32.11-.47Z"/>
                <path class="cls-2" d="m148.45,91.44c-.23,2.28-.8,4.55-1.81,6.62-1,2.07-2.46,3.94-4.25,5.4-1.79,1.46-3.92,2.5-6.14,3.1-2.23.61-4.56.8-6.86.64-2.31-.16-4.59-.79-6.64-1.88-2.05-1.09-3.85-2.63-5.26-4.47-1.42-1.84-2.46-3.96-3.06-6.2-.59-2.24-.77-4.59-.5-6.9.27-2.3,1-4.55,2.12-6.58,1.12-2.03,2.64-3.84,4.45-5.28,1.81-1.45,3.89-2.54,6.1-3.23,2.21-.69,4.54-.94,6.84-.83,2.3.12,4.62.66,6.65,1.78,2.04,1.11,3.76,2.75,5.06,4.66,1.3,1.91,2.2,4.07,2.76,6.29.55,2.23.75,4.55.55,6.84Zm-.38-.04c.21-2.24,0-4.52-.56-6.71-.56-2.18-1.46-4.29-2.73-6.14-1.27-1.85-2.95-3.42-4.92-4.48-1.97-1.07-4.2-1.58-6.44-1.68-2.24-.09-4.51.16-6.65.83-2.14.67-4.15,1.74-5.89,3.14-1.74,1.41-3.2,3.16-4.27,5.12-1.07,1.96-1.77,4.13-2.02,6.35-.24,2.22-.09,4.49.47,6.65.57,2.16,1.57,4.21,2.93,5.98,1.36,1.77,3.08,3.26,5.05,4.32,1.97,1.06,4.17,1.67,6.4,1.84,2.24.16,4.51,0,6.68-.58,2.17-.58,4.23-1.56,5.98-2.97,1.75-1.4,3.17-3.21,4.16-5.22,1-2.01,1.58-4.23,1.82-6.47Z"/>
                <path class="cls-10" d="m123.8,105.53c1.19.06,2.39.01,3.57-.13,1.18-.15,2.35-.4,3.47-.77,2.26-.71,4.37-1.88,6.1-3.48,1.73-1.59,3.07-3.59,3.86-5.8.4-1.1.66-2.25.8-3.42.15-1.17.15-2.34.02-3.5-.27-2.32-1.11-4.58-2.42-6.52-1.31-1.95-3.07-3.58-5.11-4.77-2.03-1.19-4.34-1.91-6.69-2.2-1.17-.14-2.37-.06-3.54.12-.59.1-1.17.24-1.73.43-.56.19-1.11.45-1.57.83.44-.41.98-.7,1.54-.92.56-.22,1.14-.38,1.73-.5,1.18-.23,2.39-.36,3.6-.26,2.4.2,4.78.89,6.9,2.06,1.06.59,2.07,1.28,2.97,2.11.9.82,1.7,1.75,2.39,2.75,1.37,2.01,2.28,4.35,2.58,6.78.14,1.21.12,2.45-.04,3.66-.16,1.21-.44,2.4-.86,3.54-.85,2.28-2.24,4.38-4.09,5.97-1.83,1.6-4.03,2.75-6.35,3.41-2.33.64-4.76.85-7.14.59Z"/>
                <path class="cls-2" d="m126.22,78.48c-3.33-.29-7.78.76-9.88,2.85-1.62,3.19-2.2,4.85-2.21,8.55-.01,4.91,1.19,8.79,4.62,12,.85.65,2.51,1,3.44,1.13,7.94,1.11,14.54-3.61,15.38-10.96.57-5.04-2.5-12.8-11.35-13.57Z"/>
                <path class="cls-2" d="m148.39,86.73c-.34-6.23-5.76-14.81-13.87-15.95-6.97-.98-14.64,2.14-17.56,9.26,4.62-7.96,25.33-7.66,31.42,6.68Z"/>
                <path class="cls-2" d="m147.85,83.99l.83-.07c.26-.03.52-.06.78-.09.52-.07,1.03-.16,1.54-.28,1.02-.23,2.01-.56,2.94-1.03.92-.47,1.78-1.09,2.42-1.92.32-.41.58-.87.77-1.37.18-.5.29-1.02.35-1.56,0,.54-.05,1.08-.19,1.61-.14.53-.36,1.03-.65,1.51-.58.95-1.43,1.7-2.36,2.31-.94.6-1.95,1.05-3,1.41-.52.18-1.05.33-1.59.46-.27.07-.54.13-.81.18l-.77.15-.25-1.3Z"/>
                <path class="cls-2" d="m146.27,80.95c.82-.07,1.65-.23,2.45-.45.8-.23,1.59-.53,2.32-.93.72-.41,1.42-.91,1.95-1.56.54-.65.93-1.42,1.15-2.25-.15.85-.46,1.67-.96,2.4-.49.73-1.16,1.33-1.88,1.83-.73.5-1.52.9-2.34,1.22-.83.32-1.67.56-2.55.73l-.13-.99Z"/>
                <path class="cls-2" d="m136.16,74.71c.68-.41,1.32-.91,1.92-1.46.59-.55,1.14-1.17,1.6-1.84.46-.68.85-1.41,1.14-2.19.29-.78.45-1.6.55-2.44.01.84-.04,1.7-.23,2.54-.2.84-.49,1.65-.89,2.43-.39.78-.89,1.51-1.44,2.19-.56.68-1.18,1.3-1.88,1.87l-.76-1.09Z"/>
                <path class="cls-2" d="m139.67,76.08c.72-.34,1.42-.76,2.07-1.24.65-.49,1.26-1.04,1.79-1.66.53-.62.99-1.31,1.37-2.05.37-.74.63-1.55.81-2.37-.08.84-.22,1.68-.51,2.5-.29.81-.67,1.59-1.15,2.32-.48.73-1.05,1.4-1.67,2.01-.63.61-1.32,1.16-2.07,1.65l-.64-1.16Z"/>
                <path class="cls-2" d="m143.98,78.13s.07.02.12.03h.18c.14,0,.28,0,.42-.04.15-.03.29-.05.44-.1.15-.04.3-.08.44-.14.59-.2,1.16-.48,1.69-.82,1.06-.67,1.99-1.65,2.4-2.89-.24,1.29-1.07,2.45-2.1,3.29-.52.43-1.08.8-1.69,1.11-.15.08-.31.15-.47.21-.16.07-.33.13-.49.18-.17.06-.35.09-.54.13l-.3.03c-.11,0-.24-.02-.37-.04l.28-.96Z"/>
                <path class="cls-2" d="m132.28,73.01s.04,0,.08,0c.05-.02.1-.04.15-.06.11-.06.23-.12.35-.2.12-.08.24-.16.35-.26.12-.09.23-.19.34-.3.45-.42.85-.9,1.2-1.42.69-1.04,1.14-2.29,1-3.6.36,1.27.13,2.68-.42,3.92-.27.62-.62,1.22-1.04,1.77-.1.14-.21.28-.33.41-.11.14-.24.26-.37.39-.13.13-.28.25-.44.37l-.28.17c-.11.05-.25.1-.38.14l-.21-1.31Z"/>
                <path class="cls-2" d="m142.25,76.92c.05,0,.1,0,.15,0l.19-.04c.13-.03.27-.07.4-.12.27-.1.54-.22.8-.36.53-.28,1.02-.62,1.47-1.02.45-.4.83-.88,1.1-1.42.27-.54.41-1.15.4-1.78.1.62.04,1.27-.17,1.88-.21.61-.55,1.18-.96,1.67-.42.5-.9.93-1.44,1.31-.27.19-.55.36-.85.52-.15.08-.31.15-.47.21l-.26.09c-.1.02-.2.04-.31.06l-.06-.99Z"/>
                <path class="cls-2" d="m147.37,82.6s.08.03.14.04l.21.03c.16,0,.31.01.48,0,.33-.02.67-.06,1.01-.13.67-.13,1.34-.32,1.98-.58.64-.27,1.25-.6,1.8-1.04.54-.43,1.01-.98,1.28-1.64-.19.69-.6,1.31-1.11,1.83-.51.52-1.11.94-1.75,1.3-.64.35-1.32.63-2.02.85-.35.11-.71.2-1.09.27-.18.04-.38.05-.58.07h-.32c-.11,0-.26-.04-.38-.07l.35-.93Z"/>
                <path class="cls-2" d="m146.08,79.46s.04,0,.09.01l.18-.02c.14-.03.28-.05.43-.1.15-.05.3-.09.45-.16.15-.06.3-.12.45-.19.59-.28,1.16-.62,1.69-1.02.53-.4,1.01-.87,1.41-1.41.4-.54.7-1.16.83-1.84-.01.69-.22,1.38-.54,2.01-.33.63-.75,1.21-1.25,1.73-.49.52-1.04.98-1.64,1.39-.15.11-.3.2-.46.29-.16.1-.32.18-.49.27-.17.09-.36.16-.55.23l-.32.09c-.12.02-.29.03-.43.03l.17-1.32Z"/>
                <path class="cls-2" d="m138.45,75.1c.07,0,.23-.05.36-.1.14-.05.28-.12.42-.19.28-.14.56-.31.83-.5.54-.37,1.04-.8,1.48-1.29.43-.49.81-1.04,1.02-1.67.21-.62.24-1.32.03-1.97.28.62.35,1.34.21,2.03-.14.69-.47,1.33-.87,1.91-.4.58-.88,1.1-1.41,1.57-.27.23-.54.45-.84.66-.15.1-.31.2-.47.29-.17.09-.34.18-.6.24l-.16-.98Z"/>
                <path class="cls-2" d="m134.11,73.52s.07,0,.12,0l.18-.05c.13-.05.26-.1.4-.17.13-.07.27-.14.4-.23.13-.08.26-.17.39-.26.51-.37.99-.81,1.41-1.29.43-.48.79-1.03,1.06-1.61.27-.59.45-1.23.47-1.9.06.66-.03,1.34-.24,1.99-.21.65-.51,1.26-.9,1.83-.38.57-.83,1.09-1.33,1.57-.12.12-.26.24-.39.34-.13.11-.28.22-.43.32-.14.11-.32.19-.48.28l-.29.12c-.11.03-.25.05-.37.07v-1Z"/>
                <path class="cls-2" d="m130.44,73.52s.07-.02.12-.02l.16-.07c.11-.06.23-.13.35-.21.12-.08.23-.17.34-.27.11-.09.22-.19.33-.3.43-.42.8-.91,1.12-1.43.32-.52.57-1.09.71-1.69.15-.6.19-1.23.1-1.86.17.61.21,1.26.14,1.91-.07.65-.25,1.28-.52,1.88-.26.6-.6,1.17-1,1.7-.1.13-.21.26-.32.39-.11.13-.23.25-.36.37-.12.12-.27.23-.42.34l-.25.15c-.1.05-.22.09-.33.12l-.17-.98Z"/>
                <circle class="cls-4" cx="128.33" cy="99.5" r="1.82" transform="translate(-32.77 119.89) rotate(-45)"/>
                <path class="cls-2" d="m123.39,107.65c1.4-.37,2.87-.43,4.31-.43,1.45,0,2.89.11,4.33.27,1.43.18,2.86.41,4.27.73,1.41.32,2.8.7,4.16,1.19l-4.26-.68c-1.42-.21-2.83-.41-4.25-.58-1.42-.18-2.84-.31-4.27-.41-1.43-.09-2.85-.18-4.29-.08Z"/>
                <circle class="cls-4" cx="124.2" cy="79.75" r="3.04"/>
              </g>
              <path class="cls-2" d="m50.35,95.08c.58-.13,1.18-.14,1.77-.15.59,0,1.18,0,1.77.04,1.18.06,2.35.2,3.51.38,1.16.19,2.32.44,3.45.76,1.13.33,2.26.72,3.3,1.28-1.14-.31-2.28-.55-3.42-.78-1.14-.22-2.29-.43-3.44-.61-1.15-.19-2.3-.36-3.46-.53-.58-.08-1.16-.16-1.74-.23-.58-.07-1.16-.15-1.75-.17Z"/>
              <path class="cls-2" d="m111.22,119.56c.3-.12.66-.09.96.06.3.15.53.43.61.74-.24-.21-.46-.4-.72-.52-.25-.13-.53-.2-.84-.28Z"/>
              <path class="cls-2" d="m74.18,101.33c.52.76.8,1.65.95,2.55.14.9.17,1.82.12,2.73-.1,1.82-.44,3.62-.99,5.36-.29.87-.58,1.73-1.08,2.56-.49.81-1.09,1.52-1.73,2.18-1.3,1.32-2.82,2.41-4.47,3.24-1.64.84-3.41,1.43-5.22,1.8-1.81.36-3.66.47-5.5.41-1.84-.07-3.64-.34-5.43-.66-1.79-.32-3.56-.77-5.3-1.32-1.73-.56-3.43-1.24-5.06-2.06-.82-.41-1.61-.86-2.38-1.35-.19-.12-.39-.24-.57-.37-.19-.13-.39-.27-.54-.36-.34-.2-.73-.35-1.14-.44-.81-.18-1.69-.16-2.44.15-.19.08-.37.17-.53.29-.16.11-.3.25-.46.41-.31.31-.59.64-.86.99-1.06,1.4-1.82,3.05-2.15,4.77-.15.86-.21,1.76-.01,2.59.1.42.25.82.53,1.11.28.3.66.49,1.07.63.82.28,1.74.44,2.58.87.42.21.81.48,1.15.82.31.3.66.58,1.01.85,1.42,1.08,2.93,2.05,4.48,2.95,1.55.89,3.14,1.72,4.76,2.47,3.24,1.51,6.61,2.72,10.04,3.68,3.44.93,6.95,1.58,10.49,1.88,1.77.16,3.55.2,5.32.18,1.77-.02,3.56-.16,5.32-.33,3.53-.37,7.05-.97,10.4-2.08,3.36-1.07,6.56-2.63,9.37-4.74,2.82-2.1,5.21-4.76,7.12-7.74,1.92-2.97,3.4-6.25,4.56-9.63.57-1.7,1.07-3.4,1.56-5.15.25-.87.52-1.73.87-2.57.35-.84.8-1.64,1.32-2.37l.11.07c-.47.76-.85,1.57-1.15,2.41-.3.84-.52,1.7-.73,2.57-.39,1.74-.81,3.51-1.33,5.24-.51,1.73-1.14,3.44-1.84,5.11-.18.41-.35.84-.55,1.25l-.59,1.23-.64,1.2c-.22.4-.46.79-.69,1.18-1.9,3.11-4.32,5.94-7.22,8.21-2.89,2.28-6.25,3.92-9.71,5.07-1.74.57-3.51,1.02-5.31,1.36-1.79.34-3.59.6-5.4.75-1.81.15-3.62.26-5.44.27-1.82,0-3.64-.06-5.45-.25-3.62-.34-7.19-1.08-10.67-2.11-3.48-1.04-6.84-2.42-10.07-4.04-3.23-1.63-6.33-3.5-9.19-5.72-.36-.28-.7-.57-1.04-.9-.3-.3-.65-.55-1.03-.75-.77-.4-1.65-.55-2.52-.86-.43-.16-.88-.38-1.22-.74-.35-.36-.53-.84-.64-1.29-.22-.92-.16-1.86,0-2.76.32-1.81,1.07-3.52,2.13-5.02.27-.37.56-.74.87-1.08.15-.16.32-.35.53-.5.2-.15.41-.28.64-.38.91-.4,1.9-.46,2.85-.29.47.09.94.24,1.38.48.23.13.4.25.59.37.18.12.38.23.57.34.76.44,1.55.85,2.35,1.22,1.61.74,3.28,1.33,4.98,1.84,1.7.51,3.43.89,5.18,1.21.88.15,1.75.29,2.64.4.88.13,1.75.2,2.63.25,3.5.16,7.06-.42,10.21-1.96,1.57-.77,3.04-1.75,4.3-2.96.63-.6,1.2-1.26,1.67-1.98.45-.7.79-1.54,1.09-2.36.59-1.67,1.02-3.4,1.21-5.17.09-.88.11-1.77.02-2.65-.1-.87-.3-1.75-.76-2.52l.11-.07Z"/>
              <path class="cls-2" d="m79.23,99.02c2.19-.96,4.54-1.55,6.91-1.88,1.19-.17,2.39-.25,3.59-.28,1.2-.02,2.41.04,3.61.16,2.39.25,4.76.81,7,1.67,2.25.84,4.36,2.04,6.28,3.45-1.04-.58-2.07-1.18-3.16-1.65-.53-.26-1.09-.47-1.63-.71-.56-.2-1.1-.43-1.67-.61-1.12-.38-2.26-.69-3.41-.94-1.15-.26-2.32-.44-3.49-.56-2.34-.26-4.72-.25-7.07-.03-1.18.11-2.35.28-3.51.51-1.17.21-2.32.5-3.46.86Z"/>
              <path class="cls-2" d="m79.68,107.16c.47-.21.98-.32,1.48-.42.5-.1,1.01-.18,1.52-.24,1.02-.11,2.05-.16,3.08-.14,2.06.04,4.11.34,6.11.87,1.99.55,3.92,1.34,5.68,2.4,1.78,1.04,3.38,2.38,4.76,3.88-.8-.64-1.57-1.3-2.42-1.85-.83-.58-1.7-1.1-2.59-1.57-.44-.24-.9-.45-1.35-.68-.46-.2-.92-.41-1.39-.59-.93-.37-1.89-.7-2.86-.95-1.94-.53-3.94-.86-5.95-1-1.01-.07-2.02-.09-3.03-.06-1.01.03-2.03.09-3.02.33Z"/>
              <path class="cls-2" d="m76.94,115.92c.46-.13.92-.31,1.39-.39l.72-.12c.12-.02.24-.05.36-.06l.36-.02c.48-.03.97-.07,1.45-.03l.73.03c.24.02.48.06.72.09,1.93.26,3.79.9,5.51,1.79,1.71.92,3.29,2.1,4.6,3.53.66.71,1.24,1.5,1.76,2.31.23.43.49.84.7,1.27l.57,1.33c-.79-1.76-1.88-3.37-3.21-4.74-1.33-1.37-2.87-2.53-4.57-3.41-1.68-.9-3.51-1.52-5.4-1.83-.24-.04-.47-.09-.71-.11l-.71-.05c-.48-.06-.95-.03-1.43-.02h-.36c-.12.01-.24.03-.36.04l-.71.09c-.24.02-.47.09-.7.14l-.7.16Z"/>
              <path class="cls-2" d="m72.82,120.58c1.46-.38,3.01-.43,4.52-.19,1.51.25,2.95.84,4.23,1.67,1.27.85,2.38,1.94,3.25,3.18.41.64.83,1.28,1.14,1.97l.25.51c.08.17.14.35.21.53.14.35.27.71.4,1.06-.34-.67-.6-1.38-1.01-2.02-.34-.67-.78-1.28-1.21-1.89-.9-1.19-1.98-2.25-3.23-3.05-1.24-.83-2.64-1.4-4.1-1.69-.73-.13-1.48-.23-2.23-.23-.75-.04-1.5.06-2.25.17Z"/>
              <path class="cls-2" d="m37.62,117.13c.05.45.04.9.03,1.35-.03.45-.07.9-.13,1.35-.13.89-.34,1.78-.65,2.63-.32.85-.72,1.67-1.22,2.42-.51.75-1.14,1.42-1.84,1.98.29-.35.62-.65.87-1.02.29-.34.52-.72.76-1.09.44-.77.82-1.57,1.13-2.4.31-.83.53-1.69.71-2.56.18-.87.3-1.76.35-2.65Z"/>
              <path class="cls-4" d="m50.64,44.03c.28-.4.53-.89.79-1.35.26-.47.52-.93.78-1.39.54-.92,1.11-1.83,1.7-2.72,1.19-1.78,2.49-3.49,3.91-5.12,1.42-1.62,2.94-3.15,4.55-4.6,1.61-1.44,3.32-2.77,5.1-4.01,3.54-2.48,7.28-4.82,11.4-6.2l1.54-.51c.52-.16,1.04-.3,1.56-.44,1.04-.29,2.1-.52,3.16-.72,1.05-.23,2.14-.34,3.2-.49,1.08-.11,2.15-.18,3.24-.2l.06.29c-.99.46-1.98.82-2.97,1.23l-1.47.6c-.24.1-.49.19-.74.28l-.73.3c-.48.2-.97.41-1.46.6-.49.19-.96.41-1.44.61-.97.39-1.92.82-2.87,1.23-.48.19-.95.41-1.42.63l-1.42.63c-.47.22-.94.43-1.41.64-.48.2-.94.42-1.41.64-1.89.84-3.75,1.79-5.52,2.88-1.77,1.08-3.5,2.25-5.14,3.54-1.65,1.27-3.23,2.64-4.73,4.1-1.51,1.45-2.93,3-4.25,4.64-.66.82-1.3,1.66-1.91,2.52-.31.43-.62.86-.92,1.29-.31.43-.59.87-.96,1.3l-.22-.2Z"/>
              <path class="cls-4" d="m39.76,69.3c-.27,1.5-.99,2.92-1.89,4.16-.91,1.25-2.01,2.34-3.17,3.33-2.33,1.99-5.04,3.4-7.68,4.82-2.66,1.41-5.36,2.69-8.01,4.06-1.33.68-2.65,1.38-3.91,2.16-1.26.78-2.5,1.63-3.42,2.8l-.11-.08c.42-.63.96-1.17,1.52-1.68.58-.49,1.17-.96,1.79-1.38,1.24-.86,2.52-1.64,3.82-2.4,2.6-1.49,5.24-2.9,7.81-4.41,1.28-.76,2.55-1.54,3.77-2.37,1.23-.83,2.43-1.67,3.6-2.55,2.32-1.77,4.5-3.77,5.76-6.5l.13.04Z"/>
              <path class="cls-4" d="m39.59,119.16c.84.09,1.59.36,2.33.57.73.24,1.45.46,2.15.7.36.11.71.23,1.05.37.35.13.7.27,1.04.42l1.05.42c.35.13.71.25,1.07.36.36.12.73.21,1.09.31.37.1.73.2,1.11.28l1.11.26,1.13.22c.75.17,1.51.26,2.27.39l2.3.3v.2c-.78.05-1.56.1-2.34.12-.78,0-1.57.03-2.35-.01-1.57-.04-3.14-.23-4.7-.51l-1.18-.21-1.18-.25c-.39-.1-.77-.22-1.15-.35-.38-.14-.74-.3-1.11-.48-.71-.37-1.41-.79-2.04-1.29-.64-.49-1.21-1.05-1.75-1.64l.08-.18Z"/>
              <path class="cls-4" d="m62.35,123.09c.44-.31.86-.51,1.3-.66.43-.17.91-.15,1.37-.24.45-.09.91-.2,1.36-.32.45-.12.89-.27,1.32-.48l.06.08c-.35.34-.76.6-1.18.85-.43.24-.87.44-1.32.62-.45.18-.89.42-1.38.45-.24.02-.49.02-.74,0-.25-.03-.51-.08-.76-.2v-.1Z"/>
              <path class="cls-2" d="m111.16,13.2c-.44.47-.94.79-1.45,1.05-.51.27-1.05.47-1.59.64-1.09.33-2.22.5-3.35.48-1.13-.02-2.3-.24-3.33-.82-.51-.29-.98-.67-1.36-1.13-.38-.46-.66-.99-.85-1.54-.37-1.1-.43-2.28-.19-3.41.25-1.13.86-2.16,1.65-2.97.8-.81,1.77-1.43,2.81-1.84,1.04-.41,2.17-.63,3.3-.56.56.04,1.13.16,1.66.4.53.24,1.01.62,1.33,1.11.32.5.5,1.06.5,1.66,0,.6-.29,1.18-.71,1.58-.42.4-.95.66-1.48.83-.54.16-1.1.23-1.66.21-1.11-.03-2.25-.41-3.04-1.23-.39-.41-.67-.91-.82-1.45-.15-.54-.18-1.1-.13-1.65.05-.55.17-1.1.4-1.6.23-.5.56-.96.95-1.34.79-.76,1.82-1.26,2.88-1.48.53-.11,1.09-.15,1.63-.09.53.06,1.09.24,1.46.65-.37-.41-.93-.57-1.46-.62-.54-.05-1.08,0-1.61.12-1.05.24-2.05.75-2.81,1.51-.38.38-.68.83-.9,1.32-.21.49-.32,1.02-.36,1.55-.03.53,0,1.07.15,1.58.15.5.42.97.79,1.34.74.75,1.83,1.09,2.87,1.1.53,0,1.06-.07,1.55-.23.5-.16.97-.41,1.33-.77.36-.36.58-.83.57-1.32,0-.49-.18-1-.46-1.41-.57-.84-1.63-1.21-2.66-1.25-1.04-.05-2.09.18-3.06.58-.97.41-1.86,1-2.57,1.75-.71.75-1.22,1.68-1.43,2.68-.2.99-.11,2.06.22,3.01.34.95,1.01,1.74,1.89,2.21.88.47,1.92.66,2.95.66,1.03,0,2.08-.18,3.07-.49.49-.16.97-.36,1.42-.6.44-.24.87-.53,1.16-.86h0c.18-.21.5-.23.7-.05.21.18.22.5.04.7,0,0,0,0,0,0Z"/>
            </g>
          </g>
        </g>
      </g>
    </g>
  </g>
</svg>