<?xml version="1.0" encoding="UTF-8"?>
<svg id="Layer_2" data-name="Layer 2" xmlns="http://www.w3.org/2000/svg" viewBox="0 0 87.14 64.33">
  <defs>
    <style>
      .cls-1 {
        fill: #034ea2;
      }

      .cls-2 {
        fill: #001689;
      }

      .cls-3 {
        fill: #fff;
      }

      .cls-4 {
        fill: #afeae6;
      }

      .cls-5 {
        stroke: #fff;
        stroke-width: 2.96px;
      }

      .cls-5, .cls-6 {
        fill: none;
      }

      .cls-6 {
        stroke: #001689;
        stroke-width: .59px;
      }
    </style>
  </defs>
  <g id="Layer_5" data-name="Layer 5">
    <g>
      <path class="cls-3" d="m42.07,64.16c-.4-.16-40.34-15.92-34.09-45.91C10.81,4.66,23.13-1.13,33.84.18c.36.04.71.1,1.05.15,7.41,1.28,12.3,6.09,14.39,8.59,2.62-1.91,8.52-5.41,16.04-4.87.35.03.7.06,1.06.1,10.71,1.31,21.27,9.9,20.75,23.77-1.16,30.6-43.72,36.29-44.15,36.34l-.47.06-.44-.17Z"/>
      <g>
        <g>
          <g>
            <path class="cls-1" d="m14.97,34.15v6.37H0v-24.28h6.37v17.91h8.6Z"/>
            <path class="cls-1" d="m17.54,21.77c-.58-.33-1.06-.78-1.43-1.35s-.56-1.19-.56-1.85c0-1.02.39-1.87,1.16-2.55.77-.68,1.7-1.02,2.79-1.02,1.02,0,1.84.31,2.47.92s.94,1.43.94,2.45c0,1.13-.34,2.05-1.02,2.79-.68.73-1.53,1.1-2.55,1.1-.62,0-1.22-.16-1.8-.49Zm-1.67,1.71h6.66v16.89h-6.15l-.51-16.89Z"/>
            <path class="cls-1" d="m46.96,29.81c0,1.55-.37,3.07-1.1,4.56-.73,1.49-1.75,2.76-3.04,3.81-1.3,1.05-2.75,1.75-4.37,2.09-.81.17-1.58.25-2.33.25-1.85,0-3.62-.41-5.32-1.24s-3.15-1.99-4.35-3.47c-1.2-1.49-2-3.17-2.41-5.03-.15-.72-.22-1.5-.22-2.33,0-1.83.4-3.59,1.19-5.29.8-1.7,1.92-3.14,3.36-4.33s3.09-1.99,4.94-2.39c.89-.17,1.77-.25,2.64-.25,1.47,0,2.88.21,4.25.62s2.49,1.01,3.36,1.8l-3.38,5.23c-.47-.45-1.08-.79-1.83-1.04-.75-.24-1.52-.37-2.31-.37-.47,0-.95.05-1.43.16-1.17.28-2.13.93-2.88,1.96s-1.13,2.17-1.13,3.42c0,.34.03.69.1,1.05.3,1.32.93,2.41,1.91,3.27.98.86,2.08,1.29,3.31,1.29.3,0,.6-.03.92-.1.7-.15,1.39-.43,2.06-.86.67-.42,1.08-.9,1.23-1.43l-5.67-1.08,1.31-5.7,10.55,2.1c.42,1,.64,2.1.64,3.31Z"/>
            <path class="cls-1" d="m53.56,38.94c-1.93-1.16-3.48-2.69-4.64-4.59-1.16-1.9-1.74-3.92-1.74-6.07s.58-4.16,1.74-6.04,2.7-3.38,4.64-4.49c1.93-1.12,3.99-1.67,6.18-1.67s4.21.56,6.12,1.67c1.91,1.11,3.44,2.61,4.57,4.48,1.14,1.87,1.7,3.89,1.7,6.05s-.57,4.23-1.7,6.13c-1.14,1.9-2.66,3.42-4.57,4.56-1.91,1.14-3.95,1.7-6.12,1.7s-4.25-.58-6.18-1.74Zm9.1-5.43c.94-.53,1.7-1.25,2.26-2.17.56-.91.84-1.93.84-3.06s-.28-2.1-.84-3c-.56-.89-1.32-1.59-2.28-2.09-.96-.5-2.02-.75-3.19-.75-1.1,0-2.11.25-3.01.75-.9.5-1.61,1.19-2.12,2.07-.51.88-.76,1.88-.76,2.98s.26,2.18.78,3.11c.52.92,1.23,1.65,2.13,2.17.9.52,1.93.78,3.07.78s2.16-.26,3.11-.8Z"/>
          </g>
          <g>
            <path class="cls-3" d="m0,43.08c-1.42,0-2.56-1.15-2.56-2.56v-24.28C-2.56,14.83-1.42,13.68,0,13.68h6.37c1.42,0,2.56,1.15,2.56,2.56v15.34h6.04c1.42,0,2.56,1.15,2.56,2.56v6.37c0,1.42-1.15,2.56-2.56,2.56H0Z"/>
            <path class="cls-3" d="m16.38,42.92c-1.39,0-2.52-1.1-2.56-2.49l-.51-16.89c-.02-.65.21-1.28.63-1.77-.63-.99-.95-2.07-.95-3.22,0-1.76.7-3.31,2.04-4.48,1.23-1.08,2.78-1.66,4.48-1.66s3.16.57,4.27,1.66c1.12,1.1,1.71,2.58,1.71,4.28,0,1.3-.32,2.49-.93,3.51.35.44.55.99.55,1.59v16.89c0,1.42-1.15,2.56-2.56,2.56h-6.15Z"/>
            <path class="cls-3" d="m36.13,43.08c-2.23,0-4.4-.5-6.44-1.5-2.03-.99-3.79-2.39-5.22-4.17-1.45-1.79-2.43-3.85-2.92-6.1-.19-.91-.28-1.87-.28-2.87,0-2.2.48-4.34,1.44-6.38.96-2.04,2.32-3.8,4.05-5.22,1.76-1.45,3.78-2.43,6.02-2.92,1.11-.21,2.16-.31,3.19-.31,1.71,0,3.39.25,5,.73,1.73.52,3.19,1.31,4.34,2.35.94.84,1.12,2.24.44,3.3l-2.16,3.35,3.25.65c.83.17,1.53.73,1.86,1.51.56,1.31.84,2.77.84,4.32,0,1.94-.46,3.85-1.36,5.69-.9,1.82-2.15,3.38-3.73,4.66-1.61,1.31-3.45,2.18-5.45,2.61-.97.21-1.93.31-2.85.31Z"/>
            <path class="cls-3" d="m59.74,43.24c-2.65,0-5.17-.71-7.5-2.1-2.28-1.37-4.14-3.2-5.51-5.45-1.4-2.3-2.11-4.79-2.11-7.4s.71-5.1,2.12-7.38c1.38-2.24,3.24-4.05,5.54-5.37,2.32-1.34,4.83-2.02,7.46-2.02s5.11.68,7.41,2.02c2.27,1.33,4.11,3.13,5.47,5.36,1.38,2.27,2.08,4.75,2.08,7.39s-.7,5.15-2.07,7.45c-1.35,2.26-3.19,4.09-5.46,5.45-2.3,1.37-4.8,2.06-7.43,2.06Zm-.29-18.22c-.67,0-1.25.14-1.77.43-.49.27-.86.63-1.14,1.11-.28.49-.42,1.04-.42,1.7,0,.71.15,1.31.45,1.85.29.52.68.91,1.18,1.2.51.29,1.1.44,1.79.44s1.29-.15,1.85-.47c.56-.32,1-.74,1.33-1.28.31-.51.46-1.07.46-1.71s-.15-1.15-.45-1.63c-.32-.5-.74-.89-1.3-1.18-.59-.31-1.24-.46-2-.46Z"/>
          </g>
          <g>
            <path class="cls-2" d="m14.97,34.15v6.37H0v-24.28h6.37v17.91h8.6Z"/>
            <path class="cls-2" d="m17.54,21.77c-.58-.33-1.06-.78-1.43-1.35s-.56-1.19-.56-1.85c0-1.02.39-1.87,1.16-2.55.77-.68,1.7-1.02,2.79-1.02,1.02,0,1.84.31,2.47.92s.94,1.43.94,2.45c0,1.13-.34,2.05-1.02,2.79-.68.73-1.53,1.1-2.55,1.1-.62,0-1.22-.16-1.8-.49Zm-1.67,1.71h6.66v16.89h-6.15l-.51-16.89Z"/>
            <path class="cls-2" d="m46.96,29.81c0,1.55-.37,3.07-1.1,4.56-.73,1.49-1.75,2.76-3.04,3.81-1.3,1.05-2.75,1.75-4.37,2.09-.81.17-1.58.25-2.33.25-1.85,0-3.62-.41-5.32-1.24s-3.15-1.99-4.35-3.47c-1.2-1.49-2-3.17-2.41-5.03-.15-.72-.22-1.5-.22-2.33,0-1.83.4-3.59,1.19-5.29.8-1.7,1.92-3.14,3.36-4.33s3.09-1.99,4.94-2.39c.89-.17,1.77-.25,2.64-.25,1.47,0,2.88.21,4.25.62s2.49,1.01,3.36,1.8l-3.38,5.23c-.47-.45-1.08-.79-1.83-1.04-.75-.24-1.52-.37-2.31-.37-.47,0-.95.05-1.43.16-1.17.28-2.13.93-2.88,1.96s-1.13,2.17-1.13,3.42c0,.34.03.69.1,1.05.3,1.32.93,2.41,1.91,3.27.98.86,2.08,1.29,3.31,1.29.3,0,.6-.03.92-.1.7-.15,1.39-.43,2.06-.86.67-.42,1.08-.9,1.23-1.43l-5.67-1.08,1.31-5.7,10.55,2.1c.42,1,.64,2.1.64,3.31Z"/>
            <path class="cls-2" d="m53.56,38.94c-1.93-1.16-3.48-2.69-4.64-4.59-1.16-1.9-1.74-3.92-1.74-6.07s.58-4.16,1.74-6.04,2.7-3.38,4.64-4.49c1.93-1.12,3.99-1.67,6.18-1.67s4.21.56,6.12,1.67c1.91,1.11,3.44,2.61,4.57,4.48,1.14,1.87,1.7,3.89,1.7,6.05s-.57,4.23-1.7,6.13c-1.14,1.9-2.66,3.42-4.57,4.56-1.91,1.14-3.95,1.7-6.12,1.7s-4.25-.58-6.18-1.74Zm9.1-5.43c.94-.53,1.7-1.25,2.26-2.17.56-.91.84-1.93.84-3.06s-.28-2.1-.84-3c-.56-.89-1.32-1.59-2.28-2.09-.96-.5-2.02-.75-3.19-.75-1.1,0-2.11.25-3.01.75-.9.5-1.61,1.19-2.12,2.07-.51.88-.76,1.88-.76,2.98s.26,2.18.78,3.11c.52.92,1.23,1.65,2.13,2.17.9.52,1.93.78,3.07.78s2.16-.26,3.11-.8Z"/>
          </g>
        </g>
        <g>
          <path class="cls-3" d="m70.75,20.04c-2.23,0-4.05-1.81-4.07-4.04-.01-2.24,1.8-4.08,4.04-4.09,2.25,0,4.08,1.81,4.09,4.04,0,1.09-.41,2.11-1.17,2.88-.76.77-1.78,1.2-2.87,1.21h-.02Zm-.32-4.35c-.05.07-.08.17-.08.29,0,.12.03.21.08.28v-.57Z"/>
          <path class="cls-2" d="m70.76,18.51c-1.4,0-2.54-1.12-2.55-2.52,0-1.4,1.12-2.54,2.52-2.55,1.4,0,2.54,1.12,2.55,2.52,0,1.4-1.12,2.54-2.52,2.55Zm-.03-4.5c-1.09,0-1.93.85-1.92,1.98,0,1.13.85,1.96,1.95,1.96,1.09,0,1.93-.85,1.92-1.98,0-1.13-.85-1.96-1.94-1.96Zm.48,3.31l-.5-1.04h-.29s0,1.04,0,1.04h-.6s-.02-2.69-.02-2.69h1.1c.55,0,.9.39.9.83,0,.37-.23.61-.49.72l.57,1.13h-.69Zm-.37-2.2h-.42s0,.7,0,.7h.42c.22,0,.37-.17.37-.36,0-.19-.15-.35-.37-.35Z"/>
        </g>
        <g>
          <g>
            <path class="cls-5" d="m47.2,48.79l-.65.66v2.46h-2.34v-8.87h2.34v2.75l3-2.96,1.87,1.72-2.43,2.46,2.99,3.58-1.95,1.73-2.82-3.52Z"/>
            <path class="cls-5" d="m53.51,45.04c-.22-.12-.39-.29-.53-.5-.14-.21-.21-.44-.21-.68,0-.38.14-.69.43-.94s.63-.38,1.03-.38c.38,0,.68.11.91.34s.35.53.35.91c0,.42-.13.76-.38,1.03s-.56.41-.94.41c-.23,0-.45-.06-.67-.18Zm-.62.63h2.46v6.23h-2.27l-.19-6.23Z"/>
            <path class="cls-5" d="m61.25,43.58c.86.43,1.55,1.02,2.08,1.77s.79,1.58.79,2.5c0,1.4-.51,2.45-1.53,3.14-1.02.69-2.39,1.04-4.12,1.04-.69,0-1.37-.04-2.05-.12l.09-8.53c.36-.16.7-.27,1.02-.34.32-.07.66-.11,1.02-.11.94,0,1.84.22,2.7.65Zm.31,3.91c0-.4-.11-.75-.33-1.05-.22-.3-.51-.53-.87-.69-.36-.16-.72-.24-1.1-.24-.2,0-.36.02-.49.05v3.99c1.87.04,2.8-.65,2.8-2.06Z"/>
            <path class="cls-5" d="m65.89,51.62c-.64-.28-1.16-.65-1.56-1.11l1.59-1.74c.25.28.55.5.89.66.34.16.68.24,1.03.24.31,0,.57-.06.76-.18.2-.12.29-.25.29-.41s-.09-.27-.28-.34c-.19-.07-.43-.11-.73-.11-.58,0-1.12-.12-1.61-.36-.49-.24-.88-.58-1.18-1.01-.29-.43-.44-.91-.44-1.44s.15-1.04.46-1.48.72-.78,1.23-1.04,1.08-.38,1.69-.38,1.22.12,1.81.36c.59.24,1.11.58,1.55,1.03l-1.33,1.8c-.74-.54-1.44-.81-2.09-.81-.29,0-.54.05-.75.15-.21.1-.32.22-.32.36,0,.15.12.26.38.34.25.07.55.11.89.11.63,0,1.19.1,1.68.29.49.2.88.49,1.16.87.28.38.42.85.42,1.4,0,.59-.17,1.13-.5,1.62-.33.49-.78.88-1.34,1.16-.56.28-1.16.42-1.81.42s-1.28-.14-1.92-.42Z"/>
          </g>
          <g>
            <path class="cls-6" d="m47.2,48.79l-.65.66v2.46h-2.34v-8.87h2.34v2.75l3-2.96,1.87,1.72-2.43,2.46,2.99,3.58-1.95,1.73-2.82-3.52Z"/>
            <path class="cls-6" d="m53.51,45.04c-.22-.12-.39-.29-.53-.5-.14-.21-.21-.44-.21-.68,0-.38.14-.69.43-.94s.63-.38,1.03-.38c.38,0,.68.11.91.34s.35.53.35.91c0,.42-.13.76-.38,1.03s-.56.41-.94.41c-.23,0-.45-.06-.67-.18Zm-.62.63h2.46v6.23h-2.27l-.19-6.23Z"/>
            <path class="cls-6" d="m61.25,43.58c.86.43,1.55,1.02,2.08,1.77s.79,1.58.79,2.5c0,1.4-.51,2.45-1.53,3.14-1.02.69-2.39,1.04-4.12,1.04-.69,0-1.37-.04-2.05-.12l.09-8.53c.36-.16.7-.27,1.02-.34.32-.07.66-.11,1.02-.11.94,0,1.84.22,2.7.65Zm.31,3.91c0-.4-.11-.75-.33-1.05-.22-.3-.51-.53-.87-.69-.36-.16-.72-.24-1.1-.24-.2,0-.36.02-.49.05v3.99c1.87.04,2.8-.65,2.8-2.06Z"/>
            <path class="cls-6" d="m65.89,51.62c-.64-.28-1.16-.65-1.56-1.11l1.59-1.74c.25.28.55.5.89.66.34.16.68.24,1.03.24.31,0,.57-.06.76-.18.2-.12.29-.25.29-.41s-.09-.27-.28-.34c-.19-.07-.43-.11-.73-.11-.58,0-1.12-.12-1.61-.36-.49-.24-.88-.58-1.18-1.01-.29-.43-.44-.91-.44-1.44s.15-1.04.46-1.48.72-.78,1.23-1.04,1.08-.38,1.69-.38,1.22.12,1.81.36c.59.24,1.11.58,1.55,1.03l-1.33,1.8c-.74-.54-1.44-.81-2.09-.81-.29,0-.54.05-.75.15-.21.1-.32.22-.32.36,0,.15.12.26.38.34.25.07.55.11.89.11.63,0,1.19.1,1.68.29.49.2.88.49,1.16.87.28.38.42.85.42,1.4,0,.59-.17,1.13-.5,1.62-.33.49-.78.88-1.34,1.16-.56.28-1.16.42-1.81.42s-1.28-.14-1.92-.42Z"/>
          </g>
          <g>
            <path class="cls-4" d="m47.2,48.79l-.65.66v2.46h-2.34v-8.87h2.34v2.75l3-2.96,1.87,1.72-2.43,2.46,2.99,3.58-1.95,1.73-2.82-3.52Z"/>
            <path class="cls-4" d="m53.51,45.04c-.22-.12-.39-.29-.53-.5-.14-.21-.21-.44-.21-.68,0-.38.14-.69.43-.94s.63-.38,1.03-.38c.38,0,.68.11.91.34s.35.53.35.91c0,.42-.13.76-.38,1.03s-.56.41-.94.41c-.23,0-.45-.06-.67-.18Zm-.62.63h2.46v6.23h-2.27l-.19-6.23Z"/>
            <path class="cls-4" d="m61.25,43.58c.86.43,1.55,1.02,2.08,1.77s.79,1.58.79,2.5c0,1.4-.51,2.45-1.53,3.14-1.02.69-2.39,1.04-4.12,1.04-.69,0-1.37-.04-2.05-.12l.09-8.53c.36-.16.7-.27,1.02-.34.32-.07.66-.11,1.02-.11.94,0,1.84.22,2.7.65Zm.31,3.91c0-.4-.11-.75-.33-1.05-.22-.3-.51-.53-.87-.69-.36-.16-.72-.24-1.1-.24-.2,0-.36.02-.49.05v3.99c1.87.04,2.8-.65,2.8-2.06Z"/>
            <path class="cls-4" d="m65.89,51.62c-.64-.28-1.16-.65-1.56-1.11l1.59-1.74c.25.28.55.5.89.66.34.16.68.24,1.03.24.31,0,.57-.06.76-.18.2-.12.29-.25.29-.41s-.09-.27-.28-.34c-.19-.07-.43-.11-.73-.11-.58,0-1.12-.12-1.61-.36-.49-.24-.88-.58-1.18-1.01-.29-.43-.44-.91-.44-1.44s.15-1.04.46-1.48.72-.78,1.23-1.04,1.08-.38,1.69-.38,1.22.12,1.81.36c.59.24,1.11.58,1.55,1.03l-1.33,1.8c-.74-.54-1.44-.81-2.09-.81-.29,0-.54.05-.75.15-.21.1-.32.22-.32.36,0,.15.12.26.38.34.25.07.55.11.89.11.63,0,1.19.1,1.68.29.49.2.88.49,1.16.87.28.38.42.85.42,1.4,0,.59-.17,1.13-.5,1.62-.33.49-.78.88-1.34,1.16-.56.28-1.16.42-1.81.42s-1.28-.14-1.92-.42Z"/>
          </g>
        </g>
      </g>
    </g>
  </g>
</svg>