<?xml version="1.0" encoding="UTF-8"?>
<svg id="Layer_2" data-name="Layer 2" xmlns="http://www.w3.org/2000/svg" viewBox="0 0 90.02 53.51">
  <defs>
    <style>
      .cls-1 {
        fill: #034ea2;
      }

      .cls-2 {
        fill: #00aeef;
      }

      .cls-3 {
        fill: #001689;
      }

      .cls-4 {
        fill: #f7941d;
      }

      .cls-5 {
        fill: #fff;
      }

      .cls-6 {
        fill: #8dc63f;
      }

      .cls-7 {
        fill: #ee2a7b;
        fill-rule: evenodd;
      }
    </style>
  </defs>
  <g id="Layer_1-2" data-name="Layer 1">
    <g>
      <g>
        <g>
          <path class="cls-5" d="m61.27,53.51s-.09,0-.14,0c-.44-.04-.85-.26-1.13-.6l-1.14-1.42c-.03.87-.75,1.57-1.63,1.57h-2.73c-.9,0-1.63-.73-1.63-1.63v-10.33c0-.9.73-1.63,1.63-1.63h2.73c.69,0,1.28.43,1.52,1.04l.83-.82c.62-.61,1.61-.63,2.25-.04l2.18,2c.33.3.52.72.53,1.16.01.44-.16.87-.47,1.18l-1.79,1.81,2.53,3.03c.56.68.49,1.68-.17,2.26l-2.27,2.01c-.3.26-.68.41-1.08.41Zm-5.14-8.02v1.85l.69-.7c.33-.33.78-.52,1.24-.48.16,0,.32.04.47.09-.1-.29-.12-.6-.06-.9l-.1.1c-.47.46-1.17.6-1.77.34-.18-.07-.33-.18-.47-.3Z"/>
          <path class="cls-5" d="m67.48,53.05h-2.64c-.88,0-1.6-.7-1.63-1.58l-.22-7.26c0-.28.06-.55.18-.8-.21-.43-.32-.88-.32-1.36,0-.91.36-1.71,1.05-2.32,1.27-1.11,3.33-1.11,4.48.02.58.58.89,1.34.89,2.22,0,.54-.11,1.04-.32,1.49.1.21.16.45.16.7v7.26c0,.9-.73,1.63-1.63,1.63Zm-1.42-11.02s.02.03.04.04c0,0,0,0,0,0,0-.01,0-.02,0-.03,0,0,.01-.02.02-.03-.03,0-.05,0-.07.01Z"/>
          <path class="cls-5" d="m71.11,53.18c-.86,0-1.72-.05-2.57-.15-.83-.1-1.45-.8-1.44-1.64l.11-9.93c0-.64.39-1.22.98-1.48.52-.22,1.01-.39,1.48-.49.48-.11,1-.16,1.54-.16,1.35,0,2.65.31,3.88.93h0c1.24.62,2.26,1.49,3.02,2.58.81,1.15,1.21,2.44,1.21,3.85,0,2.17-.86,3.9-2.5,5.01-1.45.99-3.38,1.49-5.71,1.49Zm-.74-3.27s.02,0,.03,0c-.01,0-.02-.02-.03-.03v.03Zm2.71-3.7v.15s0-.06,0-.09c0-.02,0-.04,0-.06Zm-2.63-3.55v.07s.09-.07.14-.1c-.05,0-.09.01-.14.02Z"/>
          <path class="cls-5" d="m81.99,53.2c-.97,0-1.94-.21-2.89-.62h0c-.96-.42-1.76-.99-2.39-1.71-.55-.62-.54-1.56.02-2.18l1.15-1.26c-.14-.16-.27-.32-.39-.5-.53-.77-.8-1.65-.8-2.6s.28-1.87.83-2.66c.52-.74,1.21-1.33,2.06-1.74,1.63-.79,3.63-.79,5.41-.06.89.36,1.67.88,2.35,1.56.57.57.64,1.47.16,2.12l-.88,1.19c.16.16.31.33.44.51.54.73.81,1.61.81,2.6s-.29,1.96-.86,2.8c-.54.8-1.27,1.43-2.17,1.89-.88.44-1.83.67-2.85.67Z"/>
        </g>
        <g>
          <path class="cls-7" d="m57.98,47.79l-.75.77v2.86h-2.73v-10.33h2.73v3.21l3.49-3.45,2.18,2-2.84,2.86,3.48,4.17-2.27,2.01-3.29-4.1Z"/>
          <path class="cls-2" d="m65.33,43.42c-.25-.14-.46-.34-.62-.58-.16-.25-.24-.51-.24-.79,0-.44.17-.8.5-1.1.33-.29.73-.44,1.2-.44.44,0,.79.13,1.06.4.27.26.4.62.4,1.06,0,.48-.15.88-.44,1.2-.29.32-.66.47-1.1.47-.26,0-.52-.07-.77-.21Zm-.72.73h2.86v7.26h-2.64l-.22-7.26Z"/>
          <path class="cls-4" d="m74.35,41.72c1,.5,1.81,1.19,2.42,2.06.61.87.92,1.84.92,2.91,0,1.64-.59,2.85-1.78,3.66-1.19.8-2.79,1.21-4.8,1.21-.8,0-1.6-.05-2.38-.14l.11-9.93c.42-.18.82-.32,1.19-.4.37-.08.76-.12,1.19-.12,1.1,0,2.14.25,3.14.75Zm.36,4.55c0-.47-.13-.87-.39-1.22-.26-.35-.6-.61-1.01-.8-.42-.19-.84-.28-1.28-.28-.23,0-.42.02-.58.05v4.64c2.17.05,3.26-.75,3.26-2.4Z"/>
          <path class="cls-6" d="m79.75,51.08c-.74-.32-1.35-.76-1.82-1.29l1.85-2.03c.29.33.64.59,1.03.77.4.19.8.28,1.2.28.37,0,.66-.07.89-.21.23-.14.34-.3.34-.48s-.11-.32-.33-.4-.5-.12-.85-.12c-.68,0-1.3-.14-1.87-.42-.57-.28-1.03-.67-1.37-1.17s-.51-1.06-.51-1.68.18-1.21.53-1.73c.36-.51.84-.91,1.44-1.21.6-.29,1.26-.44,1.97-.44s1.42.14,2.11.42c.69.28,1.29.68,1.81,1.2l-1.55,2.1c-.86-.63-1.67-.95-2.44-.95-.34,0-.63.06-.88.18-.25.12-.37.26-.37.42,0,.17.15.3.44.39.29.09.64.13,1.04.13.73,0,1.38.11,1.96.34s1.03.57,1.36,1.01c.33.45.49.99.49,1.63,0,.69-.19,1.31-.58,1.88-.39.57-.91,1.02-1.56,1.35-.65.33-1.35.49-2.11.49s-1.49-.16-2.23-.49Z"/>
        </g>
      </g>
      <g>
        <g>
          <path class="cls-5" d="m3,39.41C1.35,39.41.01,38.07.01,36.42V8.14C.01,6.49,1.35,5.15,3,5.15h7.42c1.65,0,2.99,1.34,2.99,2.99v17.87h7.03c1.65,0,2.99,1.34,2.99,2.99v7.42c0,1.65-1.34,2.99-2.99,2.99H3Z"/>
          <path class="cls-5" d="m22.08,39.22c-1.61,0-2.94-1.28-2.99-2.9l-.59-19.67c-.02-.76.24-1.49.74-2.06-.74-1.15-1.11-2.41-1.11-3.75,0-2.05.82-3.85,2.37-5.22,1.44-1.26,3.24-1.93,5.22-1.93s3.68.67,4.97,1.93c1.3,1.28,1.99,3,1.99,4.99,0,1.51-.37,2.9-1.09,4.09.4.51.64,1.15.64,1.85v19.67c0,1.65-1.34,2.99-2.99,2.99h-7.16Z"/>
          <path class="cls-5" d="m45.08,39.41c-2.6,0-5.13-.59-7.51-1.75-2.37-1.15-4.41-2.79-6.08-4.86-1.69-2.09-2.83-4.48-3.4-7.11-.22-1.06-.33-2.17-.33-3.34,0-2.56.56-5.06,1.67-7.43,1.11-2.38,2.7-4.42,4.72-6.08,2.04-1.68,4.4-2.83,7.01-3.4,1.29-.25,2.52-.37,3.72-.37,1.99,0,3.95.29,5.82.85,2.01.61,3.71,1.53,5.05,2.74,1.09.98,1.3,2.61.51,3.84l-2.52,3.9,3.79.75c.97.19,1.78.85,2.16,1.76.65,1.53.98,3.22.98,5.03,0,2.26-.53,4.49-1.59,6.63-1.04,2.11-2.5,3.94-4.34,5.43-1.88,1.52-4.01,2.54-6.35,3.03-1.14.24-2.25.36-3.32.36Z"/>
          <path class="cls-5" d="m72.58,39.59c-3.09,0-6.02-.82-8.73-2.45-2.66-1.59-4.82-3.73-6.42-6.35-1.63-2.68-2.46-5.58-2.46-8.62s.83-5.94,2.47-8.6c1.6-2.61,3.78-4.71,6.45-6.25,2.7-1.56,5.62-2.35,8.69-2.35s5.95.79,8.63,2.36c2.65,1.54,4.79,3.65,6.37,6.24,1.61,2.64,2.42,5.54,2.42,8.6s-.81,6-2.41,8.68c-1.58,2.64-3.72,4.77-6.36,6.34-2.68,1.6-5.6,2.41-8.65,2.41Zm-.33-21.23c-.78,0-1.45.16-2.06.5-.57.32-1.01.74-1.33,1.29-.33.57-.49,1.21-.49,1.97,0,.82.17,1.53.52,2.15.34.61.79,1.07,1.37,1.4.6.34,1.28.51,2.09.51s1.5-.18,2.15-.54c.66-.37,1.17-.86,1.56-1.49.36-.59.54-1.24.54-2s-.17-1.34-.52-1.9c-.37-.59-.87-1.04-1.51-1.38-.69-.36-1.45-.53-2.33-.53Z"/>
        </g>
        <g>
          <g>
            <path class="cls-5" d="m20.44,39.42H3c-1.66,0-3-1.34-3-3V8.14c0-1.66,1.34-3,3-3h7.42c1.66,0,3,1.34,3,3v17.86h7.02c1.66,0,3,1.34,3,3v7.42c0,1.66-1.34,3-3,3Zm-14.44-6h11.44v-1.42h-7.02c-1.66,0-3-1.34-3-3V11.14h-1.42v22.28Z"/>
            <path class="cls-5" d="m29.24,39.23h-7.16c-1.62,0-2.95-1.29-3-2.91l-.59-19.67c-.02-.76.24-1.49.73-2.06-.73-1.15-1.11-2.41-1.11-3.75,0-2.05.82-3.86,2.38-5.22,1.44-1.26,3.25-1.93,5.22-1.93s3.69.67,4.98,1.94c1.3,1.28,1.99,3.01,1.99,5,0,1.51-.37,2.9-1.08,4.09.4.51.64,1.15.64,1.85v19.67c0,1.66-1.34,3-3,3Zm-4.25-6h1.25v-13.67h-1.67l.41,13.67Zm.73-23.54c-.54,0-.92.13-1.27.44-.26.22-.33.39-.33.71,0,.14.02.29.17.52.17.26.37.45.62.59,0,0,0,0,0,0,.3.17.5.19.62.19.4,0,.58-.11.77-.32.18-.19.39-.51.39-1.21,0-.52-.14-.66-.2-.72-.06-.06-.22-.21-.77-.21Z"/>
            <path class="cls-5" d="m45.08,39.42c-2.6,0-5.13-.59-7.51-1.75-2.37-1.15-4.42-2.79-6.09-4.86-1.69-2.09-2.83-4.49-3.4-7.11-.22-1.06-.33-2.18-.33-3.34,0-2.56.56-5.06,1.68-7.43,1.11-2.38,2.7-4.43,4.72-6.09,2.05-1.69,4.41-2.83,7.02-3.4,1.29-.25,2.52-.37,3.72-.37,1.99,0,3.95.29,5.82.85,2.01.61,3.71,1.53,5.06,2.74,1.09.99,1.31,2.62.51,3.86l-2.51,3.88,3.77.75c.97.19,1.79.86,2.17,1.77.65,1.53.98,3.22.98,5.03,0,2.26-.53,4.49-1.59,6.63-1.04,2.11-2.5,3.94-4.34,5.44-1.88,1.52-4.02,2.54-6.36,3.04-1.14.24-2.26.36-3.33.36Zm-.19-28.35c-.82,0-1.67.08-2.52.24-1.62.35-3.09,1.06-4.41,2.15-1.35,1.11-2.36,2.42-3.11,4-.75,1.59-1.11,3.19-1.11,4.89,0,.76.07,1.47.2,2.1.37,1.7,1.09,3.21,2.2,4.58,1.13,1.4,2.45,2.46,4.05,3.23,1.58.77,3.18,1.14,4.88,1.14.66,0,1.36-.08,2.09-.23,1.42-.3,2.67-.9,3.81-1.83,1.18-.96,2.08-2.08,2.74-3.43.65-1.33.97-2.63.97-3.98,0-.45-.03-.87-.1-1.27l-7.66-1.53-.18.77,3.55.68c.82.16,1.55.65,1.99,1.37.44.71.56,1.58.34,2.39-.38,1.35-1.29,2.49-2.71,3.39-1.08.68-2.21,1.16-3.38,1.4-.6.12-1.16.18-1.7.18-2.18,0-4.15-.76-5.84-2.25-1.62-1.42-2.68-3.24-3.17-5.39-.01-.05-.02-.09-.03-.14-.1-.59-.16-1.18-.16-1.75,0-2.1.64-4.04,1.9-5.76,1.31-1.79,3.02-2.94,5.09-3.43,2.19-.48,4.08-.31,5.97.31.07.02.15.05.22.07l.73-1.13c-.19-.07-.38-.13-.58-.2-1.31-.4-2.68-.6-4.09-.6Z"/>
            <path class="cls-5" d="m72.58,39.61c-3.09,0-6.03-.82-8.74-2.45-2.66-1.59-4.82-3.73-6.42-6.36-1.63-2.68-2.46-5.58-2.46-8.63s.83-5.95,2.47-8.61c1.61-2.61,3.78-4.71,6.46-6.26,2.7-1.56,5.63-2.35,8.7-2.35s5.96.79,8.64,2.36c2.65,1.55,4.8,3.65,6.38,6.25,1.61,2.65,2.42,5.54,2.42,8.61s-.81,6.01-2.41,8.68c-1.58,2.64-3.72,4.77-6.37,6.35-2.69,1.6-5.6,2.41-8.66,2.41Zm0-28.65c-2.03,0-3.9.51-5.7,1.55-1.83,1.06-3.25,2.43-4.34,4.21-1.06,1.72-1.58,3.51-1.58,5.46s.52,3.76,1.58,5.51c1.1,1.81,2.53,3.23,4.38,4.33t0,0c1.79,1.07,3.64,1.6,5.66,1.6s3.82-.51,5.59-1.56c1.81-1.07,3.21-2.47,4.28-4.27,1.05-1.76,1.56-3.59,1.56-5.6s-.51-3.78-1.55-5.49c-1.07-1.76-2.47-3.13-4.27-4.18-1.78-1.04-3.61-1.54-5.61-1.54Zm-.22,21.23c-1.86,0-3.57-.44-5.08-1.31-1.52-.87-2.73-2.1-3.6-3.65-.86-1.52-1.29-3.24-1.29-5.09s.44-3.49,1.29-4.97c.87-1.5,2.08-2.69,3.61-3.54,1.5-.83,3.17-1.25,4.96-1.25s3.56.41,5.1,1.21c1.58.83,2.86,2,3.8,3.49.96,1.52,1.45,3.24,1.45,5.09s-.48,3.6-1.43,5.14c-.92,1.5-2.18,2.7-3.72,3.57h0c-1.55.87-3.26,1.31-5.09,1.31Zm-.11-13.81c-.78,0-1.45.16-2.06.5-.57.32-1,.74-1.32,1.29-.33.57-.49,1.21-.49,1.97,0,.82.17,1.52.52,2.15.34.61.79,1.06,1.37,1.4.59.34,1.28.51,2.08.51s1.5-.18,2.15-.54h0c.66-.37,1.16-.85,1.55-1.48.36-.59.54-1.24.54-1.99s-.17-1.33-.52-1.89c-.37-.59-.86-1.04-1.51-1.37-.68-.36-1.44-.53-2.32-.53Z"/>
          </g>
          <path class="cls-3" d="m20.44,29v7.42H3V8.14h7.42v20.86h10.02Z"/>
          <path class="cls-3" d="m23.43,14.58c-.68-.38-1.24-.91-1.67-1.58-.43-.67-.65-1.39-.65-2.15,0-1.19.45-2.18,1.35-2.97.9-.79,1.99-1.19,3.25-1.19,1.19,0,2.15.36,2.88,1.08.73.72,1.09,1.67,1.09,2.86,0,1.31-.4,2.39-1.19,3.25-.79.85-1.78,1.28-2.97,1.28-.72,0-1.42-.19-2.1-.58Zm-1.95,1.99h7.76v19.67h-7.16l-.59-19.67Z"/>
          <path class="cls-3" d="m57.7,23.95c0,1.81-.43,3.58-1.28,5.31-.85,1.73-2.04,3.21-3.54,4.43-1.51,1.22-3.2,2.04-5.08,2.43-.94.2-1.84.3-2.71.3-2.15,0-4.22-.48-6.2-1.45-1.98-.96-3.67-2.31-5.07-4.05-1.4-1.73-2.33-3.69-2.8-5.86-.17-.84-.26-1.74-.26-2.71,0-2.13.46-4.18,1.39-6.16.93-1.98,2.23-3.66,3.92-5.05,1.68-1.39,3.6-2.31,5.75-2.78,1.04-.2,2.07-.3,3.08-.3,1.71,0,3.36.24,4.95.72,1.6.48,2.9,1.18,3.92,2.1l-3.93,6.09c-.54-.52-1.26-.92-2.13-1.21-.88-.28-1.78-.43-2.69-.43-.54,0-1.1.06-1.67.19-1.36.32-2.48,1.08-3.36,2.28-.88,1.2-1.32,2.53-1.32,3.99,0,.4.04.8.11,1.22.35,1.53,1.09,2.8,2.23,3.8,1.14,1,2.42,1.5,3.86,1.5.35,0,.71-.04,1.08-.11.82-.17,1.61-.51,2.39-1,.78-.49,1.26-1.05,1.43-1.67l-6.61-1.26,1.52-6.64,12.28,2.45c.49,1.16.74,2.45.74,3.86Z"/>
          <path class="cls-3" d="m65.38,34.58c-2.25-1.35-4.05-3.13-5.4-5.34-1.35-2.21-2.02-4.57-2.02-7.07s.67-4.84,2.02-7.03c1.35-2.19,3.15-3.93,5.4-5.23,2.25-1.3,4.65-1.95,7.2-1.95s4.9.65,7.13,1.95,4,3.04,5.33,5.21c1.32,2.18,1.99,4.53,1.99,7.05s-.66,4.93-1.99,7.14c-1.32,2.21-3.1,3.98-5.33,5.31-2.23,1.32-4.6,1.99-7.13,1.99s-4.95-.67-7.2-2.02Zm10.6-6.33c1.1-.62,1.98-1.46,2.63-2.52.66-1.06.98-2.25.98-3.56s-.33-2.45-.98-3.49c-.66-1.04-1.54-1.85-2.65-2.43-1.11-.58-2.35-.87-3.71-.87-1.29,0-2.46.29-3.51.87-1.05.58-1.87,1.39-2.47,2.41-.59,1.03-.89,2.18-.89,3.47s.3,2.54.91,3.62c.61,1.08,1.43,1.92,2.49,2.52,1.05.61,2.25.91,3.58.91s2.52-.31,3.62-.93Z"/>
        </g>
      </g>
      <g>
        <g>
          <path class="cls-5" d="m80.94,40.08c-.46,0-.89-.13-1.27-.38-.36-.24-.66-.56-.87-.96-.21-.39-.31-.83-.31-1.29s.11-.91.33-1.3c.22-.4.53-.73.92-.96.4-.24.83-.35,1.3-.35.19,0,.38.02.56.07.08-.02.16-.03.24-.03h1.04c.5,0,.91.39.93.89l.14,3.31c.01.25-.08.5-.26.69-.18.18-.42.29-.67.29h-1.14c-.11,0-.22-.02-.32-.05-.2.05-.41.08-.62.08Z"/>
          <path class="cls-5" d="m85.62,40.06c-.22,0-.43-.08-.59-.21-.16.13-.37.2-.58.2,0,0-1.19-.02-1.19-.02-.5,0-.91-.41-.92-.92l-.09-5c0-.25.09-.49.27-.67.18-.18.42-.28.67-.28h1.19c.51,0,.93.41.93.92v.7c.07,0,.13,0,.19,0,.67,0,1.23.26,1.64.76.36.44.55,1.02.56,1.71v1.87c.01.25-.08.49-.26.66s-.41.28-.66.28h-1.15Z"/>
        </g>
        <g>
          <path class="cls-5" d="m80.94,40.02c-.45,0-.87-.12-1.24-.37-.35-.23-.64-.54-.85-.93-.2-.38-.31-.81-.31-1.26s.11-.89.32-1.28c.22-.39.52-.71.9-.94.55-.33,1.22-.44,1.83-.27.08-.02.16-.03.24-.03h1.04c.47,0,.85.37.87.84l.14,3.31c.01.24-.08.47-.24.64-.17.17-.39.27-.63.27h-1.14c-.11,0-.22-.02-.31-.06-.21.05-.41.08-.62.08Zm.21-2.78c-.08,0-.14.02-.17.05-.03.02-.04.04-.05.06-.01.1.01.18.06.23.11.11.28.11.34.05.03-.03.07-.11.07-.18,0-.05-.01-.1-.03-.12-.08-.07-.14-.09-.22-.09Z"/>
          <path class="cls-5" d="m86.77,40h-1.15c-.23,0-.43-.09-.59-.23-.16.14-.37.21-.59.22l-1.17-.02c-.47,0-.85-.39-.86-.86l-.09-5c0-.24.09-.46.25-.63s.39-.26.62-.26h1.19c.48,0,.87.38.88.86v.77c.74-.08,1.4.19,1.84.73.35.43.54,1,.54,1.67v1.87c.01.23-.08.46-.24.62-.16.17-.39.26-.62.26Z"/>
        </g>
        <g>
          <path class="cls-3" d="m81.87,39.12v-.29c-.12.1-.26.17-.42.23-.17.06-.34.09-.51.09-.27,0-.53-.08-.76-.23-.23-.15-.42-.36-.56-.61s-.21-.54-.21-.85.07-.6.21-.85.34-.46.58-.61c.25-.15.52-.22.82-.22.16,0,.32.03.46.08.14.05.26.13.35.22v-.27h1.04l.14,3.31h-1.14Zm-.41-1.1c.1-.07.18-.16.24-.27.06-.11.09-.23.09-.35,0-.17-.06-.31-.17-.43-.11-.11-.25-.17-.41-.17-.18,0-.34.06-.48.19s-.21.28-.21.46c0,.11.03.21.09.32.06.1.14.19.24.25.1.06.2.09.3.09s.21-.03.31-.1Z"/>
          <path class="cls-3" d="m85.62,39.12v-1.75c0-.17-.05-.31-.16-.41-.1-.1-.25-.15-.42-.15-.3,0-.5.15-.61.46l.02,1.84-1.17-.02-.09-5h1.19l.03,2.09c.12-.14.29-.26.49-.34.2-.09.4-.13.61-.13.38,0,.69.14.91.42s.34.66.35,1.13v1.87s-1.14,0-1.14,0Z"/>
        </g>
      </g>
      <g>
        <path class="cls-1" d="m86.07,2.59c.55.34.98.8,1.29,1.36.31.57.44,1.17.4,1.82-.04.65-.26,1.25-.64,1.81-.39.56-.88,1-1.49,1.32-.61.32-1.26.46-1.94.42-.66-.04-1.26-.26-1.78-.64-.52-.38-.92-.87-1.2-1.46-.28-.59-.4-1.2-.36-1.83.04-.65.25-1.24.63-1.77.38-.53.86-.94,1.44-1.23.58-.29,1.19-.41,1.82-.37.68.04,1.3.24,1.85.58Zm-.51,4.79c.53-.44.82-1.01.86-1.69.04-.63-.17-1.17-.64-1.62-.47-.45-1.02-.69-1.65-.73-.7-.04-1.27.12-1.72.49-.45.37-.7.92-.75,1.63-.04.7.13,1.28.53,1.75.4.47.92.73,1.57.77.66.04,1.26-.16,1.8-.6Zm-.98-1.27c.12.3.3.45.53.47l-.06.92c-.31-.02-.59-.15-.86-.4s-.44-.53-.52-.84h-.08s-.05.81-.05.81l-.92-.06.2-3.07c.11-.06.25-.11.43-.14.18-.03.36-.04.53-.03.51.03.89.17,1.13.42.24.25.35.57.32.96-.03.44-.25.76-.65.96Zm-.51-.88c.12-.06.19-.14.19-.24,0-.12-.02-.22-.1-.29-.07-.07-.17-.11-.29-.12-.07,0-.13,0-.18.01l-.05.72c.15,0,.29-.02.42-.08Z"/>
        <path class="cls-5" d="m83.93,11.32c-.12,0-.25,0-.38-.01-1.05-.07-2-.41-2.83-1.02-.79-.58-1.41-1.33-1.83-2.22-.42-.9-.61-1.84-.55-2.81.06-1.02.4-1.96.99-2.8.57-.8,1.3-1.43,2.18-1.87.9-.44,1.85-.64,2.83-.57,1.01.07,1.95.36,2.78.88,0,0,0,0,0,0,.85.53,1.52,1.24,1.99,2.11.48.9.7,1.87.63,2.9-.06,1.01-.4,1.96-.99,2.82-.57.82-1.31,1.48-2.21,1.95-.83.43-1.71.65-2.62.65Z"/>
        <path class="cls-3" d="m86.07,2.59c.55.34.98.8,1.29,1.36.31.57.44,1.17.4,1.82-.04.65-.26,1.25-.64,1.81-.39.56-.88,1-1.49,1.32-.61.32-1.26.46-1.94.42-.66-.04-1.26-.26-1.78-.64-.52-.38-.92-.87-1.2-1.46-.28-.59-.4-1.2-.36-1.83.04-.65.25-1.24.63-1.77.38-.53.86-.94,1.44-1.23.58-.29,1.19-.41,1.82-.37.68.04,1.3.24,1.85.58Zm-.51,4.79c.53-.44.82-1.01.86-1.69.04-.63-.17-1.17-.64-1.62-.47-.45-1.02-.69-1.65-.73-.7-.04-1.27.12-1.72.49-.45.37-.7.92-.75,1.63-.04.7.13,1.28.53,1.75.4.47.92.73,1.57.77.66.04,1.26-.16,1.8-.6Zm-.98-1.27c.12.3.3.45.53.47l-.06.92c-.31-.02-.59-.15-.86-.4s-.44-.53-.52-.84h-.08s-.05.81-.05.81l-.92-.06.2-3.07c.11-.06.25-.11.43-.14.18-.03.36-.04.53-.03.51.03.89.17,1.13.42.24.25.35.57.32.96-.03.44-.25.76-.65.96Zm-.51-.88c.12-.06.19-.14.19-.24,0-.12-.02-.22-.1-.29-.07-.07-.17-.11-.29-.12-.07,0-.13,0-.18.01l-.05.72c.15,0,.29-.02.42-.08Z"/>
      </g>
    </g>
  </g>
</svg>