<svg id="visual" viewBox="0 0 960 540" width="960" height="540" xmlns="http://www.w3.org/2000/svg" xmlns:xlink="http://www.w3.org/1999/xlink" version="1.1"><path d="M0 213L32 235.3C64 257.7 128 302.3 192 305.3C256 308.3 320 269.7 384 262.8C448 256 512 281 576 299.8C640 318.7 704 331.3 768 334.8C832 338.3 896 332.7 928 329.8L960 327L960 0L928 0C896 0 832 0 768 0C704 0 640 0 576 0C512 0 448 0 384 0C320 0 256 0 192 0C128 0 64 0 32 0L0 0Z" fill="#3ac0c2" stroke-linecap="round" stroke-linejoin="miter"></path></svg>